<svg width="23" height="15" viewBox="0 0 23 15" fill="none" xmlns="http://www.w3.org/2000/svg">
<path d="M11.162 2.24175C5.22803 3.47265 0.322065 4.49179 0.255887 4.50943C0.127943 4.54473 0 4.73444 0 4.88885C0 4.93738 0.0441184 5.02562 0.101472 5.08739C0.154415 5.14915 1.59709 5.93446 3.30888 6.83448C5.02068 7.7389 6.42806 8.48451 6.43688 8.49333C6.45894 8.51098 7.30601 13.1743 7.50013 14.3126C7.57072 14.7273 7.61043 14.8596 7.68102 14.917C7.90602 15.1067 7.93691 15.089 10.2311 13.5581L12.384 12.1243L14.5944 13.5581C16.9768 15.1067 16.99 15.1155 17.1974 14.8949C17.3033 14.7802 22.5886 0.490245 22.5886 0.318183C22.5886 0.260829 22.5401 0.163769 22.4783 0.106415C22.3945 0.018178 22.3283 -0.00388145 22.1607 0.000530243C22.046 0.00494194 17.0959 1.01525 11.162 2.24175ZM19.2136 1.46085C14.4488 3.91384 6.80747 7.80508 6.76777 7.79626C6.67953 7.7742 1.54415 5.05209 1.54415 5.02562C1.54415 4.99915 19.2489 1.3285 19.3901 1.32408C19.4386 1.32408 19.3592 1.38585 19.2136 1.46085ZM21.3842 1.50497C21.3754 1.53585 20.3386 4.35061 19.0812 7.76096C17.8283 11.1713 16.7871 13.9817 16.7694 14.0081C16.7429 14.0611 10.1428 9.80365 10.1428 9.72865C10.1384 9.68894 21.3048 1.45644 21.371 1.45644C21.3886 1.45203 21.3974 1.4785 21.3842 1.50497ZM18.0444 2.92558C18.0444 2.93882 16.0415 4.4212 13.5885 6.22123L9.13252 9.49923L9.04869 9.71982C9.00457 9.84335 8.76192 10.6154 8.51486 11.436C8.26338 12.2522 8.04279 12.9096 8.02956 12.8919C7.98985 12.8434 7.21336 8.47568 7.23984 8.44921C7.25748 8.43156 18.0091 2.91235 18.0356 2.90794C18.04 2.90794 18.0444 2.91676 18.0444 2.92558ZM10.7031 11.0257C11.2326 11.3743 11.6737 11.661 11.6826 11.6654C11.687 11.6699 11.0164 12.1243 10.1869 12.6758C9.35752 13.2272 8.67368 13.6684 8.66486 13.6596C8.62074 13.6155 9.63547 10.3595 9.684 10.3816C9.71047 10.3904 10.1693 10.6816 10.7031 11.0257Z" fill="#9DC6FF"/>
</svg>
