<svg width="16" height="14" viewBox="0 0 16 14" fill="none" xmlns="http://www.w3.org/2000/svg">
<path d="M4.08672 1.73566C2.02809 2.61972 0.297458 3.37882 0.23498 3.42568C-0.0742832 3.66309 -0.0774071 4.1879 0.231857 4.42219C0.288086 4.46593 2.02184 5.2219 4.0836 6.09971C7.51049 7.55856 7.84474 7.69601 8.00094 7.69601C8.15713 7.69601 8.49451 7.55856 11.9183 6.09971C13.98 5.21878 15.7138 4.46593 15.77 4.42219C16.0762 4.1879 16.0762 3.66934 15.7731 3.4288C15.7169 3.38507 13.98 2.62284 11.9152 1.73878C8.50076 0.273685 8.14776 0.129986 7.99469 0.129986C7.84474 0.13311 7.44489 0.295552 4.08672 1.73566ZM10.8655 2.69781C12.4337 3.36945 13.7145 3.92237 13.7083 3.92862C13.7051 3.93174 12.4243 4.47842 10.8624 5.14381C9.09429 5.89666 8.00094 6.3465 7.96345 6.33713C7.92909 6.32776 6.63893 5.78108 5.09261 5.12194C2.70909 4.10668 2.29361 3.91925 2.35297 3.89426C2.69659 3.73806 7.96033 1.47638 7.98532 1.47638C8.00406 1.47325 9.30047 2.02306 10.8655 2.69781Z" fill="#686C6F"/>
<path d="M0.497103 6.44022C0.322166 6.47146 0.144105 6.60579 0.0691319 6.75886C-0.0683186 7.04313 0.0160261 7.42737 0.250317 7.58044C0.312794 7.62105 2.03405 8.36766 4.08019 9.24234C7.71326 10.7918 7.80073 10.8293 8.00065 10.8293C8.20058 10.8293 8.28805 10.7918 11.9211 9.24234C13.9673 8.36766 15.6885 7.62105 15.751 7.58044C15.9884 7.42424 16.0728 7.02751 15.9259 6.74949C15.8197 6.54956 15.6198 6.43398 15.3824 6.43398C15.2106 6.43398 14.9794 6.52769 11.5994 7.9678L8.00065 9.50162L4.41757 7.97405C2.44328 7.13685 0.781376 6.44022 0.722022 6.43085C0.662668 6.4246 0.559581 6.42773 0.497103 6.44022Z" fill="#686C6F"/>
<path d="M0.378641 9.61095C-0.0462066 9.80151 -0.133675 10.3982 0.219323 10.6949C0.269305 10.7387 2.00306 11.4978 4.07419 12.385C7.42611 13.8219 7.8572 14 8.0009 14C8.1446 14 8.57569 13.8219 11.9276 12.385C13.9987 11.4978 15.7325 10.7387 15.7825 10.6949C15.923 10.5794 15.998 10.4044 15.998 10.2045C15.998 9.81401 15.6981 9.53286 15.3139 9.57034C15.2139 9.57972 14.0831 10.0514 11.5871 11.1229L8.0009 12.663L4.41781 11.1229C0.553578 9.46413 0.637922 9.49537 0.378641 9.61095Z" fill="#686C6F"/>
</svg>
