<svg width="10" height="10" viewBox="0 0 10 10" fill="none" xmlns="http://www.w3.org/2000/svg">
<path d="M1.17287 0.0531988C0.625 0.199475 0.194149 0.632985 0.0531914 1.18352C0 1.38564 0 1.48139 0 5C0 8.51862 0 8.61436 0.0531914 8.81649C0.194149 9.37234 0.627659 9.80585 1.18351 9.94681C1.38564 10 1.48138 10 5 10C8.51861 10 8.61436 10 8.81648 9.94681C9.37233 9.80319 9.80584 9.36968 9.9468 8.81117C9.99999 8.60904 9.99999 8.5266 9.99467 6.93617C9.9867 5.29256 9.9867 5.26862 9.93084 5.19415C9.90159 5.15426 9.8351 5.09043 9.78457 5.05851C9.70744 5.00532 9.66755 4.99734 9.52127 5.00532C9.31116 5.01596 9.19414 5.08777 9.11967 5.25C9.07446 5.35107 9.06914 5.45479 9.06914 6.93085C9.06914 8.70479 9.0718 8.66755 8.86967 8.86968C8.65691 9.08245 8.9335 9.06915 5 9.06915C1.06649 9.06915 1.34308 9.08245 1.13032 8.86968C0.917553 8.65692 0.93085 8.93351 0.93085 5C0.93085 1.0665 0.917553 1.34309 1.13032 1.13033C1.33245 0.928198 1.29521 0.930858 3.06915 0.930858C4.54521 0.930858 4.64893 0.925539 4.75 0.880326C4.91223 0.805858 4.98404 0.688837 4.99468 0.47873C5.00266 0.332454 4.99468 0.292561 4.94149 0.215433C4.90957 0.164901 4.84574 0.0984116 4.80585 0.0691566C4.73138 0.0133047 4.7101 0.0133047 3.05053 0.00798607C1.46011 0.00266647 1.35904 0.00532627 1.17287 0.0531988Z" fill="#FAFCFF"/>
<path d="M7.053 0.0452209C6.82428 0.156923 6.73651 0.470753 6.87215 0.702136C6.91736 0.781922 6.97853 0.837773 7.05566 0.875008C7.16205 0.925539 7.21524 0.930859 7.77907 0.930859H8.39077L6.48385 2.83777C4.64609 4.68086 4.5796 4.75266 4.553 4.87235C4.47588 5.24734 4.75247 5.52394 5.12747 5.44681C5.24715 5.42022 5.31896 5.35373 7.16205 3.51596L9.06896 1.60905V2.22075C9.06896 2.78458 9.07428 2.83777 9.12481 2.94415C9.28438 3.27394 9.80034 3.27394 9.95726 2.9415C9.99715 2.85639 9.99981 2.71809 9.99449 1.56118L9.98651 0.273944L9.9147 0.180859C9.77375 -0.00265121 9.803 8.58307e-06 8.39875 8.58307e-06C7.2897 8.58307e-06 7.13013 0.00532722 7.053 0.0452209Z" fill="#FAFCFF"/>
</svg>
