<svg width="28" height="30" viewBox="0 0 28 30" fill="none" xmlns="http://www.w3.org/2000/svg">
<path d="M14 29.5C21.4901 29.5 27.5 22.9726 27.5 15C27.5 7.02741 21.4901 0.5 14 0.5C6.50991 0.5 0.5 7.02741 0.5 15C0.5 22.9726 6.50991 29.5 14 29.5Z" stroke="#EFEDED"/>
<path d="M9.50473 9.24509C9.30317 9.35511 9.13667 9.54373 9.05488 9.75749C8.98477 9.94924 8.98769 10.2699 9.06364 10.4931C9.12498 10.6597 9.25351 10.8074 11.1551 12.8633C12.271 14.0704 13.1824 15.0669 13.1824 15.0827C13.1795 15.0952 12.271 16.0855 11.1639 17.2769C8.87377 19.7477 8.98477 19.6031 9.00814 20.0715C9.02275 20.3638 9.08701 20.5273 9.26228 20.7159C9.50765 20.98 9.88447 21.068 10.2145 20.9391C10.384 20.8731 10.4716 20.7788 12.4404 18.6663L14.4939 16.4595L16.5299 18.6475C18.1336 20.367 18.5981 20.8511 18.712 20.9077C19.3021 21.2063 19.9914 20.7442 19.9973 20.0432C20.0031 19.6062 20.1229 19.7571 17.8503 17.3083C16.7257 16.098 15.8084 15.0921 15.8084 15.0764C15.8084 15.0607 16.7198 14.0642 17.8357 12.8602C20.0937 10.4271 19.9943 10.5559 19.9973 10.1253C19.9973 9.81721 19.9184 9.61917 19.711 9.40855C19.5153 9.20737 19.3254 9.13821 19.0392 9.15707C18.8814 9.16964 18.7909 9.19479 18.6799 9.25766C18.5747 9.32053 17.97 9.95239 16.5241 11.5116L14.5115 13.6775L13.7345 12.8476C11.0441 9.96182 10.4161 9.30482 10.2876 9.23566C10.1941 9.1885 10.0889 9.16336 9.92244 9.15707C9.7092 9.14764 9.67415 9.15392 9.50473 9.24509Z" fill="#717171"/>
</svg>
