<svg width="56" height="56" viewBox="0 0 56 56" fill="none" xmlns="http://www.w3.org/2000/svg">
<g filter="url(#filter0_f_244_172)">
<circle cx="28" cy="28" r="27" fill="#FAFCFF"/>
<circle cx="28" cy="28" r="26.5" stroke="#EDEEF1"/>
</g>
<path d="M27.6789 11.0961C27.5516 11.1597 24.6727 13.975 21.3006 17.363C15.1769 23.4867 15.153 23.5106 15.161 23.8287C15.1689 24.3456 15.1133 24.2741 16.9265 26.1907C17.4594 26.7633 18.0479 27.3836 18.2388 27.5825C18.4217 27.7813 18.5648 27.9801 18.5569 28.0119C18.541 28.0517 17.7616 28.8629 16.8152 29.8172C15.0258 31.6146 14.9144 31.7657 15.0337 32.2826C15.0974 32.5849 27.4244 44.9119 27.7345 44.9834C27.8538 45.0153 28.0686 44.9994 28.2117 44.9516C28.4026 44.888 30.2397 43.0986 34.6615 38.6768L40.8409 32.4974V32.1236C40.8409 31.6941 40.7853 31.6226 39.6878 30.4694C37.9938 28.7038 37.4212 28.0756 37.4212 28.0119C37.4212 27.9801 38.1767 27.2087 39.0993 26.2941C40.0218 25.3716 40.825 24.5286 40.8887 24.4093C40.9523 24.29 41 24.0593 41 23.8923C41 23.5981 40.833 23.4231 34.7411 17.3312C27.9572 10.5553 28.2594 10.8257 27.6789 11.0961ZM33.4527 18.6275L38.7891 23.9718L37.4291 25.3318L36.0692 26.6917L32.2757 22.8982C28.2833 18.9058 28.2912 18.9138 27.7425 19.0569C27.5914 19.0888 26.2712 20.3533 23.7581 22.8584C21.6903 24.9262 19.9725 26.6281 19.9486 26.652C19.9248 26.6758 19.6862 26.4532 19.4237 26.1589C19.1533 25.8646 18.5728 25.2443 18.1433 24.783L17.348 23.94L22.6765 18.6116C25.6032 15.6849 28.0208 13.2911 28.0606 13.2911C28.0924 13.2911 30.5181 15.6929 33.4527 18.6275ZM31.4088 24.624C33.23 26.4452 34.7172 27.9563 34.7172 27.9881C34.7172 28.0199 33.1982 29.5627 31.3372 31.4237L27.9572 34.8037L24.617 31.4476C22.7799 29.6025 21.2768 28.0676 21.2768 28.0278C21.2768 27.9244 27.9015 21.3235 28.0129 21.3235C28.0606 21.3235 29.5876 22.8107 31.4088 24.624ZM28.0367 36.9749L28.4503 36.9351L32.2677 33.1257L36.0771 29.3162L36.61 29.8888C36.9042 30.199 37.4689 30.8034 37.8586 31.2249C38.2562 31.6464 38.5823 32.0282 38.5982 32.06C38.638 32.1634 28.0845 42.7169 27.9493 42.7169C27.8856 42.7169 25.4441 40.3151 22.5174 37.3805L17.189 32.0441L18.5569 30.6841L19.9248 29.3242L23.774 33.1654L27.6232 37.0146L28.0367 36.9749Z" fill="black"/>
<defs>
<filter id="filter0_f_244_172" x="0" y="0" width="56" height="56" filterUnits="userSpaceOnUse" color-interpolation-filters="sRGB">
<feFlood flood-opacity="0" result="BackgroundImageFix"/>
<feBlend mode="normal" in="SourceGraphic" in2="BackgroundImageFix" result="shape"/>
<feGaussianBlur stdDeviation="0.5" result="effect1_foregroundBlur_244_172"/>
</filter>
</defs>
</svg>
