<svg width="183" height="170" viewBox="0 0 183 170" fill="none" xmlns="http://www.w3.org/2000/svg">
<g filter="url(#filter0_d_138_508)">
<rect x="8" y="6" width="167" height="154" rx="10" fill="#FAFCFF"/>
</g>
<path d="M32.78 93V85.95H35.34C36.1467 85.95 36.8267 86.09 37.38 86.37C37.94 86.6433 38.3633 87.0433 38.65 87.57C38.9367 88.09 39.08 88.7233 39.08 89.47C39.08 90.21 38.9367 90.8433 38.65 91.37C38.3633 91.8967 37.94 92.3 37.38 92.58C36.8267 92.86 36.1467 93 35.34 93H32.78ZM34.07 91.93H35.26C36.1133 91.93 36.7467 91.7267 37.16 91.32C37.5733 90.9133 37.78 90.2967 37.78 89.47C37.78 88.6367 37.5733 88.02 37.16 87.62C36.7467 87.2133 36.1133 87.01 35.26 87.01H34.07V91.93ZM40.2872 93V89.24C40.2872 89.0267 40.2805 88.81 40.2672 88.59C40.2605 88.37 40.2439 88.1567 40.2172 87.95H41.4272L41.5672 89.33H41.3672C41.4339 88.9967 41.5439 88.72 41.6972 88.5C41.8572 88.28 42.0505 88.1167 42.2772 88.01C42.5039 87.9033 42.7505 87.85 43.0172 87.85C43.1372 87.85 43.2339 87.8567 43.3072 87.87C43.3805 87.8767 43.4539 87.8933 43.5272 87.92L43.5172 89.02C43.3905 88.9667 43.2805 88.9333 43.1872 88.92C43.1005 88.9067 42.9905 88.9 42.8572 88.9C42.5705 88.9 42.3272 88.96 42.1272 89.08C41.9339 89.2 41.7872 89.3667 41.6872 89.58C41.5939 89.7933 41.5472 90.0367 41.5472 90.31V93H40.2872ZM46.1241 93.1C45.6841 93.1 45.2975 92.9967 44.9641 92.79C44.6308 92.5767 44.3708 92.2733 44.1841 91.88C43.9975 91.4867 43.9041 91.0167 43.9041 90.47C43.9041 89.9233 43.9975 89.4567 44.1841 89.07C44.3708 88.6767 44.6308 88.3767 44.9641 88.17C45.2975 87.9567 45.6841 87.85 46.1241 87.85C46.5508 87.85 46.9241 87.9567 47.2441 88.17C47.5708 88.3767 47.7875 88.6567 47.8941 89.01H47.7841L47.8941 87.95H49.0941C49.0741 88.1567 49.0541 88.3667 49.0341 88.58C49.0208 88.7933 49.0141 89.0033 49.0141 89.21V93H47.7741L47.7641 91.96H47.8841C47.7775 92.3067 47.5608 92.5833 47.2341 92.79C46.9075 92.9967 46.5375 93.1 46.1241 93.1ZM46.4741 92.14C46.8675 92.14 47.1841 92.0033 47.4241 91.73C47.6641 91.45 47.7841 91.03 47.7841 90.47C47.7841 89.91 47.6641 89.4933 47.4241 89.22C47.1841 88.9467 46.8675 88.81 46.4741 88.81C46.0808 88.81 45.7641 88.9467 45.5241 89.22C45.2841 89.4933 45.1641 89.91 45.1641 90.47C45.1641 91.03 45.2808 91.45 45.5141 91.73C45.7541 92.0033 46.0741 92.14 46.4741 92.14ZM52.7153 95.24C52.2486 95.24 51.8253 95.19 51.4453 95.09C51.072 94.99 50.7386 94.8367 50.4453 94.63L50.7153 93.73C50.9086 93.8567 51.1086 93.96 51.3153 94.04C51.522 94.12 51.7353 94.18 51.9553 94.22C52.1753 94.26 52.3986 94.28 52.6253 94.28C53.092 94.28 53.4386 94.1633 53.6653 93.93C53.8986 93.7033 54.0153 93.3767 54.0153 92.95V91.74H54.1153C54.0086 92.0867 53.792 92.3633 53.4653 92.57C53.1453 92.7767 52.7753 92.88 52.3553 92.88C51.902 92.88 51.5053 92.78 51.1653 92.58C50.832 92.3733 50.572 92.08 50.3853 91.7C50.1986 91.32 50.1053 90.8733 50.1053 90.36C50.1053 89.8467 50.1986 89.4033 50.3853 89.03C50.572 88.65 50.832 88.36 51.1653 88.16C51.5053 87.9533 51.902 87.85 52.3553 87.85C52.782 87.85 53.152 87.9533 53.4653 88.16C53.7853 88.36 53.9986 88.6333 54.1053 88.98L54.0153 88.92L54.1153 87.95H55.3253C55.2986 88.1567 55.2786 88.3667 55.2653 88.58C55.252 88.7933 55.2453 89.0033 55.2453 89.21V92.8C55.2453 93.5933 55.0286 94.1967 54.5953 94.61C54.1686 95.03 53.542 95.24 52.7153 95.24ZM52.6953 91.92C53.0953 91.92 53.412 91.7867 53.6453 91.52C53.8853 91.2467 54.0053 90.86 54.0053 90.36C54.0053 89.86 53.8853 89.4767 53.6453 89.21C53.412 88.9433 53.0953 88.81 52.6953 88.81C52.2886 88.81 51.9653 88.9433 51.7253 89.21C51.4853 89.4767 51.3653 89.86 51.3653 90.36C51.3653 90.86 51.4853 91.2467 51.7253 91.52C51.9653 91.7867 52.2886 91.92 52.6953 91.92ZM65.2402 93.1C64.9335 92.9933 64.6402 92.85 64.3602 92.67C64.0802 92.4833 63.8268 92.2867 63.6002 92.08L63.8702 92.09C63.5635 92.4033 63.2068 92.65 62.8002 92.83C62.3935 93.01 61.9602 93.1 61.5002 93.1C60.9868 93.1 60.5435 93.02 60.1702 92.86C59.7968 92.7 59.5102 92.48 59.3102 92.2C59.1102 91.9133 59.0102 91.58 59.0102 91.2C59.0102 90.7467 59.1435 90.36 59.4102 90.04C59.6768 89.72 60.0435 89.42 60.5102 89.14L60.8502 88.95L60.6602 89.18C60.3735 88.8933 60.1602 88.6167 60.0202 88.35C59.8802 88.0833 59.8102 87.8067 59.8102 87.52C59.8102 87.1867 59.8902 86.8967 60.0502 86.65C60.2168 86.3967 60.4468 86.2 60.7402 86.06C61.0402 85.92 61.3902 85.85 61.7902 85.85C62.3102 85.85 62.7335 85.99 63.0602 86.27C63.3868 86.5433 63.5502 86.9167 63.5502 87.39C63.5502 87.6433 63.5002 87.88 63.4002 88.1C63.3002 88.32 63.1368 88.53 62.9102 88.73C62.6902 88.93 62.4002 89.13 62.0402 89.33L62.0702 89.08L63.8202 90.89H63.5602C63.7335 90.6167 63.8668 90.2967 63.9602 89.93C64.0535 89.5633 64.1102 89.1767 64.1302 88.77H65.1802C65.1602 89.3167 65.0735 89.8333 64.9202 90.32C64.7668 90.8067 64.5602 91.2367 64.3002 91.61L64.2902 91.31C64.4702 91.4967 64.6768 91.6667 64.9102 91.82C65.1435 91.9733 65.3968 92.1 65.6702 92.2L65.2402 93.1ZM61.5702 92.13C61.9035 92.13 62.2002 92.0667 62.4602 91.94C62.7268 91.8133 62.9635 91.6267 63.1702 91.38L63.1402 91.68L61.0402 89.55L61.5502 89.56L61.2602 89.72C61.0335 89.86 60.8435 90 60.6902 90.14C60.5435 90.28 60.4335 90.43 60.3602 90.59C60.2868 90.7433 60.2502 90.92 60.2502 91.12C60.2502 91.4333 60.3635 91.68 60.5902 91.86C60.8168 92.04 61.1435 92.13 61.5702 92.13ZM61.7902 86.7C61.5368 86.7 61.3335 86.7733 61.1802 86.92C61.0268 87.0667 60.9502 87.26 60.9502 87.5C60.9502 87.6267 60.9735 87.7467 61.0202 87.86C61.0668 87.9733 61.1435 88.0967 61.2502 88.23C61.3568 88.3567 61.4968 88.5133 61.6702 88.7L61.3702 88.72C61.7835 88.4933 62.0835 88.2867 62.2702 88.1C62.4635 87.9067 62.5602 87.6867 62.5602 87.44C62.5602 87.2067 62.4902 87.0267 62.3502 86.9C62.2102 86.7667 62.0235 86.7 61.7902 86.7ZM70.9291 93.1C70.4891 93.1 70.0991 92.9967 69.7591 92.79C69.4257 92.5767 69.1657 92.2733 68.9791 91.88C68.7924 91.4867 68.6991 91.0167 68.6991 90.47C68.6991 89.9233 68.7924 89.4567 68.9791 89.07C69.1657 88.6767 69.4257 88.3767 69.7591 88.17C70.0991 87.9567 70.4891 87.85 70.9291 87.85C71.3491 87.85 71.7191 87.9533 72.0391 88.16C72.3657 88.36 72.5824 88.6333 72.6891 88.98H72.5591V85.64H73.8091V93H72.5791V91.93H72.6991C72.5924 92.29 72.3757 92.5767 72.0491 92.79C71.7291 92.9967 71.3557 93.1 70.9291 93.1ZM71.2791 92.14C71.6724 92.14 71.9891 92.0033 72.2291 91.73C72.4691 91.45 72.5891 91.03 72.5891 90.47C72.5891 89.91 72.4691 89.4933 72.2291 89.22C71.9891 88.9467 71.6724 88.81 71.2791 88.81C70.8857 88.81 70.5657 88.9467 70.3191 89.22C70.0791 89.4933 69.9591 89.91 69.9591 90.47C69.9591 91.03 70.0791 91.45 70.3191 91.73C70.5657 92.0033 70.8857 92.14 71.2791 92.14ZM75.1602 93V89.24C75.1602 89.0267 75.1536 88.81 75.1402 88.59C75.1336 88.37 75.1169 88.1567 75.0902 87.95H76.3002L76.4402 89.33H76.2402C76.3069 88.9967 76.4169 88.72 76.5702 88.5C76.7302 88.28 76.9236 88.1167 77.1502 88.01C77.3769 87.9033 77.6236 87.85 77.8902 87.85C78.0102 87.85 78.1069 87.8567 78.1802 87.87C78.2536 87.8767 78.3269 87.8933 78.4002 87.92L78.3902 89.02C78.2636 88.9667 78.1536 88.9333 78.0602 88.92C77.9736 88.9067 77.8636 88.9 77.7302 88.9C77.4436 88.9 77.2002 88.96 77.0002 89.08C76.8069 89.2 76.6602 89.3667 76.5602 89.58C76.4669 89.7933 76.4202 90.0367 76.4202 90.31V93H75.1602ZM81.2979 93.1C80.7779 93.1 80.3279 92.9933 79.9479 92.78C79.5679 92.5667 79.2712 92.2633 79.0579 91.87C78.8512 91.4767 78.7479 91.01 78.7479 90.47C78.7479 89.93 78.8512 89.4667 79.0579 89.08C79.2712 88.6867 79.5679 88.3833 79.9479 88.17C80.3279 87.9567 80.7779 87.85 81.2979 87.85C81.8179 87.85 82.2679 87.9567 82.6479 88.17C83.0346 88.3833 83.3312 88.6867 83.5379 89.08C83.7512 89.4667 83.8579 89.93 83.8579 90.47C83.8579 91.01 83.7512 91.4767 83.5379 91.87C83.3312 92.2633 83.0346 92.5667 82.6479 92.78C82.2679 92.9933 81.8179 93.1 81.2979 93.1ZM81.2979 92.14C81.6912 92.14 82.0046 92.0033 82.2379 91.73C82.4712 91.45 82.5879 91.03 82.5879 90.47C82.5879 89.91 82.4712 89.4933 82.2379 89.22C82.0046 88.9467 81.6912 88.81 81.2979 88.81C80.9046 88.81 80.5912 88.9467 80.3579 89.22C80.1246 89.4933 80.0079 89.91 80.0079 90.47C80.0079 91.03 80.1246 91.45 80.3579 91.73C80.5912 92.0033 80.9046 92.14 81.2979 92.14ZM84.9359 95.16V89.21C84.9359 89.0033 84.9292 88.7933 84.9159 88.58C84.9025 88.3667 84.8825 88.1567 84.8559 87.95H86.0659L86.1759 89.01H86.0659C86.1659 88.6567 86.3759 88.3767 86.6959 88.17C87.0225 87.9567 87.3992 87.85 87.8259 87.85C88.2725 87.85 88.6625 87.9567 88.9959 88.17C89.3292 88.3767 89.5892 88.6767 89.7759 89.07C89.9625 89.4567 90.0559 89.9233 90.0559 90.47C90.0559 91.0167 89.9625 91.4867 89.7759 91.88C89.5892 92.2733 89.3292 92.5767 88.9959 92.79C88.6625 92.9967 88.2725 93.1 87.8259 93.1C87.4059 93.1 87.0359 92.9967 86.7159 92.79C86.3959 92.5833 86.1825 92.3067 86.0759 91.96H86.1859V95.16H84.9359ZM87.4759 92.14C87.8759 92.14 88.1959 92.0033 88.4359 91.73C88.6759 91.45 88.7959 91.03 88.7959 90.47C88.7959 89.91 88.6759 89.4933 88.4359 89.22C88.1959 88.9467 87.8759 88.81 87.4759 88.81C87.0825 88.81 86.7659 88.9467 86.5259 89.22C86.2859 89.4933 86.1659 89.91 86.1659 90.47C86.1659 91.03 86.2859 91.45 86.5259 91.73C86.7659 92.0033 87.0825 92.14 87.4759 92.14ZM93.7812 95.27L93.4912 94.28C93.8045 94.2133 94.0678 94.1367 94.2812 94.05C94.4945 93.9633 94.6712 93.85 94.8112 93.71C94.9512 93.57 95.0678 93.39 95.1612 93.17L95.4112 92.58L95.3812 93.07L93.1812 87.95H94.5112L96.0912 91.89H95.8012L97.3912 87.95H98.6512L96.3512 93.28C96.1978 93.64 96.0312 93.9367 95.8512 94.17C95.6712 94.41 95.4778 94.6 95.2712 94.74C95.0645 94.8867 94.8378 95 94.5912 95.08C94.3445 95.16 94.0745 95.2233 93.7812 95.27ZM101.493 93.1C100.973 93.1 100.523 92.9933 100.143 92.78C99.7632 92.5667 99.4665 92.2633 99.2532 91.87C99.0465 91.4767 98.9432 91.01 98.9432 90.47C98.9432 89.93 99.0465 89.4667 99.2532 89.08C99.4665 88.6867 99.7632 88.3833 100.143 88.17C100.523 87.9567 100.973 87.85 101.493 87.85C102.013 87.85 102.463 87.9567 102.843 88.17C103.23 88.3833 103.527 88.6867 103.733 89.08C103.947 89.4667 104.053 89.93 104.053 90.47C104.053 91.01 103.947 91.4767 103.733 91.87C103.527 92.2633 103.23 92.5667 102.843 92.78C102.463 92.9933 102.013 93.1 101.493 93.1ZM101.493 92.14C101.887 92.14 102.2 92.0033 102.433 91.73C102.667 91.45 102.783 91.03 102.783 90.47C102.783 89.91 102.667 89.4933 102.433 89.22C102.2 88.9467 101.887 88.81 101.493 88.81C101.1 88.81 100.787 88.9467 100.553 89.22C100.32 89.4933 100.203 89.91 100.203 90.47C100.203 91.03 100.32 91.45 100.553 91.73C100.787 92.0033 101.1 92.14 101.493 92.14ZM106.951 93.1C106.331 93.1 105.868 92.93 105.561 92.59C105.255 92.25 105.101 91.73 105.101 91.03V87.95H106.351V91.02C106.351 91.3933 106.428 91.67 106.581 91.85C106.735 92.0233 106.968 92.11 107.281 92.11C107.635 92.11 107.921 91.99 108.141 91.75C108.368 91.51 108.481 91.1933 108.481 90.8V87.95H109.731V93H108.511V91.97H108.651C108.505 92.33 108.281 92.61 107.981 92.81C107.688 93.0033 107.345 93.1 106.951 93.1ZM111.078 93V89.24C111.078 89.0267 111.072 88.81 111.058 88.59C111.052 88.37 111.035 88.1567 111.008 87.95H112.218L112.358 89.33H112.158C112.225 88.9967 112.335 88.72 112.488 88.5C112.648 88.28 112.842 88.1167 113.068 88.01C113.295 87.9033 113.542 87.85 113.808 87.85C113.928 87.85 114.025 87.8567 114.098 87.87C114.172 87.8767 114.245 87.8933 114.318 87.92L114.308 89.02C114.182 88.9667 114.072 88.9333 113.978 88.92C113.892 88.9067 113.782 88.9 113.648 88.9C113.362 88.9 113.118 88.96 112.918 89.08C112.725 89.2 112.578 89.3667 112.478 89.58C112.385 89.7933 112.338 90.0367 112.338 90.31V93H111.078ZM117.748 93V89.24C117.748 89.0267 117.741 88.81 117.728 88.59C117.721 88.37 117.705 88.1567 117.678 87.95H118.888L119.028 89.33H118.828C118.895 88.9967 119.005 88.72 119.158 88.5C119.318 88.28 119.511 88.1167 119.738 88.01C119.965 87.9033 120.211 87.85 120.478 87.85C120.598 87.85 120.695 87.8567 120.768 87.87C120.841 87.8767 120.915 87.8933 120.988 87.92L120.978 89.02C120.851 88.9667 120.741 88.9333 120.648 88.92C120.561 88.9067 120.451 88.9 120.318 88.9C120.031 88.9 119.788 88.96 119.588 89.08C119.395 89.2 119.248 89.3667 119.148 89.58C119.055 89.7933 119.008 90.0367 119.008 90.31V93H117.748ZM124.046 93.1C123.199 93.1 122.536 92.8667 122.056 92.4C121.576 91.9333 121.336 91.2933 121.336 90.48C121.336 89.9533 121.439 89.4933 121.646 89.1C121.852 88.7067 122.139 88.4 122.506 88.18C122.879 87.96 123.312 87.85 123.806 87.85C124.292 87.85 124.699 87.9533 125.026 88.16C125.352 88.3667 125.599 88.6567 125.766 89.03C125.939 89.4033 126.026 89.84 126.026 90.34V90.67H122.346V90.01H125.136L124.966 90.15C124.966 89.6833 124.866 89.3267 124.666 89.08C124.472 88.8333 124.189 88.71 123.816 88.71C123.402 88.71 123.082 88.8567 122.856 89.15C122.636 89.4433 122.526 89.8533 122.526 90.38V90.51C122.526 91.0567 122.659 91.4667 122.926 91.74C123.199 92.0067 123.582 92.14 124.076 92.14C124.362 92.14 124.629 92.1033 124.876 92.03C125.129 91.95 125.369 91.8233 125.596 91.65L125.966 92.49C125.726 92.6833 125.439 92.8333 125.106 92.94C124.772 93.0467 124.419 93.1 124.046 93.1ZM128.884 93.1C128.451 93.1 128.051 93.05 127.684 92.95C127.324 92.8433 127.021 92.6967 126.774 92.51L127.124 91.67C127.378 91.8433 127.658 91.9767 127.964 92.07C128.271 92.1633 128.581 92.21 128.894 92.21C129.228 92.21 129.474 92.1533 129.634 92.04C129.801 91.9267 129.884 91.7733 129.884 91.58C129.884 91.4267 129.831 91.3067 129.724 91.22C129.624 91.1267 129.461 91.0567 129.234 91.01L128.234 90.82C127.808 90.7267 127.481 90.5667 127.254 90.34C127.034 90.1133 126.924 89.8167 126.924 89.45C126.924 89.1367 127.008 88.86 127.174 88.62C127.348 88.38 127.591 88.1933 127.904 88.06C128.224 87.92 128.598 87.85 129.024 87.85C129.398 87.85 129.748 87.9 130.074 88C130.408 88.1 130.688 88.25 130.914 88.45L130.554 89.26C130.348 89.0933 130.111 88.9633 129.844 88.87C129.578 88.7767 129.318 88.73 129.064 88.73C128.718 88.73 128.464 88.7933 128.304 88.92C128.144 89.04 128.064 89.1967 128.064 89.39C128.064 89.5367 128.111 89.66 128.204 89.76C128.304 89.8533 128.458 89.9233 128.664 89.97L129.664 90.16C130.111 90.2467 130.448 90.4 130.674 90.62C130.908 90.8333 131.024 91.1267 131.024 91.5C131.024 91.8333 130.934 92.12 130.754 92.36C130.574 92.6 130.324 92.7833 130.004 92.91C129.684 93.0367 129.311 93.1 128.884 93.1ZM133.914 93.1C133.294 93.1 132.831 92.93 132.524 92.59C132.217 92.25 132.064 91.73 132.064 91.03V87.95H133.314V91.02C133.314 91.3933 133.391 91.67 133.544 91.85C133.697 92.0233 133.931 92.11 134.244 92.11C134.597 92.11 134.884 91.99 135.104 91.75C135.331 91.51 135.444 91.1933 135.444 90.8V87.95H136.694V93H135.474V91.97H135.614C135.467 92.33 135.244 92.61 134.944 92.81C134.651 93.0033 134.307 93.1 133.914 93.1ZM138.051 93V89.21C138.051 89.0033 138.044 88.7933 138.031 88.58C138.018 88.3667 137.998 88.1567 137.971 87.95H139.181L139.281 88.95H139.161C139.301 88.6033 139.514 88.3333 139.801 88.14C140.094 87.9467 140.441 87.85 140.841 87.85C141.241 87.85 141.571 87.9467 141.831 88.14C142.098 88.3267 142.284 88.62 142.391 89.02H142.231C142.371 88.66 142.601 88.3767 142.921 88.17C143.241 87.9567 143.608 87.85 144.021 87.85C144.588 87.85 145.011 88.0167 145.291 88.35C145.571 88.6833 145.711 89.2033 145.711 89.91V93H144.461V89.96C144.461 89.56 144.394 89.2733 144.261 89.1C144.128 88.92 143.914 88.83 143.621 88.83C143.274 88.83 143.001 88.9533 142.801 89.2C142.601 89.44 142.501 89.7667 142.501 90.18V93H141.251V89.96C141.251 89.56 141.184 89.2733 141.051 89.1C140.918 88.92 140.704 88.83 140.411 88.83C140.064 88.83 139.791 88.9533 139.591 89.2C139.398 89.44 139.301 89.7667 139.301 90.18V93H138.051ZM149.485 93.1C148.639 93.1 147.975 92.8667 147.495 92.4C147.015 91.9333 146.775 91.2933 146.775 90.48C146.775 89.9533 146.879 89.4933 147.085 89.1C147.292 88.7067 147.579 88.4 147.945 88.18C148.319 87.96 148.752 87.85 149.245 87.85C149.732 87.85 150.139 87.9533 150.465 88.16C150.792 88.3667 151.039 88.6567 151.205 89.03C151.379 89.4033 151.465 89.84 151.465 90.34V90.67H147.785V90.01H150.575L150.405 90.15C150.405 89.6833 150.305 89.3267 150.105 89.08C149.912 88.8333 149.629 88.71 149.255 88.71C148.842 88.71 148.522 88.8567 148.295 89.15C148.075 89.4433 147.965 89.8533 147.965 90.38V90.51C147.965 91.0567 148.099 91.4667 148.365 91.74C148.639 92.0067 149.022 92.14 149.515 92.14C149.802 92.14 150.069 92.1033 150.315 92.03C150.569 91.95 150.809 91.8233 151.035 91.65L151.405 92.49C151.165 92.6833 150.879 92.8333 150.545 92.94C150.212 93.0467 149.859 93.1 149.485 93.1Z" fill="#173C98"/>
<path d="M90.0419 40.068C88.6652 40.2122 87.2092 40.6302 85.9118 41.2501C83.8 42.2664 82.1206 43.7224 80.7871 45.7117C79.7636 47.2325 78.9492 49.4525 78.7906 51.1535C78.7618 51.4346 78.7041 51.6941 78.6609 51.7302C78.6176 51.7662 78.4086 51.8311 78.1923 51.8743C77.2193 52.0833 76.0228 52.7176 75.1939 53.4816C72.6352 55.8458 72.1955 59.6731 74.1632 62.5346C75.0642 63.8392 76.5202 64.8482 78.1707 65.3023C78.6897 65.4465 78.9275 65.4609 82.171 65.4825L85.6091 65.5114V64.3581V63.2049L82.3152 63.1833C79.36 63.1616 78.9708 63.14 78.6176 63.0247C77.2698 62.5778 76.3111 61.7633 75.7345 60.5668C75.3885 59.8389 75.2876 59.3848 75.2876 58.5847C75.2876 57.7847 75.3885 57.3306 75.7345 56.6026C76.1453 55.7521 76.7796 55.0601 77.5797 54.5844C78.0122 54.3321 78.8699 54.0583 79.4105 54.0078C80.2033 53.9357 80.333 53.8997 80.5637 53.7051C80.9169 53.4096 80.989 53.1933 81.061 52.1842C81.1908 50.5625 81.5295 49.3156 82.2215 48.011C83.627 45.3369 86.0704 43.4268 88.9607 42.7421C91.8294 42.0574 94.7125 42.5763 97.1775 44.2053C99.2534 45.5747 100.875 47.8812 101.459 50.2598C101.733 51.3914 101.899 51.5788 102.807 51.7662C104.039 52.0257 105.012 52.559 105.87 53.4456C107.031 54.6421 107.614 56.2062 107.492 57.7991C107.29 60.5236 105.308 62.6859 102.612 63.1184C102.36 63.1616 101.041 63.1977 99.6498 63.1977H97.1415V64.3581V65.5114L100.01 65.4825C102.403 65.4609 102.958 65.4321 103.412 65.3312C105.265 64.8987 106.865 63.9184 108.004 62.5129C109.121 61.1218 109.719 59.5506 109.806 57.7558C109.906 55.5142 109.063 53.3519 107.449 51.7374C106.526 50.822 105.474 50.1733 104.234 49.7624L103.65 49.5678L103.528 49.1137C103.455 48.8615 103.268 48.3209 103.102 47.91C101.005 42.7061 95.6423 39.4842 90.0419 40.068Z" fill="#173C98"/>
<path d="M90.9068 54.0871C90.7915 54.1519 89.631 55.2619 88.3336 56.5521L85.9695 58.909L86.7767 59.7163L87.5912 60.5308L88.903 59.219L90.2221 57.9V63.4355V68.9638H91.3753H92.5285V63.4355V57.9L93.862 59.2334L95.1954 60.5668L96.0027 59.7523L96.8171 58.9451L94.4386 56.5593C93.1268 55.2403 91.9591 54.1303 91.8294 54.0726C91.5267 53.9429 91.1807 53.9501 90.9068 54.0871Z" fill="#173C98"/>
<path d="M115.501 42.7711C115.479 42.7822 115.45 42.8092 115.436 42.8313C115.412 42.8706 115.412 42.8915 115.412 44.0031V45.1344H114.28C113.166 45.1344 113.148 45.1344 113.109 45.159C113.028 45.2094 113.029 45.1995 113.029 45.896C113.029 46.5924 113.028 46.5826 113.109 46.633C113.148 46.6575 113.166 46.6575 114.28 46.6575H115.412V47.7888C115.412 48.9029 115.412 48.9213 115.436 48.9607C115.487 49.0417 115.477 49.0405 116.173 49.0405C116.87 49.0405 116.86 49.0417 116.91 48.9607C116.935 48.9213 116.935 48.9029 116.935 47.7888V46.6575H118.066C119.18 46.6575 119.199 46.6575 119.238 46.633C119.319 46.5826 119.318 46.5924 119.318 45.896C119.318 45.1995 119.319 45.2094 119.238 45.159C119.199 45.1344 119.18 45.1344 118.066 45.1344H116.935V44.0031C116.935 42.889 116.935 42.8706 116.91 42.8313C116.86 42.7502 116.871 42.7515 116.171 42.7515C115.618 42.7515 115.536 42.7539 115.501 42.7711Z" fill="#173C98"/>
<path d="M122.184 51.4185C122.161 51.4296 122.132 51.4566 122.118 51.4787C122.094 51.518 122.094 51.5389 122.094 52.6505V53.7818H120.963C119.849 53.7818 119.83 53.7818 119.791 53.8064C119.71 53.8568 119.711 53.8469 119.711 54.5434C119.711 55.2398 119.71 55.23 119.791 55.2804C119.83 55.3049 119.849 55.3049 120.963 55.3049H122.094V56.4362C122.094 57.5503 122.094 57.5687 122.118 57.6081C122.169 57.6891 122.159 57.6879 122.855 57.6879C123.552 57.6879 123.542 57.6891 123.592 57.6081C123.617 57.5687 123.617 57.5503 123.617 56.4362V55.3049H124.748C125.862 55.3049 125.881 55.3049 125.92 55.2804C126.001 55.23 126 55.2398 126 54.5434C126 53.8469 126.001 53.8568 125.92 53.8064C125.881 53.7818 125.862 53.7818 124.748 53.7818H123.617V52.6505C123.617 51.5364 123.617 51.518 123.592 51.4787C123.542 51.3976 123.553 51.3989 122.853 51.3989C122.3 51.3989 122.218 51.4013 122.184 51.4185Z" fill="#173C98"/>
<path d="M60.4726 58.4937C60.4505 58.5047 60.421 58.5318 60.4075 58.5539C60.383 58.5932 60.383 58.6141 60.383 59.7257V60.857H59.2517C58.1376 60.857 58.1191 60.857 58.0798 60.8816C57.9988 60.9319 58 60.9221 58 61.6185C58 62.315 57.9988 62.3052 58.0798 62.3555C58.1191 62.3801 58.1376 62.3801 59.2517 62.3801H60.383V63.5114C60.383 64.6255 60.383 64.6439 60.4075 64.6832C60.4579 64.7643 60.4481 64.7631 61.1445 64.7631C61.841 64.7631 61.8311 64.7643 61.8815 64.6832C61.9061 64.6439 61.9061 64.6255 61.9061 63.5114V62.3801H63.0374C64.1514 62.3801 64.1699 62.3801 64.2092 62.3555C64.2903 62.3052 64.289 62.315 64.289 61.6185C64.289 60.9221 64.2903 60.9319 64.2092 60.8816C64.1699 60.857 64.1514 60.857 63.0374 60.857H61.9061V59.7257C61.9061 58.6116 61.9061 58.5932 61.8815 58.5539C61.8311 58.4728 61.8422 58.474 61.1421 58.474C60.5893 58.474 60.507 58.4765 60.4726 58.4937Z" fill="#173C98"/>
<rect x="40" y="108" width="104" height="24" rx="12" fill="#2496FF"/>
<path d="M70.6 123.081C69.952 123.081 69.4 122.949 68.944 122.685C68.488 122.421 68.137 122.046 67.891 121.56C67.651 121.068 67.531 120.489 67.531 119.823C67.531 119.157 67.651 118.581 67.891 118.095C68.137 117.609 68.488 117.234 68.944 116.97C69.4 116.706 69.952 116.574 70.6 116.574C71.05 116.574 71.452 116.64 71.806 116.772C72.16 116.904 72.469 117.096 72.733 117.348L72.409 118.095C72.121 117.849 71.839 117.672 71.563 117.564C71.293 117.456 70.978 117.402 70.618 117.402C69.934 117.402 69.412 117.612 69.052 118.032C68.692 118.452 68.512 119.049 68.512 119.823C68.512 120.597 68.692 121.197 69.052 121.623C69.412 122.043 69.934 122.253 70.618 122.253C70.978 122.253 71.293 122.199 71.563 122.091C71.839 121.983 72.121 121.803 72.409 121.551L72.733 122.298C72.469 122.55 72.16 122.745 71.806 122.883C71.452 123.015 71.05 123.081 70.6 123.081ZM73.8271 123V116.376H74.7361V119.427H74.6101C74.7421 119.085 74.9551 118.827 75.2491 118.653C75.5431 118.473 75.8821 118.383 76.2661 118.383C76.8061 118.383 77.2081 118.533 77.4721 118.833C77.7361 119.127 77.8681 119.574 77.8681 120.174V123H76.9591V120.228C76.9591 119.838 76.8811 119.556 76.7251 119.382C76.5751 119.202 76.3351 119.112 76.0051 119.112C75.6211 119.112 75.3121 119.232 75.0781 119.472C74.8501 119.706 74.7361 120.018 74.7361 120.408V123H73.8271ZM81.1061 123.081C80.6561 123.081 80.2661 122.988 79.9361 122.802C79.6061 122.61 79.3511 122.34 79.1711 121.992C78.9911 121.638 78.9011 121.218 78.9011 120.732C78.9011 120.246 78.9911 119.829 79.1711 119.481C79.3511 119.127 79.6061 118.857 79.9361 118.671C80.2661 118.479 80.6561 118.383 81.1061 118.383C81.5561 118.383 81.9461 118.479 82.2761 118.671C82.6121 118.857 82.8701 119.127 83.0501 119.481C83.2361 119.829 83.3291 120.246 83.3291 120.732C83.3291 121.218 83.2361 121.638 83.0501 121.992C82.8701 122.34 82.6121 122.61 82.2761 122.802C81.9461 122.988 81.5561 123.081 81.1061 123.081ZM81.1061 122.37C81.5021 122.37 81.8171 122.232 82.0511 121.956C82.2851 121.68 82.4021 121.272 82.4021 120.732C82.4021 120.192 82.2851 119.787 82.0511 119.517C81.8171 119.241 81.5021 119.103 81.1061 119.103C80.7161 119.103 80.4041 119.241 80.1701 119.517C79.9361 119.787 79.8191 120.192 79.8191 120.732C79.8191 121.272 79.9331 121.68 80.1611 121.956C80.3951 122.232 80.7101 122.37 81.1061 122.37ZM86.3356 123.081C85.8856 123.081 85.4956 122.988 85.1656 122.802C84.8356 122.61 84.5806 122.34 84.4006 121.992C84.2206 121.638 84.1306 121.218 84.1306 120.732C84.1306 120.246 84.2206 119.829 84.4006 119.481C84.5806 119.127 84.8356 118.857 85.1656 118.671C85.4956 118.479 85.8856 118.383 86.3356 118.383C86.7856 118.383 87.1756 118.479 87.5056 118.671C87.8416 118.857 88.0996 119.127 88.2796 119.481C88.4656 119.829 88.5586 120.246 88.5586 120.732C88.5586 121.218 88.4656 121.638 88.2796 121.992C88.0996 122.34 87.8416 122.61 87.5056 122.802C87.1756 122.988 86.7856 123.081 86.3356 123.081ZM86.3356 122.37C86.7316 122.37 87.0466 122.232 87.2806 121.956C87.5146 121.68 87.6316 121.272 87.6316 120.732C87.6316 120.192 87.5146 119.787 87.2806 119.517C87.0466 119.241 86.7316 119.103 86.3356 119.103C85.9456 119.103 85.6336 119.241 85.3996 119.517C85.1656 119.787 85.0486 120.192 85.0486 120.732C85.0486 121.272 85.1626 121.68 85.3906 121.956C85.6246 122.232 85.9396 122.37 86.3356 122.37ZM91.1781 123.081C90.8001 123.081 90.4521 123.033 90.1341 122.937C89.8161 122.841 89.5521 122.706 89.3421 122.532L89.6211 121.911C89.8431 122.079 90.0891 122.205 90.3591 122.289C90.6291 122.373 90.9051 122.415 91.1871 122.415C91.5171 122.415 91.7661 122.358 91.9341 122.244C92.1021 122.124 92.1861 121.962 92.1861 121.758C92.1861 121.602 92.1321 121.476 92.0241 121.38C91.9221 121.284 91.7511 121.212 91.5111 121.164L90.6471 120.993C90.2631 120.909 89.9721 120.765 89.7741 120.561C89.5761 120.357 89.4771 120.096 89.4771 119.778C89.4771 119.508 89.5491 119.268 89.6931 119.058C89.8431 118.848 90.0531 118.683 90.3231 118.563C90.5991 118.443 90.9201 118.383 91.2861 118.383C91.6221 118.383 91.9341 118.431 92.2221 118.527C92.5101 118.623 92.7501 118.761 92.9421 118.941L92.6541 119.544C92.4681 119.388 92.2581 119.268 92.0241 119.184C91.7901 119.094 91.5531 119.049 91.3131 119.049C90.9771 119.049 90.7281 119.112 90.5661 119.238C90.4041 119.364 90.3231 119.529 90.3231 119.733C90.3231 119.889 90.3711 120.018 90.4671 120.12C90.5691 120.216 90.7281 120.291 90.9441 120.345L91.8081 120.516C92.2161 120.6 92.5221 120.738 92.7261 120.93C92.9301 121.122 93.0321 121.38 93.0321 121.704C93.0321 121.986 92.9541 122.232 92.7981 122.442C92.6421 122.652 92.4261 122.811 92.1501 122.919C91.8741 123.027 91.5501 123.081 91.1781 123.081ZM96.2005 123.081C95.4685 123.081 94.8925 122.874 94.4725 122.46C94.0525 122.046 93.8425 121.473 93.8425 120.741C93.8425 120.267 93.9325 119.853 94.1125 119.499C94.2985 119.145 94.5535 118.872 94.8775 118.68C95.2075 118.482 95.5885 118.383 96.0205 118.383C96.4465 118.383 96.8035 118.473 97.0915 118.653C97.3795 118.833 97.5985 119.088 97.7485 119.418C97.8985 119.742 97.9735 120.126 97.9735 120.57V120.858H94.5535V120.336H97.3525L97.1995 120.453C97.1995 120.003 97.0975 119.655 96.8935 119.409C96.6955 119.157 96.4075 119.031 96.0295 119.031C95.6095 119.031 95.2855 119.178 95.0575 119.472C94.8295 119.76 94.7155 120.159 94.7155 120.669V120.759C94.7155 121.293 94.8445 121.695 95.1025 121.965C95.3665 122.235 95.7385 122.37 96.2185 122.37C96.4825 122.37 96.7285 122.334 96.9565 122.262C97.1905 122.184 97.4125 122.058 97.6225 121.884L97.9195 122.505C97.7095 122.691 97.4545 122.835 97.1545 122.937C96.8545 123.033 96.5365 123.081 96.2005 123.081ZM101.686 123V119.166H100.804V118.464H101.938L101.686 118.698V117.978C101.686 117.444 101.818 117.039 102.082 116.763C102.352 116.481 102.742 116.34 103.252 116.34C103.372 116.34 103.501 116.349 103.639 116.367C103.777 116.385 103.894 116.415 103.99 116.457V117.195C103.918 117.165 103.828 117.141 103.72 117.123C103.612 117.099 103.507 117.087 103.405 117.087C103.141 117.087 102.937 117.165 102.793 117.321C102.655 117.471 102.586 117.708 102.586 118.032V118.644L102.451 118.464H105.466V123H104.557V119.166H102.595V123H101.686ZM104.485 117.519V116.574H105.538V117.519H104.485ZM106.795 123V116.376H107.704V123H106.795ZM111.133 123.081C110.401 123.081 109.825 122.874 109.405 122.46C108.985 122.046 108.775 121.473 108.775 120.741C108.775 120.267 108.865 119.853 109.045 119.499C109.231 119.145 109.486 118.872 109.81 118.68C110.14 118.482 110.521 118.383 110.953 118.383C111.379 118.383 111.736 118.473 112.024 118.653C112.312 118.833 112.531 119.088 112.681 119.418C112.831 119.742 112.906 120.126 112.906 120.57V120.858H109.486V120.336H112.285L112.132 120.453C112.132 120.003 112.03 119.655 111.826 119.409C111.628 119.157 111.34 119.031 110.962 119.031C110.542 119.031 110.218 119.178 109.99 119.472C109.762 119.76 109.648 120.159 109.648 120.669V120.759C109.648 121.293 109.777 121.695 110.035 121.965C110.299 122.235 110.671 122.37 111.151 122.37C111.415 122.37 111.661 122.334 111.889 122.262C112.123 122.184 112.345 122.058 112.555 121.884L112.852 122.505C112.642 122.691 112.387 122.835 112.087 122.937C111.787 123.033 111.469 123.081 111.133 123.081ZM115.506 123.081C115.128 123.081 114.78 123.033 114.462 122.937C114.144 122.841 113.88 122.706 113.67 122.532L113.949 121.911C114.171 122.079 114.417 122.205 114.687 122.289C114.957 122.373 115.233 122.415 115.515 122.415C115.845 122.415 116.094 122.358 116.262 122.244C116.43 122.124 116.514 121.962 116.514 121.758C116.514 121.602 116.46 121.476 116.352 121.38C116.25 121.284 116.079 121.212 115.839 121.164L114.975 120.993C114.591 120.909 114.3 120.765 114.102 120.561C113.904 120.357 113.805 120.096 113.805 119.778C113.805 119.508 113.877 119.268 114.021 119.058C114.171 118.848 114.381 118.683 114.651 118.563C114.927 118.443 115.248 118.383 115.614 118.383C115.95 118.383 116.262 118.431 116.55 118.527C116.838 118.623 117.078 118.761 117.27 118.941L116.982 119.544C116.796 119.388 116.586 119.268 116.352 119.184C116.118 119.094 115.881 119.049 115.641 119.049C115.305 119.049 115.056 119.112 114.894 119.238C114.732 119.364 114.651 119.529 114.651 119.733C114.651 119.889 114.699 120.018 114.795 120.12C114.897 120.216 115.056 120.291 115.272 120.345L116.136 120.516C116.544 120.6 116.85 120.738 117.054 120.93C117.258 121.122 117.36 121.38 117.36 121.704C117.36 121.986 117.282 122.232 117.126 122.442C116.97 122.652 116.754 122.811 116.478 122.919C116.202 123.027 115.878 123.081 115.506 123.081Z" fill="#FAFCFF"/>
<defs>
<filter id="filter0_d_138_508" x="0" y="0" width="183" height="170" filterUnits="userSpaceOnUse" color-interpolation-filters="sRGB">
<feFlood flood-opacity="0" result="BackgroundImageFix"/>
<feColorMatrix in="SourceAlpha" type="matrix" values="0 0 0 0 0 0 0 0 0 0 0 0 0 0 0 0 0 0 127 0" result="hardAlpha"/>
<feOffset dy="2"/>
<feGaussianBlur stdDeviation="4"/>
<feColorMatrix type="matrix" values="0 0 0 0 0.388235 0 0 0 0 0.388235 0 0 0 0 0.388235 0 0 0 0.2 0"/>
<feBlend mode="normal" in2="BackgroundImageFix" result="effect1_dropShadow_138_508"/>
<feBlend mode="normal" in="SourceGraphic" in2="effect1_dropShadow_138_508" result="shape"/>
</filter>
</defs>
</svg>
