<svg width="209" height="90" viewBox="0 0 209 90" fill="none" xmlns="http://www.w3.org/2000/svg">
<path d="M98.4815 0.208969C94.2503 0.652031 89.7753 1.93692 85.7878 3.84209C79.2969 6.9657 74.1352 11.4407 70.0368 17.5549C66.8911 22.2293 64.3877 29.0525 63.9004 34.2806C63.8118 35.1446 63.6345 35.9421 63.5016 36.0529C63.3687 36.1636 62.7262 36.363 62.0617 36.4959C59.071 37.1384 55.3935 39.0879 52.8459 41.4361C44.9815 48.7024 43.6302 60.4657 49.678 69.2605C52.4472 73.2703 56.9221 76.3717 61.9952 77.7674C63.5902 78.2104 64.3213 78.2547 74.2902 78.3212L84.8573 78.4098V74.8653V71.3208L74.7333 71.2543C65.6505 71.1879 64.4542 71.1214 63.3687 70.767C59.226 69.3935 56.2797 66.8901 54.5074 63.2127C53.444 60.9752 53.1339 59.5796 53.1339 57.1206C53.1339 54.6616 53.444 53.2659 54.5074 51.0284C55.7701 48.4144 57.7196 46.2877 60.1786 44.8255C61.5078 44.0502 64.1441 43.2084 65.8055 43.0533C68.2424 42.8318 68.6412 42.721 69.3501 42.1229C70.4356 41.2146 70.6571 40.55 70.8786 37.4485C71.2774 32.4641 72.3186 28.6315 74.4453 24.6218C78.7652 16.403 86.2751 10.5324 95.1586 8.42781C103.976 6.32326 112.837 7.91829 120.413 12.9249C126.793 17.134 131.778 24.2231 133.572 31.5336C134.414 35.0117 134.924 35.5877 137.715 36.1636C141.503 36.9612 144.494 38.6005 147.13 41.3253C150.697 45.0028 152.491 49.81 152.114 54.7059C151.494 63.0798 145.402 69.7258 137.117 71.055C136.341 71.1879 132.287 71.2986 128.012 71.2986H120.302V74.8653V78.4098L129.119 78.3212C136.474 78.2547 138.18 78.1661 139.576 77.856C145.269 76.5268 150.187 73.514 153.687 69.1941C157.121 64.9185 158.96 60.0891 159.226 54.573C159.536 47.6833 156.944 41.0373 151.982 36.075C149.146 33.2616 145.912 31.2678 142.101 30.005L140.307 29.4069L139.93 28.0113C139.709 27.2359 139.133 25.5744 138.623 24.3117C132.177 8.31705 115.695 -1.58544 98.4815 0.208969Z" fill="#173C98"/>
<path d="M101.139 43.297C100.785 43.4964 97.2182 46.908 93.2306 50.8734L85.9644 58.1175L88.4455 60.5986L90.9488 63.102L94.9807 59.0701L99.0348 55.016V72.0297V89.0212H102.579H106.124V72.0297V55.016L110.222 59.1144L114.32 63.2127L116.802 60.7094L119.305 58.2282L111.994 50.8955C107.963 46.8415 104.374 43.4299 103.975 43.2527C103.044 42.8539 101.981 42.8761 101.139 43.297Z" fill="#173C98"/>
<path d="M176.732 8.5173C176.665 8.55128 176.574 8.63433 176.532 8.70229C176.457 8.8231 176.457 8.88728 176.457 12.3039V15.781H172.98C169.556 15.781 169.499 15.781 169.378 15.8565C169.129 16.0113 169.133 15.9811 169.133 18.1216C169.133 20.2622 169.129 20.232 169.378 20.3868C169.499 20.4623 169.556 20.4623 172.98 20.4623H176.457V23.9394C176.457 27.3636 176.457 27.4202 176.532 27.541C176.687 27.7902 176.657 27.7864 178.798 27.7864C180.938 27.7864 180.908 27.7902 181.063 27.541C181.138 27.4202 181.138 27.3636 181.138 23.9394V20.4623H184.615C188.039 20.4623 188.096 20.4623 188.217 20.3868C188.466 20.232 188.462 20.2622 188.462 18.1216C188.462 15.9811 188.466 16.0113 188.217 15.8565C188.096 15.781 188.039 15.781 184.615 15.781H181.138V12.3039C181.138 8.87973 181.138 8.8231 181.063 8.70229C180.908 8.45312 180.942 8.4569 178.79 8.4569C177.091 8.4569 176.838 8.46445 176.732 8.5173Z" fill="#173C98"/>
<path d="M197.27 35.0954C197.202 35.1293 197.112 35.2124 197.07 35.2803C196.994 35.4012 196.994 35.4653 196.994 38.882V42.359H193.517C190.093 42.359 190.037 42.359 189.916 42.4345C189.667 42.5893 189.67 42.5591 189.67 44.6997C189.67 46.8403 189.667 46.8101 189.916 46.9649C190.037 47.0404 190.093 47.0404 193.517 47.0404H196.994V50.5174C196.994 53.9416 196.994 53.9982 197.07 54.1191C197.225 54.3682 197.195 54.3645 199.335 54.3645C201.476 54.3645 201.446 54.3682 201.6 54.1191C201.676 53.9982 201.676 53.9416 201.676 50.5174V47.0404H205.153C208.577 47.0404 208.634 47.0404 208.755 46.9649C209.004 46.8101 209 46.8403 209 44.6997C209 42.5591 209.004 42.5893 208.755 42.4345C208.634 42.359 208.577 42.359 205.153 42.359H201.676V38.882C201.676 35.4578 201.676 35.4012 201.6 35.2803C201.446 35.0312 201.48 35.035 199.328 35.035C197.629 35.035 197.376 35.0425 197.27 35.0954Z" fill="#173C98"/>
<path d="M7.59967 56.841C7.53171 56.875 7.44111 56.958 7.39958 57.026C7.32407 57.1468 7.32407 57.211 7.32407 60.6276V64.1047H3.84703C0.422836 64.1047 0.366207 64.1047 0.245397 64.1802C-0.00377204 64.335 3.26582e-06 64.3048 3.26582e-06 66.4454C3.26582e-06 68.5859 -0.00377204 68.5557 0.245397 68.7105C0.366207 68.786 0.422836 68.786 3.84703 68.786H7.32407V72.2631C7.32407 75.6873 7.32407 75.7439 7.39958 75.8647C7.55436 76.1139 7.52416 76.1101 9.66475 76.1101C11.8053 76.1101 11.7751 76.1139 11.9299 75.8647C12.0054 75.7439 12.0054 75.6873 12.0054 72.2631V68.786H15.4825C18.9067 68.786 18.9633 68.786 19.0841 68.7105C19.3333 68.5557 19.3295 68.5859 19.3295 66.4454C19.3295 64.3048 19.3333 64.335 19.0841 64.1802C18.9633 64.1047 18.9067 64.1047 15.4825 64.1047H12.0054V60.6276C12.0054 57.2034 12.0054 57.1468 11.9299 57.026C11.7751 56.7768 11.8091 56.7806 9.6572 56.7806C7.95832 56.7806 7.70538 56.7882 7.59967 56.841Z" fill="#173C98"/>
</svg>
