<svg width="117" height="60" viewBox="0 0 117 60" fill="none" xmlns="http://www.w3.org/2000/svg">
<path d="M3.531 38.099C2.90767 38.099 2.343 38.022 1.837 37.868C1.331 37.7067 0.891 37.4793 0.517 37.186L0.902 36.284C1.15133 36.4747 1.408 36.6323 1.672 36.757C1.94333 36.8817 2.22933 36.977 2.53 37.043C2.838 37.1017 3.17167 37.131 3.531 37.131C4.147 37.131 4.598 37.021 4.884 36.801C5.17733 36.581 5.324 36.2913 5.324 35.932C5.324 35.624 5.22133 35.3857 5.016 35.217C4.818 35.0483 4.466 34.9127 3.96 34.81L2.761 34.568C2.04967 34.4213 1.518 34.183 1.166 33.853C0.821333 33.5157 0.649 33.0573 0.649 32.478C0.649 32.0087 0.773667 31.598 1.023 31.246C1.27233 30.894 1.617 30.6227 2.057 30.432C2.50433 30.2413 3.025 30.146 3.619 30.146C4.169 30.146 4.675 30.2267 5.137 30.388C5.599 30.542 5.98767 30.773 6.303 31.081L5.929 31.95C5.599 31.664 5.247 31.455 4.873 31.323C4.499 31.1837 4.07367 31.114 3.597 31.114C3.03233 31.114 2.58867 31.2313 2.266 31.466C1.95067 31.7007 1.793 32.0197 1.793 32.423C1.793 32.7457 1.892 32.9987 2.09 33.182C2.29533 33.3653 2.63267 33.5047 3.102 33.6L4.301 33.831C5.04167 33.985 5.588 34.2233 5.94 34.546C6.292 34.8613 6.468 35.2977 6.468 35.855C6.468 36.3023 6.347 36.6947 6.105 37.032C5.87033 37.3693 5.533 37.6333 5.093 37.824C4.653 38.0073 4.13233 38.099 3.531 38.099ZM10.3379 38.099C9.44327 38.099 8.73927 37.846 8.22594 37.34C7.7126 36.834 7.45594 36.1337 7.45594 35.239C7.45594 34.6597 7.56594 34.1537 7.78594 33.721C8.01327 33.2883 8.32494 32.9547 8.72094 32.72C9.12427 32.478 9.58994 32.357 10.1179 32.357C10.6386 32.357 11.0749 32.467 11.4269 32.687C11.7789 32.907 12.0466 33.2187 12.2299 33.622C12.4133 34.018 12.5049 34.4873 12.5049 35.03V35.382H8.32494V34.744H11.7459L11.5589 34.887C11.5589 34.337 11.4343 33.9117 11.1849 33.611C10.9429 33.303 10.5909 33.149 10.1289 33.149C9.6156 33.149 9.2196 33.3287 8.94094 33.688C8.66227 34.04 8.52294 34.5277 8.52294 35.151V35.261C8.52294 35.9137 8.6806 36.405 8.99594 36.735C9.3186 37.065 9.77327 37.23 10.3599 37.23C10.6826 37.23 10.9833 37.186 11.2619 37.098C11.5479 37.0027 11.8193 36.8487 12.0759 36.636L12.4389 37.395C12.1823 37.6223 11.8706 37.7983 11.5039 37.923C11.1373 38.0403 10.7486 38.099 10.3379 38.099ZM15.9028 38.099C15.4115 38.099 14.9825 37.9853 14.6158 37.758C14.2492 37.5307 13.9632 37.2007 13.7578 36.768C13.5598 36.3353 13.4608 35.822 13.4608 35.228C13.4608 34.6267 13.5598 34.1133 13.7578 33.688C13.9632 33.2627 14.2492 32.9363 14.6158 32.709C14.9825 32.4743 15.4115 32.357 15.9028 32.357C16.3868 32.357 16.8085 32.478 17.1678 32.72C17.5272 32.962 17.7655 33.292 17.8828 33.71H17.7618L17.8718 32.456H18.9498C18.9278 32.6833 18.9058 32.9107 18.8838 33.138C18.8692 33.358 18.8618 33.5743 18.8618 33.787V38H17.7508V36.768H17.8718C17.7545 37.1787 17.5125 37.505 17.1458 37.747C16.7865 37.9817 16.3722 38.099 15.9028 38.099ZM16.1778 37.23C16.6545 37.23 17.0358 37.0613 17.3218 36.724C17.6152 36.3867 17.7618 35.888 17.7618 35.228C17.7618 34.568 17.6152 34.073 17.3218 33.743C17.0358 33.4057 16.6545 33.237 16.1778 33.237C15.6938 33.237 15.3052 33.4057 15.0118 33.743C14.7258 34.073 14.5828 34.568 14.5828 35.228C14.5828 35.888 14.7258 36.3867 15.0118 36.724C15.2978 37.0613 15.6865 37.23 16.1778 37.23ZM20.4829 38V33.787C20.4829 33.5743 20.4719 33.358 20.4499 33.138C20.4353 32.9107 20.4169 32.6833 20.3949 32.456H21.4729L21.5719 33.622H21.4399C21.5939 33.2187 21.8286 32.907 22.1439 32.687C22.4666 32.467 22.8516 32.357 23.2989 32.357C23.7536 32.357 24.1239 32.467 24.4099 32.687C24.7033 32.8997 24.9049 33.2297 25.0149 33.677H24.8389C24.9856 33.2737 25.2349 32.9547 25.5869 32.72C25.9389 32.478 26.3459 32.357 26.8079 32.357C27.4239 32.357 27.8859 32.5367 28.1939 32.896C28.5019 33.2553 28.6559 33.8127 28.6559 34.568V38H27.5449V34.623C27.5449 34.139 27.4606 33.7907 27.2919 33.578C27.1306 33.358 26.8666 33.248 26.4999 33.248C26.0746 33.248 25.7373 33.3947 25.4879 33.688C25.2386 33.9813 25.1139 34.3773 25.1139 34.876V38H24.0029V34.623C24.0029 34.139 23.9186 33.7907 23.7499 33.578C23.5886 33.358 23.3246 33.248 22.9579 33.248C22.5326 33.248 22.1989 33.3947 21.9569 33.688C21.7149 33.9813 21.5939 34.3773 21.5939 34.876V38H20.4829ZM30.2476 38V29.904H31.3586V38H30.2476ZM35.5499 38.099C34.6552 38.099 33.9512 37.846 33.4379 37.34C32.9245 36.834 32.6679 36.1337 32.6679 35.239C32.6679 34.6597 32.7779 34.1537 32.9979 33.721C33.2252 33.2883 33.5369 32.9547 33.9329 32.72C34.3362 32.478 34.8019 32.357 35.3299 32.357C35.8505 32.357 36.2869 32.467 36.6389 32.687C36.9909 32.907 37.2585 33.2187 37.4419 33.622C37.6252 34.018 37.7169 34.4873 37.7169 35.03V35.382H33.5369V34.744H36.9579L36.7709 34.887C36.7709 34.337 36.6462 33.9117 36.3969 33.611C36.1549 33.303 35.8029 33.149 35.3409 33.149C34.8275 33.149 34.4315 33.3287 34.1529 33.688C33.8742 34.04 33.7349 34.5277 33.7349 35.151V35.261C33.7349 35.9137 33.8925 36.405 34.2079 36.735C34.5305 37.065 34.9852 37.23 35.5719 37.23C35.8945 37.23 36.1952 37.186 36.4739 37.098C36.7599 37.0027 37.0312 36.8487 37.2879 36.636L37.6509 37.395C37.3942 37.6223 37.0825 37.7983 36.7159 37.923C36.3492 38.0403 35.9605 38.099 35.5499 38.099ZM40.8947 38.099C40.4327 38.099 40.0074 38.0403 39.6187 37.923C39.2301 37.8057 38.9074 37.6407 38.6507 37.428L38.9917 36.669C39.2631 36.8743 39.5637 37.0283 39.8937 37.131C40.2237 37.2337 40.5611 37.285 40.9057 37.285C41.3091 37.285 41.6134 37.2153 41.8187 37.076C42.0241 36.9293 42.1267 36.7313 42.1267 36.482C42.1267 36.2913 42.0607 36.1373 41.9287 36.02C41.8041 35.9027 41.5951 35.8147 41.3017 35.756L40.2457 35.547C39.7764 35.4443 39.4207 35.2683 39.1787 35.019C38.9367 34.7697 38.8157 34.4507 38.8157 34.062C38.8157 33.732 38.9037 33.4387 39.0797 33.182C39.2631 32.9253 39.5197 32.7237 39.8497 32.577C40.1871 32.4303 40.5794 32.357 41.0267 32.357C41.4374 32.357 41.8187 32.4157 42.1707 32.533C42.5227 32.6503 42.8161 32.819 43.0507 33.039L42.6987 33.776C42.4714 33.5853 42.2147 33.4387 41.9287 33.336C41.6427 33.226 41.3531 33.171 41.0597 33.171C40.6491 33.171 40.3447 33.248 40.1467 33.402C39.9487 33.556 39.8497 33.7577 39.8497 34.007C39.8497 34.1977 39.9084 34.3553 40.0257 34.48C40.1504 34.5973 40.3447 34.689 40.6087 34.755L41.6647 34.964C42.1634 35.0667 42.5374 35.2353 42.7867 35.47C43.0361 35.7047 43.1607 36.02 43.1607 36.416C43.1607 36.7607 43.0654 37.0613 42.8747 37.318C42.6841 37.5747 42.4201 37.769 42.0827 37.901C41.7454 38.033 41.3494 38.099 40.8947 38.099ZM46.3733 38.099C45.9113 38.099 45.4859 38.0403 45.0973 37.923C44.7086 37.8057 44.3859 37.6407 44.1293 37.428L44.4703 36.669C44.7416 36.8743 45.0423 37.0283 45.3723 37.131C45.7023 37.2337 46.0396 37.285 46.3843 37.285C46.7876 37.285 47.0919 37.2153 47.2973 37.076C47.5026 36.9293 47.6053 36.7313 47.6053 36.482C47.6053 36.2913 47.5393 36.1373 47.4073 36.02C47.2826 35.9027 47.0736 35.8147 46.7803 35.756L45.7243 35.547C45.2549 35.4443 44.8993 35.2683 44.6573 35.019C44.4153 34.7697 44.2943 34.4507 44.2943 34.062C44.2943 33.732 44.3823 33.4387 44.5583 33.182C44.7416 32.9253 44.9983 32.7237 45.3283 32.577C45.6656 32.4303 46.0579 32.357 46.5053 32.357C46.9159 32.357 47.2973 32.4157 47.6493 32.533C48.0013 32.6503 48.2946 32.819 48.5293 33.039L48.1773 33.776C47.9499 33.5853 47.6933 33.4387 47.4073 33.336C47.1213 33.226 46.8316 33.171 46.5383 33.171C46.1276 33.171 45.8233 33.248 45.6253 33.402C45.4273 33.556 45.3283 33.7577 45.3283 34.007C45.3283 34.1977 45.3869 34.3553 45.5043 34.48C45.6289 34.5973 45.8233 34.689 46.0873 34.755L47.1433 34.964C47.6419 35.0667 48.0159 35.2353 48.2653 35.47C48.5146 35.7047 48.6393 36.02 48.6393 36.416C48.6393 36.7607 48.5439 37.0613 48.3533 37.318C48.1626 37.5747 47.8986 37.769 47.5613 37.901C47.2239 38.033 46.8279 38.099 46.3733 38.099Z" fill="#FAFCFF"/>
<path d="M0.154 57L3.586 49.245H4.477L7.964 57H6.908L5.951 54.8L6.391 55.064H1.672L2.156 54.8L1.199 57H0.154ZM4.015 50.389L2.299 54.459L2.035 54.228H6.028L5.819 54.459L4.059 50.389H4.015ZM8.95709 59.376V52.776C8.95709 52.5633 8.94976 52.347 8.93509 52.127C8.92043 51.907 8.89843 51.687 8.86909 51.467H9.83709L9.95809 52.743H9.83709C9.94709 52.3177 10.1818 51.984 10.5411 51.742C10.9004 51.4927 11.3294 51.368 11.8281 51.368C12.3194 51.368 12.7484 51.4817 13.1151 51.709C13.4818 51.9363 13.7641 52.2663 13.9621 52.699C14.1674 53.1243 14.2701 53.634 14.2701 54.228C14.2701 54.822 14.1674 55.3353 13.9621 55.768C13.7641 56.2007 13.4818 56.5307 13.1151 56.758C12.7484 56.9853 12.3194 57.099 11.8281 57.099C11.3368 57.099 10.9114 56.978 10.5521 56.736C10.2001 56.4867 9.96176 56.153 9.83709 55.735H9.95809V59.376H8.95709ZM11.5971 56.307C12.1031 56.307 12.5064 56.131 12.8071 55.779C13.1078 55.427 13.2581 54.91 13.2581 54.228C13.2581 53.546 13.1078 53.0327 12.8071 52.688C12.5064 52.3433 12.1031 52.171 11.5971 52.171C11.0911 52.171 10.6878 52.3433 10.3871 52.688C10.0938 53.0327 9.94709 53.546 9.94709 54.228C9.94709 54.91 10.0938 55.427 10.3871 55.779C10.6878 56.131 11.0911 56.307 11.5971 56.307ZM15.6173 59.376V52.776C15.6173 52.5633 15.6099 52.347 15.5953 52.127C15.5806 51.907 15.5586 51.687 15.5293 51.467H16.4973L16.6183 52.743H16.4973C16.6073 52.3177 16.8419 51.984 17.2013 51.742C17.5606 51.4927 17.9896 51.368 18.4883 51.368C18.9796 51.368 19.4086 51.4817 19.7753 51.709C20.1419 51.9363 20.4243 52.2663 20.6223 52.699C20.8276 53.1243 20.9303 53.634 20.9303 54.228C20.9303 54.822 20.8276 55.3353 20.6223 55.768C20.4243 56.2007 20.1419 56.5307 19.7753 56.758C19.4086 56.9853 18.9796 57.099 18.4883 57.099C17.9969 57.099 17.5716 56.978 17.2123 56.736C16.8603 56.4867 16.6219 56.153 16.4973 55.735H16.6183V59.376H15.6173ZM18.2573 56.307C18.7633 56.307 19.1666 56.131 19.4673 55.779C19.7679 55.427 19.9183 54.91 19.9183 54.228C19.9183 53.546 19.7679 53.0327 19.4673 52.688C19.1666 52.3433 18.7633 52.171 18.2573 52.171C17.7513 52.171 17.3479 52.3433 17.0473 52.688C16.7539 53.0327 16.6073 53.546 16.6073 54.228C16.6073 54.91 16.7539 55.427 17.0473 55.779C17.3479 56.131 17.7513 56.307 18.2573 56.307ZM22.2774 57V48.904H23.2784V57H22.2774ZM24.7652 59.497L24.5342 58.683C24.8789 58.6023 25.1649 58.507 25.3922 58.397C25.6195 58.2943 25.8102 58.1587 25.9642 57.99C26.1182 57.8213 26.2539 57.6087 26.3712 57.352L26.6462 56.692L26.6242 57.11L24.2152 51.467H25.2932L27.2182 56.208H26.9322L28.8572 51.467H29.8912L27.3502 57.429C27.1962 57.7883 27.0275 58.089 26.8442 58.331C26.6682 58.573 26.4739 58.771 26.2612 58.925C26.0559 59.079 25.8285 59.2 25.5792 59.288C25.3299 59.376 25.0585 59.4457 24.7652 59.497ZM35.7966 57.099C35.2172 57.099 34.7772 56.9413 34.4766 56.626C34.1832 56.3033 34.0366 55.8193 34.0366 55.174V52.237H32.9586V51.467H34.0366V49.982L35.0376 49.707V51.467H36.5996V52.237H35.0376V55.086C35.0376 55.5113 35.1109 55.8157 35.2576 55.999C35.4116 56.175 35.6316 56.263 35.9176 56.263C36.0642 56.263 36.1889 56.252 36.2916 56.23C36.4016 56.2007 36.5006 56.1677 36.5886 56.131V56.956C36.4786 57 36.3502 57.033 36.2036 57.055C36.0642 57.0843 35.9286 57.099 35.7966 57.099ZM39.9278 57.099C39.3851 57.099 38.9158 56.9853 38.5198 56.758C38.1238 56.5233 37.8158 56.1933 37.5958 55.768C37.3758 55.3353 37.2658 54.822 37.2658 54.228C37.2658 53.6413 37.3758 53.1353 37.5958 52.71C37.8158 52.2773 38.1238 51.9473 38.5198 51.72C38.9158 51.4853 39.3851 51.368 39.9278 51.368C40.4704 51.368 40.9398 51.4853 41.3358 51.72C41.7391 51.9473 42.0471 52.2773 42.2598 52.71C42.4798 53.1353 42.5898 53.6413 42.5898 54.228C42.5898 54.822 42.4798 55.3353 42.2598 55.768C42.0471 56.1933 41.7391 56.5233 41.3358 56.758C40.9398 56.9853 40.4704 57.099 39.9278 57.099ZM39.9278 56.307C40.4264 56.307 40.8261 56.131 41.1268 55.779C41.4274 55.427 41.5778 54.91 41.5778 54.228C41.5778 53.546 41.4274 53.0327 41.1268 52.688C40.8261 52.3433 40.4264 52.171 39.9278 52.171C39.4218 52.171 39.0184 52.3433 38.7178 52.688C38.4244 53.0327 38.2778 53.546 38.2778 54.228C38.2778 54.91 38.4244 55.427 38.7178 55.779C39.0184 56.131 39.4218 56.307 39.9278 56.307ZM46.152 59.42C46.042 59.42 45.91 59.409 45.756 59.387C45.5947 59.365 45.4627 59.332 45.36 59.288V58.463C45.448 58.4923 45.5507 58.518 45.668 58.54C45.7854 58.5693 45.8917 58.584 45.987 58.584C46.2877 58.584 46.5114 58.4887 46.658 58.298C46.812 58.1147 46.889 57.8103 46.889 57.385V51.467H47.89V57.473C47.89 58.111 47.747 58.595 47.461 58.925C47.175 59.255 46.7387 59.42 46.152 59.42ZM46.79 50.257V49.179H47.978V50.257H46.79ZM51.8409 57.099C51.2982 57.099 50.8289 56.9853 50.4329 56.758C50.0369 56.5233 49.7289 56.1933 49.5089 55.768C49.2889 55.3353 49.1789 54.822 49.1789 54.228C49.1789 53.6413 49.2889 53.1353 49.5089 52.71C49.7289 52.2773 50.0369 51.9473 50.4329 51.72C50.8289 51.4853 51.2982 51.368 51.8409 51.368C52.3835 51.368 52.8529 51.4853 53.2489 51.72C53.6522 51.9473 53.9602 52.2773 54.1729 52.71C54.3929 53.1353 54.5029 53.6413 54.5029 54.228C54.5029 54.822 54.3929 55.3353 54.1729 55.768C53.9602 56.1933 53.6522 56.5233 53.2489 56.758C52.8529 56.9853 52.3835 57.099 51.8409 57.099ZM51.8409 56.307C52.3395 56.307 52.7392 56.131 53.0399 55.779C53.3405 55.427 53.4909 54.91 53.4909 54.228C53.4909 53.546 53.3405 53.0327 53.0399 52.688C52.7392 52.3433 52.3395 52.171 51.8409 52.171C51.3349 52.171 50.9315 52.3433 50.6309 52.688C50.3375 53.0327 50.1909 53.546 50.1909 54.228C50.1909 54.91 50.3375 55.427 50.6309 55.779C50.9315 56.131 51.3349 56.307 51.8409 56.307ZM58.7177 57.099C58.2264 57.099 57.8011 56.978 57.4417 56.736C57.0824 56.4867 56.8441 56.1457 56.7267 55.713H56.8477V57H55.8467V48.904H56.8477V52.732H56.7267C56.8514 52.3067 57.0897 51.973 57.4417 51.731C57.8011 51.489 58.2264 51.368 58.7177 51.368C59.2091 51.368 59.6381 51.4853 60.0047 51.72C60.3714 51.9473 60.6537 52.2737 60.8517 52.699C61.0571 53.1243 61.1597 53.6377 61.1597 54.239C61.1597 54.833 61.0571 55.3463 60.8517 55.779C60.6537 56.2043 60.3677 56.5307 59.9937 56.758C59.6271 56.9853 59.2017 57.099 58.7177 57.099ZM58.4867 56.307C58.9854 56.307 59.3851 56.1347 59.6857 55.79C59.9937 55.438 60.1477 54.921 60.1477 54.239C60.1477 53.557 59.9937 53.0437 59.6857 52.699C59.3851 52.347 58.9854 52.171 58.4867 52.171C57.9807 52.171 57.5774 52.3433 57.2767 52.688C56.9834 53.0327 56.8367 53.546 56.8367 54.228C56.8367 54.91 56.9834 55.427 57.2767 55.779C57.5774 56.131 57.9807 56.307 58.4867 56.307ZM64.3769 57.099C63.9296 57.099 63.5116 57.0403 63.1229 56.923C62.7416 56.8057 62.4262 56.637 62.1769 56.417L62.4959 55.724C62.7672 55.9293 63.0642 56.087 63.3869 56.197C63.7169 56.2997 64.0542 56.351 64.3989 56.351C64.8169 56.351 65.1322 56.274 65.3449 56.12C65.5649 55.966 65.6749 55.7607 65.6749 55.504C65.6749 55.2987 65.6052 55.1337 65.4659 55.009C65.3266 54.8843 65.1066 54.7927 64.8059 54.734L63.7609 54.525C63.2916 54.415 62.9359 54.239 62.6939 53.997C62.4592 53.7477 62.3419 53.4287 62.3419 53.04C62.3419 52.7173 62.4299 52.4313 62.6059 52.182C62.7819 51.9253 63.0312 51.7273 63.3539 51.588C63.6839 51.4413 64.0689 51.368 64.5089 51.368C64.9122 51.368 65.2862 51.4267 65.6309 51.544C65.9829 51.6613 66.2726 51.8337 66.4999 52.061L66.1699 52.732C65.9426 52.534 65.6859 52.3837 65.3999 52.281C65.1212 52.171 64.8352 52.116 64.5419 52.116C64.1166 52.116 63.8012 52.2003 63.5959 52.369C63.3906 52.5303 63.2879 52.743 63.2879 53.007C63.2879 53.205 63.3502 53.37 63.4749 53.502C63.5996 53.6267 63.8012 53.722 64.0799 53.788L65.1249 53.997C65.6162 54.0997 65.9866 54.2683 66.2359 54.503C66.4852 54.7377 66.6099 55.0493 66.6099 55.438C66.6099 55.7827 66.5146 56.0797 66.3239 56.329C66.1406 56.5783 65.8802 56.769 65.5429 56.901C65.2129 57.033 64.8242 57.099 64.3769 57.099ZM72.7451 57.099C72.2977 57.099 71.8797 57.0403 71.4911 56.923C71.1097 56.8057 70.7944 56.637 70.5451 56.417L70.8641 55.724C71.1354 55.9293 71.4324 56.087 71.7551 56.197C72.0851 56.2997 72.4224 56.351 72.7671 56.351C73.1851 56.351 73.5004 56.274 73.7131 56.12C73.9331 55.966 74.0431 55.7607 74.0431 55.504C74.0431 55.2987 73.9734 55.1337 73.8341 55.009C73.6947 54.8843 73.4747 54.7927 73.1741 54.734L72.1291 54.525C71.6597 54.415 71.3041 54.239 71.0621 53.997C70.8274 53.7477 70.7101 53.4287 70.7101 53.04C70.7101 52.7173 70.7981 52.4313 70.9741 52.182C71.1501 51.9253 71.3994 51.7273 71.7221 51.588C72.0521 51.4413 72.4371 51.368 72.8771 51.368C73.2804 51.368 73.6544 51.4267 73.9991 51.544C74.3511 51.6613 74.6407 51.8337 74.8681 52.061L74.5381 52.732C74.3107 52.534 74.0541 52.3837 73.7681 52.281C73.4894 52.171 73.2034 52.116 72.9101 52.116C72.4847 52.116 72.1694 52.2003 71.9641 52.369C71.7587 52.5303 71.6561 52.743 71.6561 53.007C71.6561 53.205 71.7184 53.37 71.8431 53.502C71.9677 53.6267 72.1694 53.722 72.4481 53.788L73.4931 53.997C73.9844 54.0997 74.3547 54.2683 74.6041 54.503C74.8534 54.7377 74.9781 55.0493 74.9781 55.438C74.9781 55.7827 74.8827 56.0797 74.6921 56.329C74.5087 56.5783 74.2484 56.769 73.9111 56.901C73.5811 57.033 73.1924 57.099 72.7451 57.099ZM76.3428 57V52.776C76.3428 52.5633 76.3355 52.347 76.3208 52.127C76.3062 51.907 76.2842 51.687 76.2548 51.467H77.2228L77.3328 52.655H77.2008C77.3475 52.2443 77.5822 51.929 77.9048 51.709C78.2275 51.4817 78.6125 51.368 79.0598 51.368C79.5145 51.368 79.8885 51.478 80.1818 51.698C80.4752 51.9107 80.6732 52.248 80.7758 52.71H80.6108C80.7502 52.2993 80.9958 51.973 81.3478 51.731C81.6998 51.489 82.1105 51.368 82.5798 51.368C83.1885 51.368 83.6468 51.5477 83.9548 51.907C84.2628 52.259 84.4168 52.809 84.4168 53.557V57H83.4158V53.612C83.4158 53.106 83.3278 52.743 83.1518 52.523C82.9758 52.2957 82.6972 52.182 82.3158 52.182C81.8685 52.182 81.5165 52.336 81.2598 52.644C81.0032 52.9447 80.8748 53.3553 80.8748 53.876V57H79.8738V53.612C79.8738 53.106 79.7858 52.743 79.6098 52.523C79.4412 52.2957 79.1625 52.182 78.7738 52.182C78.3265 52.182 77.9745 52.336 77.7178 52.644C77.4685 52.9447 77.3438 53.3553 77.3438 53.876V57H76.3428ZM88.3858 57.099C87.8431 57.099 87.3738 56.9853 86.9778 56.758C86.5818 56.5233 86.2738 56.1933 86.0538 55.768C85.8338 55.3353 85.7238 54.822 85.7238 54.228C85.7238 53.6413 85.8338 53.1353 86.0538 52.71C86.2738 52.2773 86.5818 51.9473 86.9778 51.72C87.3738 51.4853 87.8431 51.368 88.3858 51.368C88.9284 51.368 89.3978 51.4853 89.7938 51.72C90.1971 51.9473 90.5051 52.2773 90.7178 52.71C90.9378 53.1353 91.0478 53.6413 91.0478 54.228C91.0478 54.822 90.9378 55.3353 90.7178 55.768C90.5051 56.1933 90.1971 56.5233 89.7938 56.758C89.3978 56.9853 88.9284 57.099 88.3858 57.099ZM88.3858 56.307C88.8844 56.307 89.2841 56.131 89.5848 55.779C89.8854 55.427 90.0358 54.91 90.0358 54.228C90.0358 53.546 89.8854 53.0327 89.5848 52.688C89.2841 52.3433 88.8844 52.171 88.3858 52.171C87.8798 52.171 87.4764 52.3433 87.1758 52.688C86.8824 53.0327 86.7358 53.546 86.7358 54.228C86.7358 54.91 86.8824 55.427 87.1758 55.779C87.4764 56.131 87.8798 56.307 88.3858 56.307ZM94.7237 57.099C94.181 57.099 93.7117 56.9853 93.3157 56.758C92.9197 56.5233 92.6117 56.1933 92.3917 55.768C92.1717 55.3353 92.0617 54.822 92.0617 54.228C92.0617 53.6413 92.1717 53.1353 92.3917 52.71C92.6117 52.2773 92.9197 51.9473 93.3157 51.72C93.7117 51.4853 94.181 51.368 94.7237 51.368C95.2663 51.368 95.7357 51.4853 96.1317 51.72C96.535 51.9473 96.843 52.2773 97.0557 52.71C97.2757 53.1353 97.3857 53.6413 97.3857 54.228C97.3857 54.822 97.2757 55.3353 97.0557 55.768C96.843 56.1933 96.535 56.5233 96.1317 56.758C95.7357 56.9853 95.2663 57.099 94.7237 57.099ZM94.7237 56.307C95.2223 56.307 95.622 56.131 95.9227 55.779C96.2233 55.427 96.3737 54.91 96.3737 54.228C96.3737 53.546 96.2233 53.0327 95.9227 52.688C95.622 52.3433 95.2223 52.171 94.7237 52.171C94.2177 52.171 93.8143 52.3433 93.5137 52.688C93.2203 53.0327 93.0737 53.546 93.0737 54.228C93.0737 54.91 93.2203 55.427 93.5137 55.779C93.8143 56.131 94.2177 56.307 94.7237 56.307ZM100.744 57.099C100.165 57.099 99.7245 56.9413 99.4238 56.626C99.1305 56.3033 98.9838 55.8193 98.9838 55.174V52.237H97.9058V51.467H98.9838V49.982L99.9848 49.707V51.467H101.547V52.237H99.9848V55.086C99.9848 55.5113 100.058 55.8157 100.205 55.999C100.359 56.175 100.579 56.263 100.865 56.263C101.012 56.263 101.136 56.252 101.239 56.23C101.349 56.2007 101.448 56.1677 101.536 56.131V56.956C101.426 57 101.298 57.033 101.151 57.055C101.012 57.0843 100.876 57.099 100.744 57.099ZM102.597 57V48.904H103.598V52.666H103.455C103.616 52.2407 103.876 51.918 104.236 51.698C104.595 51.478 105.009 51.368 105.479 51.368C106.146 51.368 106.637 51.5477 106.953 51.907C107.275 52.2663 107.437 52.809 107.437 53.535V57H106.436V53.59C106.436 53.0987 106.34 52.743 106.15 52.523C105.959 52.2957 105.647 52.182 105.215 52.182C104.731 52.182 104.338 52.3323 104.038 52.633C103.744 52.9337 103.598 53.3333 103.598 53.832V57H102.597ZM109.074 57V48.904H110.075V57H109.074ZM111.562 59.497L111.331 58.683C111.676 58.6023 111.962 58.507 112.189 58.397C112.416 58.2943 112.607 58.1587 112.761 57.99C112.915 57.8213 113.051 57.6087 113.168 57.352L113.443 56.692L113.421 57.11L111.012 51.467H112.09L114.015 56.208H113.729L115.654 51.467H116.688L114.147 57.429C113.993 57.7883 113.824 58.089 113.641 58.331C113.465 58.573 113.271 58.771 113.058 58.925C112.853 59.079 112.625 59.2 112.376 59.288C112.127 59.376 111.855 59.4457 111.562 59.497Z" fill="#E0E0E0"/>
<path d="M7.20394 0.0517273C6.91594 0.131308 6.71509 0.256363 6.49151 0.502684C6.15424 0.870272 6.1315 0.980168 6.11255 2.13977L6.09739 3.13643H3.94872C2.56932 3.13643 1.71667 3.15158 1.57267 3.17811C0.85265 3.31074 0.197057 3.95497 0.0454747 4.68256C-0.0151582 4.96678 -0.0151582 15.0622 0.0454747 15.3464C0.197057 16.0664 0.814754 16.6803 1.54614 16.8357C1.93267 16.919 17.4774 16.919 17.864 16.8357C18.584 16.6841 19.16 16.127 19.3495 15.3956C19.3987 15.1986 19.4063 14.5202 19.4063 10.0258C19.4063 6.41818 19.3949 4.82278 19.3646 4.68256C19.2509 4.14066 18.8265 3.59496 18.3339 3.35243C18.1861 3.27664 17.9587 3.20085 17.8374 3.17811C17.6934 3.15158 16.8218 3.13643 15.4614 3.13643H13.3127L13.2975 2.13977C13.2824 1.20375 13.2786 1.13554 13.1914 0.919536C13.0702 0.605003 12.6912 0.229837 12.3767 0.100992L12.1493 0.0100422L9.78084 0.00246239C7.78375 -0.00511551 7.37826 0.00246239 7.20394 0.0517273ZM11.9864 1.30607C12.047 1.36291 12.0546 1.44249 12.0546 2.25346V3.13643H9.70505H7.35553V2.25725C7.35553 1.49555 7.3631 1.37049 7.41995 1.30986C7.47679 1.24544 7.59806 1.24165 9.69747 1.24165C11.7097 1.24165 11.9219 1.24923 11.9864 1.30607ZM17.8147 4.46656C17.8905 4.50824 18.0004 4.61435 18.0534 4.70151C18.1558 4.85688 18.1558 4.86067 18.1558 5.58448C18.1558 6.20218 18.1444 6.34997 18.08 6.5546C17.9284 7.04346 17.5343 7.50578 17.0795 7.718C16.8749 7.81274 10.7964 9.6052 10.1901 9.7492C9.89074 9.8212 9.52315 9.8212 9.23135 9.7492C9.1063 9.72267 8.0907 9.43088 6.97657 9.10497C5.86244 8.78286 4.41104 8.36222 3.75545 8.17274C3.09986 7.98327 2.45563 7.77863 2.33058 7.718C1.87583 7.50578 1.48172 7.04346 1.33013 6.5546C1.26571 6.34997 1.25434 6.20218 1.25434 5.59206C1.25434 5.05015 1.26571 4.8493 1.3074 4.77351C1.36424 4.66362 1.53098 4.49687 1.65225 4.43245C1.7053 4.40214 3.96008 4.39077 9.70126 4.38698H17.6707L17.8147 4.46656ZM1.98194 8.9155C2.2131 9.00645 5.82833 10.0713 7.96564 10.6776C8.54166 10.8406 9.1442 10.996 9.31094 11.0187C9.91348 11.1096 10.1787 11.0566 12.7556 10.3025C15.7267 9.43467 16.8105 9.12013 17.0757 9.04055C17.4206 8.93444 17.6972 8.81318 17.9511 8.65023L18.1558 8.51759V11.8372C18.1558 14.6188 18.1482 15.1683 18.1027 15.2554C18.0307 15.3918 17.8564 15.551 17.7275 15.6003C17.576 15.6571 1.83414 15.6571 1.68256 15.6003C1.55372 15.551 1.3794 15.3918 1.3074 15.2554C1.26192 15.1683 1.25434 14.6188 1.25434 11.8372V8.52138L1.50066 8.67297C1.6333 8.75255 1.85309 8.86244 1.98194 8.9155Z" fill="#9DC6FF"/>
</svg>
