<svg width="30" height="34" viewBox="0 0 30 34" fill="none" xmlns="http://www.w3.org/2000/svg">
<rect x="0.5" y="0.5" width="29" height="33" rx="8.5" fill="#FAFCFF" stroke="#EDEEF1"/>
<path d="M17.3407 21.9465C17.4802 21.8756 17.8907 21.4245 17.9505 21.2785C18.0103 21.1345 18.0103 20.9283 17.9505 20.7844C17.9146 20.6942 17.5918 20.3376 15.9696 18.5869L14.0325 16.499L15.9775 14.3982C18.1338 12.074 17.9983 12.2373 17.9983 11.9451C17.9963 11.7303 17.9445 11.6337 17.6834 11.3523C17.4124 11.0601 17.3148 11 17.1015 11C16.9959 11 16.9381 11.0129 16.8624 11.0516C16.7827 11.0924 16.3123 11.5886 14.4091 13.6443C12.4741 15.7343 12.0496 16.2026 12.0277 16.2735C11.9838 16.411 11.9938 16.643 12.0456 16.7675C12.0835 16.8578 12.484 17.2981 14.4171 19.3817C16.9999 22.1656 16.8265 21.9981 17.1015 21.9981C17.2071 21.9981 17.2649 21.9852 17.3407 21.9465Z" fill="#686C6F"/>
</svg>
