<svg width="61" height="36" viewBox="0 0 61 36" fill="none" xmlns="http://www.w3.org/2000/svg">
<rect width="61" height="36" rx="15" fill="white"/>
<rect x="28" y="3" width="30.0789" height="30.0789" rx="15.0394" fill="#6638F0"/>
<path d="M42.9204 12.9419V14.4171L42.0624 14.434C41.5298 14.4467 41.162 14.472 41.0817 14.5059C40.7267 14.6496 40.6252 14.9412 40.6252 15.7993C40.6252 17.042 40.7732 17.173 42.168 17.173H42.9204V18.6524V20.1318H42.5273H42.13L41.2973 22.3721L40.4604 24.6123H38.4357C36.9817 24.6123 36.411 24.5996 36.411 24.5658C36.411 24.5404 36.4956 24.3249 36.597 24.0882C36.8295 23.5598 38.3554 19.7641 38.3554 19.7176C38.3554 19.7007 38.2497 19.633 38.1187 19.5654C37.6664 19.3287 37.193 18.7539 37.007 18.2255C36.6308 17.1561 36.6097 14.5228 36.9647 13.4111C37.1845 12.7221 37.5776 12.2614 38.2074 11.9486C38.9852 11.564 39.6784 11.4667 41.6185 11.4667H42.9204V12.9419Z" fill="#F5F5F5"/>
<path d="M49.6877 18.0367V24.6069H47.7653H45.8428V18.0367V11.4664H47.7653H49.6877V18.0367Z" fill="#F5F5F5"/>
<path d="M48.1235 12.945V14.4238H45.863H43.6025V12.945V11.4661H45.863H48.1235V12.945Z" fill="#F5F5F5"/>
<path d="M48.136 18.6518V20.1279H45.8661H43.5963V18.6518V17.1757H45.8661H48.136V18.6518Z" fill="#F5F5F5"/>
<path d="M15.2745 12.3188C15.5834 12.4532 15.6976 13.0039 15.476 13.2928C15.298 13.5279 15.4558 13.5144 12.712 13.5144H10.2335L10.6365 13.9107C11.0462 14.3104 14.5457 17.7024 16.0671 19.17C16.5238 19.61 16.9201 20.0197 16.947 20.0801C17.0074 20.2044 17.0175 20.4193 16.9705 20.5436C16.9167 20.6779 16.7253 20.8761 16.5809 20.9399C16.413 21.0171 16.2215 21.0205 16.0704 20.9466C15.9629 20.8962 13.7094 18.7301 10.351 15.4489L9.29312 14.4145L9.27632 16.9299C9.25953 19.2271 9.25617 19.4521 9.20244 19.5495C9.08153 19.7712 8.83973 19.882 8.54754 19.8518C8.31581 19.8283 8.15797 19.7275 8.07065 19.5462C8.00012 19.4051 8.00012 19.3749 8.00012 16.0903C8.00012 13.1819 8.00684 12.7588 8.0505 12.6513C8.11767 12.4901 8.18819 12.4129 8.34268 12.3356C8.46358 12.2752 8.59456 12.2718 11.8187 12.2718C14.549 12.2752 15.1905 12.2819 15.2745 12.3188Z" fill="#173C98"/>
</svg>
