<svg width="154" height="36" viewBox="0 0 154 36" fill="none" xmlns="http://www.w3.org/2000/svg">
<rect width="61" height="36" rx="15" fill="white"/>
<rect x="28" y="3" width="30.0789" height="30.0789" rx="15.0394" fill="#0161FF"/>
<path d="M42.9204 12.9419V14.4171L42.0624 14.434C41.5298 14.4467 41.162 14.472 41.0817 14.5059C40.7267 14.6496 40.6252 14.9412 40.6252 15.7993C40.6252 17.042 40.7732 17.173 42.168 17.173H42.9204V18.6524V20.1318H42.5273H42.13L41.2973 22.3721L40.4604 24.6123H38.4357C36.9817 24.6123 36.411 24.5996 36.411 24.5658C36.411 24.5404 36.4956 24.3249 36.597 24.0882C36.8295 23.5598 38.3554 19.7641 38.3554 19.7176C38.3554 19.7007 38.2497 19.633 38.1187 19.5654C37.6664 19.3287 37.193 18.7539 37.007 18.2255C36.6308 17.1561 36.6097 14.5228 36.9647 13.4111C37.1845 12.7221 37.5776 12.2614 38.2074 11.9486C38.9852 11.564 39.6784 11.4667 41.6185 11.4667H42.9204V12.9419Z" fill="#F5F5F5"/>
<path d="M49.688 18.0367V24.6069H47.7655H45.843V18.0367V11.4664H47.7655H49.688V18.0367Z" fill="#F5F5F5"/>
<path d="M48.124 12.945V14.4238H45.8635H43.603V12.945V11.4661H45.8635H48.124V12.945Z" fill="#F5F5F5"/>
<path d="M48.1362 18.6518V20.1279H45.8664H43.5966V18.6518V17.1757H45.8664H48.1362V18.6518Z" fill="#F5F5F5"/>
<path d="M15.2745 12.3188C15.5834 12.4532 15.6976 13.0039 15.476 13.2928C15.298 13.5279 15.4558 13.5144 12.712 13.5144H10.2335L10.6365 13.9107C11.0462 14.3104 14.5457 17.7024 16.0671 19.17C16.5238 19.61 16.9201 20.0197 16.947 20.0801C17.0074 20.2044 17.0175 20.4193 16.9705 20.5436C16.9167 20.6779 16.7253 20.8761 16.5809 20.9399C16.413 21.0171 16.2215 21.0205 16.0704 20.9466C15.9629 20.8962 13.7094 18.7301 10.351 15.4489L9.29312 14.4145L9.27632 16.9299C9.25953 19.2271 9.25617 19.4521 9.20244 19.5495C9.08153 19.7712 8.83973 19.882 8.54754 19.8518C8.31581 19.8283 8.15797 19.7275 8.07065 19.5462C8.00012 19.4051 8.00012 19.3749 8.00012 16.0903C8.00012 13.1819 8.00684 12.7588 8.0505 12.6513C8.11767 12.4901 8.18819 12.4129 8.34268 12.3356C8.46358 12.2752 8.59456 12.2718 11.8187 12.2718C14.549 12.2752 15.1905 12.2819 15.2745 12.3188Z" fill="#173C98"/>
<path d="M77.3 11.24H81.3V25H77.3V11.24ZM82.94 20.32H82.14V17.26H82.82C83.2333 17.26 83.5467 17.2467 83.76 17.22C83.9733 17.18 84.14 17.1133 84.26 17.02C84.3667 16.9267 84.44 16.7867 84.48 16.6C84.52 16.4133 84.54 16.14 84.54 15.78C84.54 15.42 84.52 15.1467 84.48 14.96C84.44 14.76 84.3667 14.6133 84.26 14.52C84.1533 14.4267 83.9933 14.3667 83.78 14.34C83.58 14.3133 83.26 14.3 82.82 14.3H82.14V11.24H84.2C85.1467 11.24 85.9133 11.3333 86.5 11.52C87.0867 11.7067 87.54 11.9933 87.86 12.38C88.1533 12.74 88.3467 13.1867 88.44 13.72C88.5467 14.2533 88.6 14.94 88.6 15.78C88.6 16.86 88.5 17.6933 88.3 18.28C88.02 19.0267 87.5267 19.5533 86.82 19.86L88.9 25H84.7L82.94 20.32ZM90.6166 10.14H94.3166V13.02H90.6166V10.14ZM90.6166 14.8H94.3166V25H90.6166V14.8ZM99.2931 24.94C98.7598 24.94 98.3065 24.8533 97.9331 24.68C97.5598 24.4933 97.2531 24.2 97.0131 23.8C96.5331 23.0267 96.2931 21.68 96.2931 19.76C96.2931 17.8267 96.5331 16.4867 97.0131 15.74C97.2531 15.3667 97.5598 15.0933 97.9331 14.92C98.3065 14.7467 98.7598 14.66 99.2931 14.66C99.7465 14.66 100.133 14.7 100.453 14.78C100.773 14.86 101.066 15.0067 101.333 15.22V17.74H101.113C100.82 17.74 100.606 17.76 100.473 17.8C100.353 17.8267 100.26 17.8933 100.193 18C100.126 18.1467 100.086 18.3533 100.073 18.62C100.06 18.8067 100.053 19.2 100.053 19.8C100.053 20.4 100.06 20.7933 100.073 20.98C100.086 21.26 100.126 21.4667 100.193 21.6C100.26 21.72 100.366 21.7933 100.513 21.82C100.7 21.8467 100.9 21.86 101.113 21.86H101.333V24.4C101.066 24.6133 100.78 24.76 100.473 24.84C100.166 24.9067 99.7731 24.94 99.2931 24.94ZM100.633 29.12C99.9665 29.12 99.1665 29.08 98.2331 29L97.0331 28.88V26.3H99.7131C100.193 26.3 100.66 26.2867 101.113 26.26C101.446 26.2333 101.686 26.1667 101.833 26.06C101.993 25.9667 102.093 25.8 102.133 25.56C102.16 25.24 102.173 24.9 102.173 24.54V14.8H105.873V23.88C105.873 24.92 105.826 25.7333 105.733 26.32C105.64 26.92 105.44 27.42 105.133 27.82C104.786 28.26 104.253 28.5867 103.533 28.8C102.826 29.0133 101.86 29.12 100.633 29.12ZM108.156 10.14H111.856V25H108.156V10.14ZM113.936 20.18C113.936 19.4733 113.929 19.0067 113.916 18.78C113.889 18.4067 113.856 18.16 113.816 18.04C113.762 17.9067 113.669 17.8267 113.536 17.8C113.402 17.76 113.189 17.74 112.896 17.74H112.696V15.3C113.229 14.8733 113.909 14.66 114.736 14.66C115.936 14.66 116.742 15.0267 117.156 15.76C117.342 16.08 117.469 16.4733 117.536 16.94C117.602 17.3933 117.636 17.9533 117.636 18.62V25H113.936V20.18ZM119.133 14.8H121.013V11.84H124.713V14.8H126.953V17.62H119.133V14.8ZM121.013 18.42H124.713V25H121.013V18.42ZM128.609 11.24H132.609V25H128.609V11.24ZM133.449 11.24H138.129V14.3H133.449V11.24ZM133.449 16.92H137.389V19.98H133.449V16.92ZM139.972 10.14H143.672V13.02H139.972V10.14ZM139.972 14.8H143.672V25H139.972V14.8ZM145.169 14.8H147.049V11.84H150.749V14.8H152.989V17.62H145.169V14.8ZM147.049 18.42H150.749V25H147.049V18.42Z" fill="#696D70"/>
</svg>
