<svg width="11" height="14" viewBox="0 0 11 14" fill="none" xmlns="http://www.w3.org/2000/svg">
<path d="M4.28487 0.0528307C3.16111 0.244226 2.26703 0.703571 1.48231 1.48829C0.569091 2.39878 0.0769344 3.528 0.00584513 4.86503C-0.0488389 5.87395 0.279265 7.05512 1.02844 8.5398C1.67097 9.8112 2.49124 11.0689 3.60406 12.4935C4.18918 13.2426 4.70867 13.8551 4.82898 13.9344C4.95749 14.0219 5.1981 14.0219 5.3266 13.9344C5.51253 13.8113 6.65816 12.395 7.30617 11.4955C8.76896 9.45575 9.75054 7.52541 10.0376 6.11456C10.1388 5.61967 10.1716 5.25602 10.1497 4.86503C10.0786 3.528 9.58649 2.39878 8.67327 1.48829C7.87488 0.687166 6.94252 0.219618 5.79962 0.041894C5.41683 -0.0182581 4.66493 -0.0127897 4.28487 0.0528307ZM5.88438 1.0098C7.07102 1.25861 8.08815 1.99685 8.6842 3.04678C9.02871 3.65378 9.20917 4.34006 9.20917 5.06462C9.20917 6.42899 8.36977 8.32106 6.73745 10.6479C6.1496 11.4818 5.14068 12.7805 5.07779 12.7805C5.0149 12.7805 4.00598 11.4818 3.41813 10.6479C2.75098 9.69636 2.30531 8.96907 1.87877 8.1324C0.998361 6.40438 0.763219 5.20954 1.07492 4.0311C1.27178 3.28466 1.62723 2.67493 2.17954 2.13083C2.83848 1.48282 3.65327 1.08363 4.58563 0.955118C4.87546 0.914105 5.57268 0.944181 5.88438 1.0098Z" fill="#686C6F"/>
<path d="M4.61285 2.54369C4.04687 2.64485 3.45355 2.99757 3.08716 3.45418C2.8739 3.7194 2.66336 4.1432 2.58681 4.46857C2.51025 4.783 2.50478 5.32711 2.57313 5.61693C2.80828 6.59851 3.51097 7.31487 4.47614 7.56095C4.76323 7.63477 5.3921 7.63477 5.67919 7.56095C6.64436 7.31487 7.34705 6.59851 7.58219 5.61693C7.65055 5.32711 7.64508 4.783 7.56852 4.46857C7.48923 4.1432 7.28143 3.7194 7.06816 3.45418C6.75646 3.06592 6.25064 2.73235 5.76121 2.59564C5.52607 2.52728 4.86713 2.49721 4.61285 2.54369ZM5.36749 3.47332C5.87058 3.56628 6.31352 3.90806 6.53773 4.38381C6.66077 4.64082 6.70178 4.85956 6.68264 5.17399C6.65803 5.60053 6.49672 5.94504 6.17681 6.25127C5.9116 6.50281 5.43858 6.69694 5.07766 6.69694C4.71675 6.69694 4.24373 6.50281 3.97851 6.25127C3.65861 5.94504 3.49729 5.60053 3.47269 5.17399C3.45355 4.85956 3.49456 4.64082 3.6176 4.38381C3.9375 3.71119 4.65113 3.34208 5.36749 3.47332Z" fill="#686C6F"/>
</svg>
