<svg width="98" height="18" viewBox="0 0 98 18" fill="none" xmlns="http://www.w3.org/2000/svg">
<g filter="url(#filter0_f_16_28)">
<path d="M1.365 2.552H5.565V17H1.365V2.552ZM7.287 12.086H6.447V8.873H7.161C7.595 8.873 7.924 8.859 8.148 8.831C8.372 8.789 8.547 8.719 8.673 8.621C8.785 8.523 8.862 8.376 8.904 8.18C8.946 7.984 8.967 7.697 8.967 7.319C8.967 6.941 8.946 6.654 8.904 6.458C8.862 6.248 8.785 6.094 8.673 5.996C8.561 5.898 8.393 5.835 8.169 5.807C7.959 5.779 7.623 5.765 7.161 5.765H6.447V2.552H8.61C9.604 2.552 10.409 2.65 11.025 2.846C11.641 3.042 12.117 3.343 12.453 3.749C12.761 4.127 12.964 4.596 13.062 5.156C13.174 5.716 13.23 6.437 13.23 7.319C13.23 8.453 13.125 9.328 12.915 9.944C12.621 10.728 12.103 11.281 11.361 11.603L13.545 17H9.135L7.287 12.086ZM19.7784 10.595H21.2484C21.2484 9.811 21.1714 9.307 21.0174 9.083C20.9334 8.957 20.8214 8.88 20.6814 8.852C20.5414 8.81 20.3384 8.789 20.0724 8.789H19.7784V6.122H20.0724C21.2764 6.122 22.2004 6.22 22.8444 6.416C23.5024 6.612 23.9854 6.934 24.2934 7.382C24.5734 7.774 24.7414 8.278 24.7974 8.894C24.8674 9.51 24.9024 10.434 24.9024 11.666V12.506H19.7784V10.595ZM20.4924 17.168C19.2044 17.168 18.1894 17.063 17.4474 16.853C16.7194 16.629 16.1734 16.279 15.8094 15.803C15.4874 15.383 15.2774 14.865 15.1794 14.249C15.0814 13.619 15.0324 12.758 15.0324 11.666C15.0324 10.658 15.0674 9.86 15.1374 9.272C15.2074 8.67 15.3544 8.159 15.5784 7.739C15.8304 7.277 16.2154 6.92 16.7334 6.668C17.2654 6.402 17.9864 6.234 18.8964 6.164V12.506C18.8964 12.982 18.9174 13.325 18.9594 13.535C19.0014 13.731 19.0994 13.878 19.2534 13.976C19.4214 14.088 19.6804 14.151 20.0304 14.165C20.4784 14.193 20.9544 14.207 21.4584 14.207C22.3544 14.207 23.0054 14.186 23.4114 14.144L24.4824 14.06V16.769C23.9224 16.937 23.1524 17.049 22.1724 17.105C21.6964 17.147 21.1364 17.168 20.4924 17.168ZM33.9878 9.167C33.6378 9.111 33.1338 9.083 32.4758 9.083C32.0418 9.083 31.7338 9.111 31.5518 9.167V6.122C32.5458 6.136 33.5748 6.262 34.6388 6.5V9.23L33.9878 9.167ZM31.4048 17.168C30.3128 17.168 29.4448 17.035 28.8008 16.769C28.1568 16.503 27.6808 16.111 27.3728 15.593C27.0928 15.145 26.9108 14.62 26.8268 14.018C26.7568 13.416 26.7218 12.632 26.7218 11.666C26.7218 10.784 26.7568 10.049 26.8268 9.461C26.8968 8.873 27.0438 8.355 27.2678 7.907C27.5338 7.389 27.9328 6.99 28.4648 6.71C29.0108 6.416 29.7458 6.234 30.6698 6.164V11.645C30.6698 12.261 30.6838 12.723 30.7118 13.031C30.7538 13.339 30.8308 13.577 30.9428 13.745C31.0688 13.913 31.2438 14.032 31.4678 14.102C31.7058 14.172 32.0418 14.207 32.4758 14.207C33.2178 14.207 33.7288 14.186 34.0088 14.144L34.7228 14.06V16.79C33.6868 17.042 32.5808 17.168 31.4048 17.168ZM41.5656 6.899C41.8596 6.619 42.2026 6.423 42.5946 6.311C43.0006 6.185 43.4976 6.122 44.0856 6.122V9.629C43.4556 9.629 42.9376 9.671 42.5316 9.755C42.1396 9.839 41.8176 9.986 41.5656 10.196V6.899ZM36.7986 6.29H40.6836V17H36.7986V6.29ZM48.7225 17.147C47.4625 17.147 46.6155 16.762 46.1815 15.992C45.9855 15.656 45.8525 15.25 45.7825 14.774C45.7125 14.284 45.6775 13.689 45.6775 12.989V6.29H49.5625V11.351C49.5625 12.093 49.5695 12.583 49.5835 12.821C49.6115 13.171 49.6535 13.423 49.7095 13.577C49.7655 13.731 49.8565 13.829 49.9825 13.871C50.1085 13.899 50.3325 13.913 50.6545 13.913H50.8645V16.538C50.3185 16.944 49.6045 17.147 48.7225 17.147ZM51.7465 6.29H55.6315V17H51.7465V6.29ZM58.0241 1.397H61.9091V4.421H58.0241V1.397ZM58.0241 6.29H61.9091V17H58.0241V6.29ZM63.4805 6.29H65.4545V3.182H69.3395V6.29H71.6915V9.251H63.4805V6.29ZM65.4545 10.091H69.3395V17H65.4545V10.091ZM82.1605 2.552H82.5175L84.1765 8.306L81.7615 17H77.5615L82.1605 2.552ZM86.8855 14.438H83.3785L84.2605 11.204H85.9405L83.4625 2.552H87.3055L91.9045 17H87.6205L86.8855 14.438ZM93.3015 2.552H97.5015V17H93.3015V2.552Z" fill="#696D70"/>
</g>
<defs>
<filter id="filter0_f_16_28" x="0.86499" y="0.896999" width="97.1366" height="16.771" filterUnits="userSpaceOnUse" color-interpolation-filters="sRGB">
<feFlood flood-opacity="0" result="BackgroundImageFix"/>
<feBlend mode="normal" in="SourceGraphic" in2="BackgroundImageFix" result="shape"/>
<feGaussianBlur stdDeviation="0.25" result="effect1_foregroundBlur_16_28"/>
</filter>
</defs>
</svg>
