<svg width="102" height="18" viewBox="0 0 102 18" fill="none" xmlns="http://www.w3.org/2000/svg">
<path d="M0.43 1.864H4.83V17H0.43V1.864ZM6.634 11.852H5.754V8.486H6.502C6.95667 8.486 7.30133 8.47133 7.536 8.442C7.77067 8.398 7.954 8.32467 8.086 8.222C8.20333 8.11933 8.284 7.96533 8.328 7.76C8.372 7.55467 8.394 7.254 8.394 6.858C8.394 6.462 8.372 6.16133 8.328 5.956C8.284 5.736 8.20333 5.57467 8.086 5.472C7.96867 5.36933 7.79267 5.30333 7.558 5.274C7.338 5.24467 6.986 5.23 6.502 5.23H5.754V1.864H8.02C9.06133 1.864 9.90467 1.96667 10.55 2.172C11.1953 2.37733 11.694 2.69267 12.046 3.118C12.3687 3.514 12.5813 4.00533 12.684 4.592C12.8013 5.17867 12.86 5.934 12.86 6.858C12.86 8.046 12.75 8.96267 12.53 9.608C12.222 10.4293 11.6793 11.0087 10.902 11.346L13.19 17H8.57L6.634 11.852ZM19.7202 10.29H21.2602C21.2602 9.46867 21.1796 8.94067 21.0182 8.706C20.9302 8.574 20.8129 8.49333 20.6662 8.464C20.5196 8.42 20.3069 8.398 20.0282 8.398H19.7202V5.604H20.0282C21.2896 5.604 22.2576 5.70667 22.9322 5.912C23.6216 6.11733 24.1276 6.45467 24.4502 6.924C24.7436 7.33467 24.9196 7.86267 24.9782 8.508C25.0516 9.15333 25.0882 10.1213 25.0882 11.412V12.292H19.7202V10.29ZM20.4682 17.176C19.1189 17.176 18.0556 17.066 17.2782 16.846C16.5156 16.6113 15.9436 16.2447 15.5622 15.746C15.2249 15.306 15.0049 14.7633 14.9022 14.118C14.7996 13.458 14.7482 12.556 14.7482 11.412C14.7482 10.356 14.7849 9.52 14.8582 8.904C14.9316 8.27333 15.0856 7.738 15.3202 7.298C15.5842 6.814 15.9876 6.44 16.5302 6.176C17.0876 5.89733 17.8429 5.72133 18.7962 5.648V12.292C18.7962 12.7907 18.8182 13.15 18.8622 13.37C18.9062 13.5753 19.0089 13.7293 19.1702 13.832C19.3462 13.9493 19.6176 14.0153 19.9842 14.03C20.4536 14.0593 20.9522 14.074 21.4802 14.074C22.4189 14.074 23.1009 14.052 23.5262 14.008L24.6482 13.92V16.758C24.0616 16.934 23.2549 17.0513 22.2282 17.11C21.7296 17.154 21.1429 17.176 20.4682 17.176ZM34.6063 8.794C34.2396 8.73533 33.7116 8.706 33.0223 8.706C32.5676 8.706 32.245 8.73533 32.0543 8.794V5.604C33.0956 5.61867 34.1736 5.75067 35.2883 6V8.86L34.6063 8.794ZM31.9003 17.176C30.7563 17.176 29.847 17.0367 29.1723 16.758C28.4976 16.4793 27.999 16.0687 27.6763 15.526C27.383 15.0567 27.1923 14.5067 27.1043 13.876C27.031 13.2453 26.9943 12.424 26.9943 11.412C26.9943 10.488 27.031 9.718 27.1043 9.102C27.1776 8.486 27.3316 7.94333 27.5663 7.474C27.845 6.93133 28.263 6.51333 28.8203 6.22C29.3923 5.912 30.1623 5.72133 31.1303 5.648V11.39C31.1303 12.0353 31.145 12.5193 31.1743 12.842C31.2183 13.1647 31.299 13.414 31.4163 13.59C31.5483 13.766 31.7316 13.8907 31.9663 13.964C32.2156 14.0373 32.5676 14.074 33.0223 14.074C33.7996 14.074 34.335 14.052 34.6283 14.008L35.3763 13.92V16.78C34.291 17.044 33.1323 17.176 31.9003 17.176ZM42.5449 6.418C42.8529 6.12467 43.2122 5.91933 43.6229 5.802C44.0482 5.67 44.5689 5.604 45.1849 5.604V9.278C44.5249 9.278 43.9822 9.322 43.5569 9.41C43.1462 9.498 42.8089 9.652 42.5449 9.872V6.418ZM37.5509 5.78H41.6209V17H37.5509V5.78ZM50.0426 17.154C48.7226 17.154 47.8352 16.7507 47.3806 15.944C47.1752 15.592 47.0359 15.1667 46.9626 14.668C46.8892 14.1547 46.8526 13.5313 46.8526 12.798V5.78H50.9226V11.082C50.9226 11.8593 50.9299 12.3727 50.9446 12.622C50.9739 12.9887 51.0179 13.2527 51.0766 13.414C51.1352 13.5753 51.2306 13.678 51.3626 13.722C51.4946 13.7513 51.7292 13.766 52.0666 13.766H52.2866V16.516C51.7146 16.9413 50.9666 17.154 50.0426 17.154ZM53.2106 5.78H57.2806V17H53.2106V5.78ZM59.7872 0.653999H63.8572V3.822H59.7872V0.653999ZM59.7872 5.78H63.8572V17H59.7872V5.78ZM65.5034 5.78H67.5714V2.524H71.6414V5.78H74.1054V8.882H65.5034V5.78ZM67.5714 9.762H71.6414V17H67.5714V9.762ZM85.0729 1.864H85.4469L87.1849 7.892L84.6549 17H80.2549L85.0729 1.864ZM90.0229 14.316H86.3489L87.2729 10.928H89.0329L86.4369 1.864H90.4629L95.2809 17H90.7929L90.0229 14.316ZM96.7445 1.864H101.144V17H96.7445V1.864Z" fill="#FAFCFF"/>
</svg>
