<svg width="30" height="34" viewBox="0 0 30 34" fill="none" xmlns="http://www.w3.org/2000/svg">
<rect x="0.5" y="0.5" width="29" height="33" rx="8.5" fill="#FAFCFF" stroke="#EDEEF1"/>
<path d="M12.6593 21.9465C12.5198 21.8756 12.1093 21.4245 12.0495 21.2785C11.9897 21.1345 11.9897 20.9283 12.0495 20.7844C12.0854 20.6942 12.4082 20.3376 14.0304 18.5869L15.9675 16.499L14.0225 14.3982C11.8662 12.074 12.0017 12.2373 12.0017 11.9451C12.0037 11.7303 12.0555 11.6337 12.3166 11.3523C12.5876 11.0601 12.6852 11 12.8985 11C13.0041 11 13.0619 11.0129 13.1376 11.0516C13.2173 11.0924 13.6877 11.5886 15.5909 13.6443C17.5259 15.7343 17.9504 16.2026 17.9723 16.2735C18.0162 16.411 18.0062 16.643 17.9544 16.7675C17.9165 16.8578 17.516 17.2981 15.5829 19.3817C13.0001 22.1656 13.1735 21.9981 12.8985 21.9981C12.7929 21.9981 12.7351 21.9852 12.6593 21.9465Z" fill="#686C6F"/>
</svg>
