<svg width="76" height="20" viewBox="0 0 76 20" fill="none" xmlns="http://www.w3.org/2000/svg">
<path d="M0.3 1.24H4.3V15H0.3V1.24ZM5.94 10.32H5.14V7.26H5.82C6.23333 7.26 6.54667 7.24667 6.76 7.22C6.97333 7.18 7.14 7.11333 7.26 7.02C7.36667 6.92667 7.44 6.78667 7.48 6.6C7.52 6.41333 7.54 6.14 7.54 5.78C7.54 5.42 7.52 5.14667 7.48 4.96C7.44 4.76 7.36667 4.61333 7.26 4.52C7.15333 4.42667 6.99333 4.36667 6.78 4.34C6.58 4.31333 6.26 4.3 5.82 4.3H5.14V1.24H7.2C8.14667 1.24 8.91333 1.33333 9.5 1.52C10.0867 1.70667 10.54 1.99333 10.86 2.38C11.1533 2.74 11.3467 3.18667 11.44 3.72C11.5467 4.25333 11.6 4.94 11.6 5.78C11.6 6.86 11.5 7.69333 11.3 8.28C11.02 9.02667 10.5267 9.55333 9.82 9.86L11.9 15H7.7L5.94 10.32ZM13.6166 0.139999H17.3166V3.02H13.6166V0.139999ZM13.6166 4.8H17.3166V15H13.6166V4.8ZM22.2931 14.94C21.7598 14.94 21.3065 14.8533 20.9331 14.68C20.5598 14.4933 20.2531 14.2 20.0131 13.8C19.5331 13.0267 19.2931 11.68 19.2931 9.76C19.2931 7.82667 19.5331 6.48667 20.0131 5.74C20.2531 5.36667 20.5598 5.09333 20.9331 4.92C21.3065 4.74667 21.7598 4.66 22.2931 4.66C22.7465 4.66 23.1331 4.7 23.4531 4.78C23.7731 4.86 24.0665 5.00667 24.3331 5.22V7.74H24.1131C23.8198 7.74 23.6065 7.76 23.4731 7.8C23.3531 7.82667 23.2598 7.89333 23.1931 8C23.1265 8.14667 23.0865 8.35333 23.0731 8.62C23.0598 8.80667 23.0531 9.2 23.0531 9.8C23.0531 10.4 23.0598 10.7933 23.0731 10.98C23.0865 11.26 23.1265 11.4667 23.1931 11.6C23.2598 11.72 23.3665 11.7933 23.5131 11.82C23.6998 11.8467 23.8998 11.86 24.1131 11.86H24.3331V14.4C24.0665 14.6133 23.7798 14.76 23.4731 14.84C23.1665 14.9067 22.7731 14.94 22.2931 14.94ZM23.6331 19.12C22.9665 19.12 22.1665 19.08 21.2331 19L20.0331 18.88V16.3H22.7131C23.1931 16.3 23.6598 16.2867 24.1131 16.26C24.4465 16.2333 24.6865 16.1667 24.8331 16.06C24.9931 15.9667 25.0931 15.8 25.1331 15.56C25.1598 15.24 25.1731 14.9 25.1731 14.54V4.8H28.8731V13.88C28.8731 14.92 28.8265 15.7333 28.7331 16.32C28.6398 16.92 28.4398 17.42 28.1331 17.82C27.7865 18.26 27.2531 18.5867 26.5331 18.8C25.8265 19.0133 24.8598 19.12 23.6331 19.12ZM31.1556 0.139999H34.8556V15H31.1556V0.139999ZM36.9356 10.18C36.9356 9.47333 36.929 9.00667 36.9156 8.78C36.889 8.40667 36.8556 8.16 36.8156 8.04C36.7623 7.90667 36.669 7.82667 36.5356 7.8C36.4023 7.76 36.189 7.74 35.8956 7.74H35.6956V5.3C36.229 4.87333 36.909 4.66 37.7356 4.66C38.9356 4.66 39.7423 5.02667 40.1556 5.76C40.3423 6.08 40.469 6.47333 40.5356 6.94C40.6023 7.39333 40.6356 7.95333 40.6356 8.62V15H36.9356V10.18ZM42.1334 4.8H44.0134V1.84H47.7134V4.8H49.9534V7.62H42.1334V4.8ZM44.0134 8.42H47.7134V15H44.0134V8.42ZM51.6086 1.24H55.6086V15H51.6086V1.24ZM56.4486 1.24H61.1286V4.3H56.4486V1.24ZM56.4486 6.92H60.3886V9.98H56.4486V6.92ZM62.972 0.139999H66.672V3.02H62.972V0.139999ZM62.972 4.8H66.672V15H62.972V4.8ZM68.1686 4.8H70.0486V1.84H73.7486V4.8H75.9886V7.62H68.1686V4.8ZM70.0486 8.42H73.7486V15H70.0486V8.42Z" fill="#696D70"/>
</svg>
