<svg width="34" height="34" viewBox="0 0 34 34" fill="none" xmlns="http://www.w3.org/2000/svg">
<circle cx="17" cy="17" r="17" fill="#0161FF"/>
<path d="M15.6957 11.03C14.4796 11.1688 13.3955 11.6931 12.5424 12.5566C11.7147 13.3943 11.1943 14.4454 11.0394 15.5968C10.9886 15.9694 10.9861 16.7096 11.0368 17.0668C11.1638 17.974 11.5167 18.8246 12.0676 19.5648C12.2707 19.8372 12.7785 20.3512 13.0477 20.5567C13.6951 21.0527 14.4212 21.3894 15.1879 21.5487C16.5209 21.8263 17.968 21.5539 19.1004 20.8112L19.2375 20.7212L20.7608 22.2555C22.4289 23.9336 22.4111 23.9208 22.7717 23.985C23.2388 24.0647 23.7034 23.8206 23.904 23.3888C24.0411 23.0958 24.031 22.6924 23.8761 22.4122C23.838 22.3403 23.2414 21.7158 22.2639 20.7264L20.7151 19.1536L20.8091 18.9968C21.1366 18.452 21.3956 17.6527 21.4844 16.9126C21.52 16.6042 21.5149 16.0234 21.4743 15.679C21.2966 14.245 20.5653 12.9575 19.433 12.0863C18.387 11.2793 16.988 10.8835 15.6957 11.03ZM16.6478 12.7776C17.8995 12.9292 18.9582 13.713 19.4736 14.8772C20.0652 16.2059 19.7884 17.7838 18.7754 18.822C18.1559 19.4594 17.412 19.814 16.5386 19.8911C15.0991 20.0196 13.7052 19.2127 13.068 17.8763C12.9283 17.5859 12.7912 17.1259 12.7506 16.8175C12.71 16.522 12.7303 15.8692 12.7887 15.6019C12.9537 14.8361 13.3701 14.1242 13.9388 13.6334C14.7106 12.9677 15.6805 12.6593 16.6478 12.7776Z" fill="#FAFCFF"/>
</svg>
