<svg width="167" height="192" viewBox="0 0 167 192" fill="none" xmlns="http://www.w3.org/2000/svg">
<rect width="167" height="192" rx="10" fill="#FAFCFF"/>
<path d="M30.78 27V19.95H35.43V20.96H32.07V22.96H35.2V23.97H32.07V27H30.78ZM38.0957 27.1C37.4757 27.1 37.0124 26.93 36.7057 26.59C36.399 26.25 36.2457 25.73 36.2457 25.03V21.95H37.4957V25.02C37.4957 25.3933 37.5724 25.67 37.7257 25.85C37.879 26.0233 38.1124 26.11 38.4257 26.11C38.779 26.11 39.0657 25.99 39.2857 25.75C39.5124 25.51 39.6257 25.1933 39.6257 24.8V21.95H40.8757V27H39.6557V25.97H39.7957C39.649 26.33 39.4257 26.61 39.1257 26.81C38.8324 27.0033 38.489 27.1 38.0957 27.1ZM42.2327 27V19.64H43.4827V27H42.2327ZM44.8402 27V19.64H46.0902V27H44.8402ZM47.4376 24.74V23.75H50.4776V24.74H47.4376ZM53.9923 27.1C53.3923 27.1 52.939 26.9433 52.6323 26.63C52.3257 26.3167 52.1723 25.8467 52.1723 25.22V22.89H51.2023V21.95H52.1723V20.66L53.4223 20.34V21.95H54.7723V22.89H53.4223V25.14C53.4223 25.4867 53.489 25.73 53.6223 25.87C53.7557 26.01 53.939 26.08 54.1723 26.08C54.299 26.08 54.4057 26.07 54.4923 26.05C54.5857 26.03 54.6757 26.0033 54.7623 25.97V26.96C54.649 27.0067 54.5223 27.04 54.3823 27.06C54.249 27.0867 54.119 27.1 53.9923 27.1ZM55.6214 27V21.95H56.8714V27H55.6214ZM55.5514 21V19.78H56.9414V21H55.5514ZM58.2288 27V23.21C58.2288 23.0033 58.2222 22.7933 58.2088 22.58C58.1955 22.3667 58.1755 22.1567 58.1488 21.95H59.3588L59.4588 22.95H59.3388C59.4788 22.6033 59.6922 22.3333 59.9788 22.14C60.2722 21.9467 60.6188 21.85 61.0188 21.85C61.4188 21.85 61.7488 21.9467 62.0088 22.14C62.2755 22.3267 62.4622 22.62 62.5688 23.02H62.4088C62.5488 22.66 62.7788 22.3767 63.0988 22.17C63.4188 21.9567 63.7855 21.85 64.1988 21.85C64.7655 21.85 65.1888 22.0167 65.4688 22.35C65.7488 22.6833 65.8888 23.2033 65.8888 23.91V27H64.6388V23.96C64.6388 23.56 64.5722 23.2733 64.4388 23.1C64.3055 22.92 64.0922 22.83 63.7988 22.83C63.4522 22.83 63.1788 22.9533 62.9788 23.2C62.7788 23.44 62.6788 23.7667 62.6788 24.18V27H61.4288V23.96C61.4288 23.56 61.3622 23.2733 61.2288 23.1C61.0955 22.92 60.8822 22.83 60.5888 22.83C60.2422 22.83 59.9688 22.9533 59.7688 23.2C59.5755 23.44 59.4788 23.7667 59.4788 24.18V27H58.2288ZM69.663 27.1C68.8163 27.1 68.153 26.8667 67.673 26.4C67.193 25.9333 66.953 25.2933 66.953 24.48C66.953 23.9533 67.0563 23.4933 67.263 23.1C67.4696 22.7067 67.7563 22.4 68.123 22.18C68.4963 21.96 68.9296 21.85 69.423 21.85C69.9096 21.85 70.3163 21.9533 70.643 22.16C70.9696 22.3667 71.2163 22.6567 71.383 23.03C71.5563 23.4033 71.643 23.84 71.643 24.34V24.67H67.963V24.01H70.753L70.583 24.15C70.583 23.6833 70.483 23.3267 70.283 23.08C70.0896 22.8333 69.8063 22.71 69.433 22.71C69.0196 22.71 68.6996 22.8567 68.473 23.15C68.253 23.4433 68.143 23.8533 68.143 24.38V24.51C68.143 25.0567 68.2763 25.4667 68.543 25.74C68.8163 26.0067 69.1996 26.14 69.693 26.14C69.9796 26.14 70.2463 26.1033 70.493 26.03C70.7463 25.95 70.9863 25.8233 71.213 25.65L71.583 26.49C71.343 26.6833 71.0563 26.8333 70.723 26.94C70.3896 27.0467 70.0363 27.1 69.663 27.1Z" fill="#173C98"/>
<path d="M16.8096 20.1039C15.3943 20.7117 14.2045 21.2336 14.1615 21.2658C13.9489 21.429 13.9468 21.7898 14.1594 21.9509C14.198 21.981 15.39 22.5007 16.8074 23.1042C19.1634 24.1072 19.3932 24.2017 19.5006 24.2017C19.608 24.2017 19.84 24.1072 22.1938 23.1042C23.6113 22.4986 24.8032 21.981 24.8419 21.9509C25.0523 21.7898 25.0523 21.4333 24.844 21.2679C24.8054 21.2379 23.6113 20.7138 22.1917 20.1061C19.8442 19.0988 19.6016 19 19.4963 19C19.3932 19.0022 19.1183 19.1138 16.8096 20.1039ZM21.47 20.7654C22.5482 21.2271 23.4287 21.6073 23.4244 21.6116C23.4223 21.6137 22.5417 21.9896 21.4679 22.447C20.2523 22.9646 19.5006 23.2739 19.4749 23.2674C19.4512 23.261 18.5642 22.8851 17.5011 22.432C15.8625 21.734 15.5768 21.6051 15.6176 21.5879C15.8539 21.4806 19.4727 19.9257 19.4899 19.9257C19.5028 19.9235 20.3941 20.3015 21.47 20.7654Z" fill="#173C98"/>
<path d="M14.3419 23.3383C14.2217 23.3598 14.0993 23.4522 14.0477 23.5574C13.9532 23.7528 14.0112 24.017 14.1723 24.1222C14.2152 24.1501 15.3986 24.6634 16.8053 25.2648C19.3031 26.33 19.3632 26.3558 19.5006 26.3558C19.6381 26.3558 19.6982 26.33 22.196 25.2648C23.6027 24.6634 24.7861 24.1501 24.829 24.1222C24.9922 24.0148 25.0502 23.7421 24.9493 23.551C24.8763 23.4135 24.7388 23.334 24.5756 23.334C24.4575 23.334 24.2985 23.3985 21.9748 24.3885L19.5006 25.443L17.0373 24.3928C15.6799 23.8173 14.5374 23.3383 14.4966 23.3319C14.4558 23.3276 14.3849 23.3297 14.3419 23.3383Z" fill="#173C98"/>
<path d="M14.2603 25.5182C13.9682 25.6492 13.9081 26.0594 14.1508 26.2634C14.1851 26.2935 15.3771 26.8154 16.801 27.4253C19.1055 28.4133 19.4018 28.5357 19.5006 28.5357C19.5994 28.5357 19.8958 28.4133 22.2002 27.4253C23.6241 26.8154 24.8161 26.2935 24.8505 26.2634C24.9471 26.184 24.9987 26.0637 24.9987 25.9263C24.9987 25.6578 24.7925 25.4645 24.5283 25.4903C24.4596 25.4967 23.6821 25.821 21.9661 26.5577L19.5006 27.6165L17.0373 26.5577C14.3806 25.4173 14.4386 25.4387 14.2603 25.5182Z" fill="#173C98"/>
<path d="M30.78 53V45.95H35.43V46.96H32.07V48.96H35.2V49.97H32.07V53H30.78ZM36.4027 53V47.95H37.6527V53H36.4027ZM36.3327 47V45.78H37.7227V47H36.3327ZM39.0101 53V49.21C39.0101 49.0033 39.0034 48.7933 38.9901 48.58C38.9767 48.3667 38.9567 48.1567 38.9301 47.95H40.1401L40.2401 48.95H40.1201C40.2801 48.5967 40.5167 48.3267 40.8301 48.14C41.1434 47.9467 41.5067 47.85 41.9201 47.85C42.5134 47.85 42.9601 48.0167 43.2601 48.35C43.5601 48.6833 43.7101 49.2033 43.7101 49.91V53H42.4601V49.97C42.4601 49.5633 42.3801 49.2733 42.2201 49.1C42.0667 48.92 41.8334 48.83 41.5201 48.83C41.1334 48.83 40.8267 48.95 40.6001 49.19C40.3734 49.43 40.2601 49.75 40.2601 50.15V53H39.0101ZM46.9855 53.1C46.5455 53.1 46.1588 52.9967 45.8255 52.79C45.4921 52.5767 45.2321 52.2733 45.0455 51.88C44.8588 51.4867 44.7655 51.0167 44.7655 50.47C44.7655 49.9233 44.8588 49.4567 45.0455 49.07C45.2321 48.6767 45.4921 48.3767 45.8255 48.17C46.1588 47.9567 46.5455 47.85 46.9855 47.85C47.4121 47.85 47.7855 47.9567 48.1055 48.17C48.4321 48.3767 48.6488 48.6567 48.7555 49.01H48.6455L48.7555 47.95H49.9555C49.9355 48.1567 49.9155 48.3667 49.8955 48.58C49.8821 48.7933 49.8755 49.0033 49.8755 49.21V53H48.6355L48.6255 51.96H48.7455C48.6388 52.3067 48.4221 52.5833 48.0955 52.79C47.7688 52.9967 47.3988 53.1 46.9855 53.1ZM47.3355 52.14C47.7288 52.14 48.0455 52.0033 48.2855 51.73C48.5255 51.45 48.6455 51.03 48.6455 50.47C48.6455 49.91 48.5255 49.4933 48.2855 49.22C48.0455 48.9467 47.7288 48.81 47.3355 48.81C46.9421 48.81 46.6255 48.9467 46.3855 49.22C46.1455 49.4933 46.0255 49.91 46.0255 50.47C46.0255 51.03 46.1421 51.45 46.3755 51.73C46.6155 52.0033 46.9355 52.14 47.3355 52.14ZM51.2366 53V49.21C51.2366 49.0033 51.23 48.7933 51.2166 48.58C51.2033 48.3667 51.1833 48.1567 51.1566 47.95H52.3666L52.4666 48.95H52.3466C52.5066 48.5967 52.7433 48.3267 53.0566 48.14C53.37 47.9467 53.7333 47.85 54.1466 47.85C54.74 47.85 55.1866 48.0167 55.4866 48.35C55.7866 48.6833 55.9366 49.2033 55.9366 49.91V53H54.6866V49.97C54.6866 49.5633 54.6066 49.2733 54.4466 49.1C54.2933 48.92 54.06 48.83 53.7466 48.83C53.36 48.83 53.0533 48.95 52.8266 49.19C52.6 49.43 52.4866 49.75 52.4866 50.15V53H51.2366ZM59.582 53.1C59.062 53.1 58.6054 52.9933 58.212 52.78C57.8254 52.5667 57.5254 52.2633 57.312 51.87C57.0987 51.47 56.992 50.9967 56.992 50.45C56.992 49.9033 57.0987 49.4367 57.312 49.05C57.532 48.6633 57.8354 48.3667 58.222 48.16C58.6087 47.9533 59.062 47.85 59.582 47.85C59.9154 47.85 60.2387 47.9033 60.552 48.01C60.872 48.11 61.132 48.2567 61.332 48.45L60.952 49.32C60.772 49.1533 60.5687 49.03 60.342 48.95C60.122 48.8633 59.9054 48.82 59.692 48.82C59.2454 48.82 58.8954 48.96 58.642 49.24C58.3954 49.52 58.272 49.9267 58.272 50.46C58.272 50.9933 58.3954 51.4033 58.642 51.69C58.8954 51.9767 59.2454 52.12 59.692 52.12C59.8987 52.12 60.112 52.08 60.332 52C60.5587 51.92 60.7654 51.7967 60.952 51.63L61.332 52.49C61.1254 52.6833 60.862 52.8333 60.542 52.94C60.2287 53.0467 59.9087 53.1 59.582 53.1ZM64.6434 53.1C63.7968 53.1 63.1334 52.8667 62.6534 52.4C62.1734 51.9333 61.9334 51.2933 61.9334 50.48C61.9334 49.9533 62.0368 49.4933 62.2434 49.1C62.4501 48.7067 62.7368 48.4 63.1034 48.18C63.4768 47.96 63.9101 47.85 64.4034 47.85C64.8901 47.85 65.2968 47.9533 65.6234 48.16C65.9501 48.3667 66.1968 48.6567 66.3634 49.03C66.5368 49.4033 66.6234 49.84 66.6234 50.34V50.67H62.9434V50.01H65.7334L65.5634 50.15C65.5634 49.6833 65.4634 49.3267 65.2634 49.08C65.0701 48.8333 64.7868 48.71 64.4134 48.71C64.0001 48.71 63.6801 48.8567 63.4534 49.15C63.2334 49.4433 63.1234 49.8533 63.1234 50.38V50.51C63.1234 51.0567 63.2568 51.4667 63.5234 51.74C63.7968 52.0067 64.1801 52.14 64.6734 52.14C64.9601 52.14 65.2268 52.1033 65.4734 52.03C65.7268 51.95 65.9668 51.8233 66.1934 51.65L66.5634 52.49C66.3234 52.6833 66.0368 52.8333 65.7034 52.94C65.3701 53.0467 65.0168 53.1 64.6434 53.1Z" fill="#173C98"/>
<path d="M19.0939 44.0392C18.907 44.0872 18.7459 44.1582 18.6041 44.2499C18.4816 44.3292 14.0752 48.593 14.0301 48.6744C14.0129 48.7057 14 48.7808 14 48.8413C14 49.0436 14.1311 49.1709 14.3395 49.1709C14.4855 49.1709 14.5371 49.1417 14.709 48.9727L14.8486 48.835L14.8594 51.0754L14.8701 53.3137L14.9496 53.4702C15.0506 53.6683 15.2289 53.8394 15.433 53.9332L15.5791 54H19.5H23.4209L23.567 53.9332C23.7711 53.8394 23.9494 53.6683 24.0504 53.4702L24.1299 53.3137L24.1406 51.0754L24.1514 48.835L24.291 48.9727C24.4629 49.1417 24.5145 49.1709 24.6605 49.1709C24.8689 49.1709 25 49.0436 25 48.8413C25 48.7808 24.9871 48.7057 24.9699 48.6744C24.9527 48.6431 23.9301 47.6418 22.6969 46.4486C20.2691 44.0956 20.3658 44.1811 20.0049 44.0664C19.7664 43.9913 19.3303 43.9767 19.0939 44.0392ZM19.8652 44.7568C19.9963 44.8152 20.108 44.9175 21.7301 46.4882L23.4531 48.1591L23.4488 50.6457C23.4424 53.1197 23.4424 53.1322 23.3973 53.1885C23.3736 53.2198 23.3264 53.2657 23.2941 53.2887C23.2361 53.3304 23.2061 53.3325 22.2264 53.3387L21.2188 53.345V51.939C21.2188 50.5935 21.2166 50.5247 21.1758 50.3974C21.0727 50.072 20.8063 49.8134 20.4689 49.7132C20.3443 49.6757 20.267 49.6715 19.5 49.6715C18.733 49.6715 18.6557 49.6757 18.5311 49.7132C18.1937 49.8134 17.9273 50.072 17.8242 50.3974C17.7834 50.5247 17.7812 50.5935 17.7812 51.939V53.345L16.7736 53.3387C15.7939 53.3325 15.7639 53.3304 15.7059 53.2887C15.6736 53.2657 15.6264 53.2198 15.6027 53.1885C15.5576 53.1322 15.5576 53.1197 15.5512 50.6457L15.5469 48.1591L17.2377 46.5154C18.1701 45.6121 18.9629 44.8528 19.0037 44.8278C19.1863 44.7172 19.3066 44.6838 19.5215 44.6901C19.6912 44.6963 19.7492 44.7068 19.8652 44.7568ZM20.3078 50.3849C20.4109 50.4392 20.4818 50.5351 20.5076 50.6519C20.5227 50.7229 20.5312 51.1964 20.5312 52.0496V53.3429H19.5H18.4688V52.0433C18.4709 51.3299 18.4795 50.7041 18.4881 50.654C18.5182 50.5101 18.6277 50.3933 18.7717 50.3599C18.8125 50.3495 19.1584 50.3432 19.543 50.3453C20.1574 50.3495 20.2498 50.3536 20.3078 50.3849Z" fill="#173C98"/>
<path d="M32.44 79V73.01H30.11V71.95H36.06V73.01H33.73V79H32.44ZM36.8714 79V71.64H38.1214V74.96H37.9814C38.1347 74.6 38.3714 74.3267 38.6914 74.14C39.0114 73.9467 39.3781 73.85 39.7914 73.85C40.3914 73.85 40.8381 74.02 41.1314 74.36C41.4247 74.6933 41.5714 75.2033 41.5714 75.89V79H40.3214V75.95C40.3214 75.5567 40.2447 75.2733 40.0914 75.1C39.9447 74.92 39.7081 74.83 39.3814 74.83C39.0014 74.83 38.6947 74.95 38.4614 75.19C38.2347 75.4233 38.1214 75.7367 38.1214 76.13V79H36.8714ZM42.8968 79V73.95H44.1468V79H42.8968ZM42.8268 73V71.78H44.2168V73H42.8268ZM45.5042 79V75.21C45.5042 75.0033 45.4976 74.7933 45.4842 74.58C45.4709 74.3667 45.4509 74.1567 45.4242 73.95H46.6342L46.7342 74.95H46.6142C46.7542 74.6033 46.9676 74.3333 47.2542 74.14C47.5476 73.9467 47.8942 73.85 48.2942 73.85C48.6942 73.85 49.0242 73.9467 49.2842 74.14C49.5509 74.3267 49.7376 74.62 49.8442 75.02H49.6842C49.8242 74.66 50.0542 74.3767 50.3742 74.17C50.6942 73.9567 51.0609 73.85 51.4742 73.85C52.0409 73.85 52.4642 74.0167 52.7442 74.35C53.0242 74.6833 53.1642 75.2033 53.1642 75.91V79H51.9142V75.96C51.9142 75.56 51.8476 75.2733 51.7142 75.1C51.5809 74.92 51.3676 74.83 51.0742 74.83C50.7276 74.83 50.4542 74.9533 50.2542 75.2C50.0542 75.44 49.9542 75.7667 49.9542 76.18V79H48.7042V75.96C48.7042 75.56 48.6376 75.2733 48.5042 75.1C48.3709 74.92 48.1576 74.83 47.8642 74.83C47.5176 74.83 47.2442 74.9533 47.0442 75.2C46.8509 75.44 46.7542 75.7667 46.7542 76.18V79H45.5042ZM54.4984 81.16V75.21C54.4984 75.0033 54.4917 74.7933 54.4784 74.58C54.465 74.3667 54.445 74.1567 54.4184 73.95H55.6284L55.7384 75.01H55.6284C55.7284 74.6567 55.9384 74.3767 56.2584 74.17C56.585 73.9567 56.9617 73.85 57.3884 73.85C57.835 73.85 58.225 73.9567 58.5584 74.17C58.8917 74.3767 59.1517 74.6767 59.3384 75.07C59.525 75.4567 59.6184 75.9233 59.6184 76.47C59.6184 77.0167 59.525 77.4867 59.3384 77.88C59.1517 78.2733 58.8917 78.5767 58.5584 78.79C58.225 78.9967 57.835 79.1 57.3884 79.1C56.9684 79.1 56.5984 78.9967 56.2784 78.79C55.9584 78.5833 55.745 78.3067 55.6384 77.96H55.7484V81.16H54.4984ZM57.0384 78.14C57.4384 78.14 57.7584 78.0033 57.9984 77.73C58.2384 77.45 58.3584 77.03 58.3584 76.47C58.3584 75.91 58.2384 75.4933 57.9984 75.22C57.7584 74.9467 57.4384 74.81 57.0384 74.81C56.645 74.81 56.3284 74.9467 56.0884 75.22C55.8484 75.4933 55.7284 75.91 55.7284 76.47C55.7284 77.03 55.8484 77.45 56.0884 77.73C56.3284 78.0033 56.645 78.14 57.0384 78.14ZM60.6995 79V71.64H61.9495V74.96H61.8095C61.9629 74.6 62.1995 74.3267 62.5195 74.14C62.8395 73.9467 63.2062 73.85 63.6195 73.85C64.2195 73.85 64.6662 74.02 64.9595 74.36C65.2529 74.6933 65.3995 75.2033 65.3995 75.89V79H64.1495V75.95C64.1495 75.5567 64.0729 75.2733 63.9195 75.1C63.7729 74.92 63.5362 74.83 63.2095 74.83C62.8295 74.83 62.5229 74.95 62.2895 75.19C62.0629 75.4233 61.9495 75.7367 61.9495 76.13V79H60.6995ZM68.5449 79.1C67.9249 79.1 67.4616 78.93 67.1549 78.59C66.8483 78.25 66.6949 77.73 66.6949 77.03V73.95H67.9449V77.02C67.9449 77.3933 68.0216 77.67 68.1749 77.85C68.3283 78.0233 68.5616 78.11 68.8749 78.11C69.2283 78.11 69.5149 77.99 69.7349 77.75C69.9616 77.51 70.0749 77.1933 70.0749 76.8V73.95H71.3249V79H70.1049V77.97H70.2449C70.0983 78.33 69.8749 78.61 69.5749 78.81C69.2816 79.0033 68.9383 79.1 68.5449 79.1Z" fill="#173C98"/>
<path d="M18.3752 70.0416C17.49 70.1924 16.7857 70.5542 16.1676 71.1723C15.4483 71.8895 15.0606 72.779 15.0046 73.8322C14.9615 74.6269 15.22 75.5573 15.8101 76.7268C16.3162 77.7283 16.9623 78.719 17.8389 79.8411C18.2998 80.4312 18.709 80.9136 18.8038 80.9761C18.905 81.045 19.0945 81.045 19.1957 80.9761C19.3422 80.8792 20.2446 79.7635 20.755 79.055C21.9073 77.4483 22.6805 75.9278 22.9066 74.8164C22.9863 74.4266 23.0121 74.1402 22.9949 73.8322C22.9389 72.779 22.5512 71.8895 21.8319 71.1723C21.203 70.5413 20.4686 70.173 19.5683 70.033C19.2668 69.9856 18.6745 69.9899 18.3752 70.0416ZM19.6351 70.7954C20.5698 70.9914 21.371 71.5729 21.8405 72.4C22.1119 72.8781 22.254 73.4187 22.254 73.9894C22.254 75.0641 21.5928 76.5545 20.3071 78.3873C19.844 79.0442 19.0493 80.0672 18.9998 80.0672C18.9502 80.0672 18.1555 79.0442 17.6924 78.3873C17.1669 77.6378 16.8159 77.0649 16.4799 76.4059C15.7864 75.0447 15.6012 74.1036 15.8467 73.1753C16.0018 72.5873 16.2818 72.1071 16.7168 71.6785C17.2359 71.168 17.8777 70.8536 18.6121 70.7524C18.8404 70.7201 19.3896 70.7437 19.6351 70.7954Z" fill="#173C98"/>
<path d="M18.6335 72.0036C18.1877 72.0833 17.7204 72.3612 17.4318 72.7208C17.2638 72.9297 17.0979 73.2636 17.0376 73.5199C16.9773 73.7675 16.973 74.1961 17.0269 74.4244C17.2121 75.1976 17.7656 75.7619 18.5259 75.9557C18.752 76.0139 19.2474 76.0139 19.4735 75.9557C20.2338 75.7619 20.7873 75.1976 20.9725 74.4244C21.0263 74.1961 21.022 73.7675 20.9617 73.5199C20.8993 73.2636 20.7356 72.9297 20.5676 72.7208C20.3221 72.415 19.9236 72.1522 19.5381 72.0446C19.3529 71.9907 18.8338 71.967 18.6335 72.0036ZM19.228 72.7359C19.6243 72.8091 19.9732 73.0783 20.1498 73.4531C20.2467 73.6555 20.279 73.8278 20.2639 74.0755C20.2445 74.4115 20.1175 74.6829 19.8655 74.9241C19.6566 75.1222 19.284 75.2751 18.9997 75.2751C18.7154 75.2751 18.3428 75.1222 18.1339 74.9241C17.8819 74.6829 17.7548 74.4115 17.7354 74.0755C17.7204 73.8278 17.7527 73.6555 17.8496 73.4531C18.1016 72.9233 18.6637 72.6325 19.228 72.7359Z" fill="#173C98"/>
<path d="M15.78 105V97.95H18.91C19.6833 97.95 20.2733 98.1367 20.68 98.51C21.0867 98.8833 21.29 99.3967 21.29 100.05C21.29 100.697 21.0867 101.21 20.68 101.59C20.2733 101.97 19.6833 102.16 18.91 102.16H17.07V105H15.78ZM17.07 101.14H18.76C19.1867 101.14 19.5067 101.047 19.72 100.86C19.9333 100.667 20.04 100.397 20.04 100.05C20.04 99.7033 19.9333 99.4367 19.72 99.25C19.5067 99.0567 19.1867 98.96 18.76 98.96H17.07V101.14ZM24.082 105.1C23.462 105.1 22.9987 104.93 22.692 104.59C22.3854 104.25 22.232 103.73 22.232 103.03V99.95H23.482V103.02C23.482 103.393 23.5587 103.67 23.712 103.85C23.8654 104.023 24.0987 104.11 24.412 104.11C24.7654 104.11 25.052 103.99 25.272 103.75C25.4987 103.51 25.612 103.193 25.612 102.8V99.95H26.862V105H25.642V103.97H25.782C25.6354 104.33 25.412 104.61 25.112 104.81C24.8187 105.003 24.4754 105.1 24.082 105.1ZM31.1091 105.1C30.6824 105.1 30.3091 104.997 29.9891 104.79C29.6691 104.577 29.4557 104.29 29.3491 103.93H29.4591V105H28.2191V97.64H29.4691V100.98H29.3491C29.4624 100.633 29.6791 100.36 29.9991 100.16C30.3191 99.9533 30.6891 99.85 31.1091 99.85C31.5557 99.85 31.9457 99.9567 32.2791 100.17C32.6124 100.383 32.8724 100.687 33.0591 101.08C33.2457 101.467 33.3391 101.933 33.3391 102.48C33.3391 103.027 33.2457 103.497 33.0591 103.89C32.8724 104.277 32.6091 104.577 32.2691 104.79C31.9357 104.997 31.5491 105.1 31.1091 105.1ZM30.7591 104.14C31.1524 104.14 31.4691 104.003 31.7091 103.73C31.9557 103.457 32.0791 103.04 32.0791 102.48C32.0791 101.92 31.9557 101.503 31.7091 101.23C31.4691 100.95 31.1524 100.81 30.7591 100.81C30.3657 100.81 30.0491 100.947 29.8091 101.22C29.5691 101.493 29.4491 101.91 29.4491 102.47C29.4491 103.03 29.5691 103.45 29.8091 103.73C30.0491 104.003 30.3657 104.14 30.7591 104.14ZM34.4202 105V97.64H35.6702V105H34.4202ZM37.0277 105V99.95H38.2777V105H37.0277ZM36.9577 99V97.78H38.3477V99H36.9577ZM41.4351 105.1C41.0017 105.1 40.6017 105.05 40.2351 104.95C39.8751 104.843 39.5717 104.697 39.3251 104.51L39.6751 103.67C39.9284 103.843 40.2084 103.977 40.5151 104.07C40.8217 104.163 41.1317 104.21 41.4451 104.21C41.7784 104.21 42.0251 104.153 42.1851 104.04C42.3517 103.927 42.4351 103.773 42.4351 103.58C42.4351 103.427 42.3817 103.307 42.2751 103.22C42.1751 103.127 42.0117 103.057 41.7851 103.01L40.7851 102.82C40.3584 102.727 40.0317 102.567 39.8051 102.34C39.5851 102.113 39.4751 101.817 39.4751 101.45C39.4751 101.137 39.5584 100.86 39.7251 100.62C39.8984 100.38 40.1417 100.193 40.4551 100.06C40.7751 99.92 41.1484 99.85 41.5751 99.85C41.9484 99.85 42.2984 99.9 42.6251 100C42.9584 100.1 43.2384 100.25 43.4651 100.45L43.1051 101.26C42.8984 101.093 42.6617 100.963 42.3951 100.87C42.1284 100.777 41.8684 100.73 41.6151 100.73C41.2684 100.73 41.0151 100.793 40.8551 100.92C40.6951 101.04 40.6151 101.197 40.6151 101.39C40.6151 101.537 40.6617 101.66 40.7551 101.76C40.8551 101.853 41.0084 101.923 41.2151 101.97L42.2151 102.16C42.6617 102.247 42.9984 102.4 43.2251 102.62C43.4584 102.833 43.5751 103.127 43.5751 103.5C43.5751 103.833 43.4851 104.12 43.3051 104.36C43.1251 104.6 42.8751 104.783 42.5551 104.91C42.2351 105.037 41.8617 105.1 41.4351 105.1ZM44.6448 105V97.64H45.8948V100.96H45.7548C45.9082 100.6 46.1448 100.327 46.4648 100.14C46.7848 99.9467 47.1515 99.85 47.5648 99.85C48.1648 99.85 48.6115 100.02 48.9048 100.36C49.1982 100.693 49.3448 101.203 49.3448 101.89V105H48.0948V101.95C48.0948 101.557 48.0182 101.273 47.8648 101.1C47.7182 100.92 47.4815 100.83 47.1548 100.83C46.7748 100.83 46.4682 100.95 46.2348 101.19C46.0082 101.423 45.8948 101.737 45.8948 102.13V105H44.6448ZM53.1102 105.1C52.2636 105.1 51.6002 104.867 51.1202 104.4C50.6402 103.933 50.4002 103.293 50.4002 102.48C50.4002 101.953 50.5036 101.493 50.7102 101.1C50.9169 100.707 51.2036 100.4 51.5702 100.18C51.9436 99.96 52.3769 99.85 52.8702 99.85C53.3569 99.85 53.7636 99.9533 54.0902 100.16C54.4169 100.367 54.6636 100.657 54.8302 101.03C55.0036 101.403 55.0902 101.84 55.0902 102.34V102.67H51.4102V102.01H54.2002L54.0302 102.15C54.0302 101.683 53.9302 101.327 53.7302 101.08C53.5369 100.833 53.2536 100.71 52.8802 100.71C52.4669 100.71 52.1469 100.857 51.9202 101.15C51.7002 101.443 51.5902 101.853 51.5902 102.38V102.51C51.5902 103.057 51.7236 103.467 51.9902 103.74C52.2636 104.007 52.6469 104.14 53.1402 104.14C53.4269 104.14 53.6936 104.103 53.9402 104.03C54.1936 103.95 54.4336 103.823 54.6602 103.65L55.0302 104.49C54.7902 104.683 54.5036 104.833 54.1702 104.94C53.8369 105.047 53.4836 105.1 53.1102 105.1ZM58.1087 105.1C57.6688 105.1 57.2788 104.997 56.9387 104.79C56.6054 104.577 56.3454 104.273 56.1588 103.88C55.9721 103.487 55.8788 103.017 55.8788 102.47C55.8788 101.923 55.9721 101.457 56.1588 101.07C56.3454 100.677 56.6054 100.377 56.9387 100.17C57.2788 99.9567 57.6688 99.85 58.1087 99.85C58.5288 99.85 58.8988 99.9533 59.2188 100.16C59.5454 100.36 59.7621 100.633 59.8688 100.98H59.7388V97.64H60.9888V105H59.7588V103.93H59.8788C59.7721 104.29 59.5554 104.577 59.2288 104.79C58.9088 104.997 58.5354 105.1 58.1087 105.1ZM58.4588 104.14C58.8521 104.14 59.1688 104.003 59.4088 103.73C59.6488 103.45 59.7688 103.03 59.7688 102.47C59.7688 101.91 59.6488 101.493 59.4088 101.22C59.1688 100.947 58.8521 100.81 58.4588 100.81C58.0654 100.81 57.7454 100.947 57.4988 101.22C57.2588 101.493 57.1388 101.91 57.1388 102.47C57.1388 103.03 57.2588 103.45 57.4988 103.73C57.7454 104.003 58.0654 104.14 58.4588 104.14ZM67.3741 105.1C66.8541 105.1 66.4041 104.993 66.0241 104.78C65.6441 104.567 65.3474 104.263 65.1341 103.87C64.9274 103.477 64.8241 103.01 64.8241 102.47C64.8241 101.93 64.9274 101.467 65.1341 101.08C65.3474 100.687 65.6441 100.383 66.0241 100.17C66.4041 99.9567 66.8541 99.85 67.3741 99.85C67.8941 99.85 68.3441 99.9567 68.7241 100.17C69.1107 100.383 69.4074 100.687 69.6141 101.08C69.8274 101.467 69.9341 101.93 69.9341 102.47C69.9341 103.01 69.8274 103.477 69.6141 103.87C69.4074 104.263 69.1107 104.567 68.7241 104.78C68.3441 104.993 67.8941 105.1 67.3741 105.1ZM67.3741 104.14C67.7674 104.14 68.0807 104.003 68.3141 103.73C68.5474 103.45 68.6641 103.03 68.6641 102.47C68.6641 101.91 68.5474 101.493 68.3141 101.22C68.0807 100.947 67.7674 100.81 67.3741 100.81C66.9807 100.81 66.6674 100.947 66.4341 101.22C66.2007 101.493 66.0841 101.91 66.0841 102.47C66.0841 103.03 66.2007 103.45 66.4341 103.73C66.6674 104.003 66.9807 104.14 67.3741 104.14ZM71.012 105V101.21C71.012 101.003 71.0054 100.793 70.992 100.58C70.9787 100.367 70.9587 100.157 70.932 99.95H72.142L72.242 100.95H72.122C72.282 100.597 72.5187 100.327 72.832 100.14C73.1454 99.9467 73.5087 99.85 73.922 99.85C74.5154 99.85 74.962 100.017 75.262 100.35C75.562 100.683 75.712 101.203 75.712 101.91V105H74.462V101.97C74.462 101.563 74.382 101.273 74.222 101.1C74.0687 100.92 73.8354 100.83 73.522 100.83C73.1354 100.83 72.8287 100.95 72.602 101.19C72.3754 101.43 72.262 101.75 72.262 102.15V105H71.012Z" fill="#173C98"/>
<path d="M15 131L18.19 123.95H19.27L22.5 131H21.19L20.33 129.02L20.85 129.37H16.62L17.16 129.02L16.3 131H15ZM18.72 125.33L17.31 128.67L17.05 128.36H20.41L20.2 128.67L18.76 125.33H18.72ZM23.18 133.16V127.21C23.18 127.003 23.1733 126.793 23.16 126.58C23.1467 126.367 23.1267 126.157 23.1 125.95H24.31L24.42 127.01H24.31C24.41 126.657 24.62 126.377 24.94 126.17C25.2667 125.957 25.6433 125.85 26.07 125.85C26.5167 125.85 26.9067 125.957 27.24 126.17C27.5733 126.377 27.8333 126.677 28.02 127.07C28.2067 127.457 28.3 127.923 28.3 128.47C28.3 129.017 28.2067 129.487 28.02 129.88C27.8333 130.273 27.5733 130.577 27.24 130.79C26.9067 130.997 26.5167 131.1 26.07 131.1C25.65 131.1 25.28 130.997 24.96 130.79C24.64 130.583 24.4267 130.307 24.32 129.96H24.43V133.16H23.18ZM25.72 130.14C26.12 130.14 26.44 130.003 26.68 129.73C26.92 129.45 27.04 129.03 27.04 128.47C27.04 127.91 26.92 127.493 26.68 127.22C26.44 126.947 26.12 126.81 25.72 126.81C25.3267 126.81 25.01 126.947 24.77 127.22C24.53 127.493 24.41 127.91 24.41 128.47C24.41 129.03 24.53 129.45 24.77 129.73C25.01 130.003 25.3267 130.14 25.72 130.14ZM29.3812 133.16V127.21C29.3812 127.003 29.3745 126.793 29.3612 126.58C29.3478 126.367 29.3278 126.157 29.3012 125.95H30.5112L30.6212 127.01H30.5112C30.6112 126.657 30.8212 126.377 31.1412 126.17C31.4678 125.957 31.8445 125.85 32.2712 125.85C32.7178 125.85 33.1078 125.957 33.4412 126.17C33.7745 126.377 34.0345 126.677 34.2212 127.07C34.4078 127.457 34.5012 127.923 34.5012 128.47C34.5012 129.017 34.4078 129.487 34.2212 129.88C34.0345 130.273 33.7745 130.577 33.4412 130.79C33.1078 130.997 32.7178 131.1 32.2712 131.1C31.8512 131.1 31.4812 130.997 31.1612 130.79C30.8412 130.583 30.6278 130.307 30.5212 129.96H30.6312V133.16H29.3812ZM31.9212 130.14C32.3212 130.14 32.6412 130.003 32.8812 129.73C33.1212 129.45 33.2412 129.03 33.2412 128.47C33.2412 127.91 33.1212 127.493 32.8812 127.22C32.6412 126.947 32.3212 126.81 31.9212 126.81C31.5278 126.81 31.2112 126.947 30.9712 127.22C30.7312 127.493 30.6112 127.91 30.6112 128.47C30.6112 129.03 30.7312 129.45 30.9712 129.73C31.2112 130.003 31.5278 130.14 31.9212 130.14ZM35.5823 131V123.64H36.8323V131H35.5823ZM38.1898 131V125.95H39.4398V131H38.1898ZM38.1198 125V123.78H39.5098V125H38.1198ZM43.1172 131.1C42.5972 131.1 42.1405 130.993 41.7472 130.78C41.3605 130.567 41.0605 130.263 40.8472 129.87C40.6339 129.47 40.5272 128.997 40.5272 128.45C40.5272 127.903 40.6339 127.437 40.8472 127.05C41.0672 126.663 41.3705 126.367 41.7572 126.16C42.1439 125.953 42.5972 125.85 43.1172 125.85C43.4505 125.85 43.7739 125.903 44.0872 126.01C44.4072 126.11 44.6672 126.257 44.8672 126.45L44.4872 127.32C44.3072 127.153 44.1039 127.03 43.8772 126.95C43.6572 126.863 43.4405 126.82 43.2272 126.82C42.7805 126.82 42.4305 126.96 42.1772 127.24C41.9305 127.52 41.8072 127.927 41.8072 128.46C41.8072 128.993 41.9305 129.403 42.1772 129.69C42.4305 129.977 42.7805 130.12 43.2272 130.12C43.4339 130.12 43.6472 130.08 43.8672 130C44.0939 129.92 44.3005 129.797 44.4872 129.63L44.8672 130.49C44.6605 130.683 44.3972 130.833 44.0772 130.94C43.7639 131.047 43.4439 131.1 43.1172 131.1ZM47.757 131.1C47.317 131.1 46.9303 130.997 46.597 130.79C46.2636 130.577 46.0036 130.273 45.817 129.88C45.6303 129.487 45.537 129.017 45.537 128.47C45.537 127.923 45.6303 127.457 45.817 127.07C46.0036 126.677 46.2636 126.377 46.597 126.17C46.9303 125.957 47.317 125.85 47.757 125.85C48.1836 125.85 48.557 125.957 48.877 126.17C49.2036 126.377 49.4203 126.657 49.527 127.01H49.417L49.527 125.95H50.727C50.707 126.157 50.687 126.367 50.667 126.58C50.6536 126.793 50.647 127.003 50.647 127.21V131H49.407L49.397 129.96H49.517C49.4103 130.307 49.1936 130.583 48.867 130.79C48.5403 130.997 48.1703 131.1 47.757 131.1ZM48.107 130.14C48.5003 130.14 48.817 130.003 49.057 129.73C49.297 129.45 49.417 129.03 49.417 128.47C49.417 127.91 49.297 127.493 49.057 127.22C48.817 126.947 48.5003 126.81 48.107 126.81C47.7136 126.81 47.397 126.947 47.157 127.22C46.917 127.493 46.797 127.91 46.797 128.47C46.797 129.03 46.9136 129.45 47.147 129.73C47.387 130.003 47.707 130.14 48.107 130.14ZM54.1681 131.1C53.5681 131.1 53.1148 130.943 52.8081 130.63C52.5015 130.317 52.3481 129.847 52.3481 129.22V126.89H51.3781V125.95H52.3481V124.66L53.5981 124.34V125.95H54.9481V126.89H53.5981V129.14C53.5981 129.487 53.6648 129.73 53.7981 129.87C53.9315 130.01 54.1148 130.08 54.3481 130.08C54.4748 130.08 54.5815 130.07 54.6681 130.05C54.7615 130.03 54.8515 130.003 54.9381 129.97V130.96C54.8248 131.007 54.6981 131.04 54.5581 131.06C54.4248 131.087 54.2948 131.1 54.1681 131.1ZM55.7972 131V125.95H57.0472V131H55.7972ZM55.7272 125V123.78H57.1172V125H55.7272ZM60.6846 131.1C60.1646 131.1 59.7146 130.993 59.3346 130.78C58.9546 130.567 58.6579 130.263 58.4446 129.87C58.2379 129.477 58.1346 129.01 58.1346 128.47C58.1346 127.93 58.2379 127.467 58.4446 127.08C58.6579 126.687 58.9546 126.383 59.3346 126.17C59.7146 125.957 60.1646 125.85 60.6846 125.85C61.2046 125.85 61.6546 125.957 62.0346 126.17C62.4213 126.383 62.7179 126.687 62.9246 127.08C63.1379 127.467 63.2446 127.93 63.2446 128.47C63.2446 129.01 63.1379 129.477 62.9246 129.87C62.7179 130.263 62.4213 130.567 62.0346 130.78C61.6546 130.993 61.2046 131.1 60.6846 131.1ZM60.6846 130.14C61.0779 130.14 61.3913 130.003 61.6246 129.73C61.8579 129.45 61.9746 129.03 61.9746 128.47C61.9746 127.91 61.8579 127.493 61.6246 127.22C61.3913 126.947 61.0779 126.81 60.6846 126.81C60.2913 126.81 59.9779 126.947 59.7446 127.22C59.5113 127.493 59.3946 127.91 59.3946 128.47C59.3946 129.03 59.5113 129.45 59.7446 129.73C59.9779 130.003 60.2913 130.14 60.6846 130.14ZM64.3226 131V127.21C64.3226 127.003 64.3159 126.793 64.3026 126.58C64.2892 126.367 64.2692 126.157 64.2426 125.95H65.4526L65.5526 126.95H65.4326C65.5926 126.597 65.8292 126.327 66.1426 126.14C66.4559 125.947 66.8192 125.85 67.2326 125.85C67.8259 125.85 68.2726 126.017 68.5726 126.35C68.8726 126.683 69.0226 127.203 69.0226 127.91V131H67.7726V127.97C67.7726 127.563 67.6926 127.273 67.5326 127.1C67.3792 126.92 67.1459 126.83 66.8326 126.83C66.4459 126.83 66.1392 126.95 65.9126 127.19C65.6859 127.43 65.5726 127.75 65.5726 128.15V131H64.3226ZM75.5321 131.1C74.6854 131.1 74.0221 130.867 73.5421 130.4C73.0621 129.933 72.8221 129.293 72.8221 128.48C72.8221 127.953 72.9254 127.493 73.1321 127.1C73.3388 126.707 73.6254 126.4 73.9921 126.18C74.3654 125.96 74.7988 125.85 75.2921 125.85C75.7788 125.85 76.1854 125.953 76.5121 126.16C76.8388 126.367 77.0854 126.657 77.2521 127.03C77.4254 127.403 77.5121 127.84 77.5121 128.34V128.67H73.8321V128.01H76.6221L76.4521 128.15C76.4521 127.683 76.3521 127.327 76.1521 127.08C75.9588 126.833 75.6754 126.71 75.3021 126.71C74.8888 126.71 74.5688 126.857 74.3421 127.15C74.1221 127.443 74.0121 127.853 74.0121 128.38V128.51C74.0121 129.057 74.1454 129.467 74.4121 129.74C74.6854 130.007 75.0688 130.14 75.5621 130.14C75.8488 130.14 76.1154 130.103 76.3621 130.03C76.6154 129.95 76.8554 129.823 77.0821 129.65L77.4521 130.49C77.2121 130.683 76.9254 130.833 76.5921 130.94C76.2588 131.047 75.9054 131.1 75.5321 131.1ZM78.5706 131V127.21C78.5706 127.003 78.564 126.793 78.5506 126.58C78.5373 126.367 78.5173 126.157 78.4906 125.95H79.7006L79.8006 126.95H79.6806C79.8406 126.597 80.0773 126.327 80.3906 126.14C80.704 125.947 81.0673 125.85 81.4806 125.85C82.074 125.85 82.5206 126.017 82.8206 126.35C83.1206 126.683 83.2706 127.203 83.2706 127.91V131H82.0206V127.97C82.0206 127.563 81.9406 127.273 81.7806 127.1C81.6273 126.92 81.394 126.83 81.0806 126.83C80.694 126.83 80.3873 126.95 80.1606 127.19C79.934 127.43 79.8206 127.75 79.8206 128.15V131H78.5706ZM86.556 131.1C86.116 131.1 85.726 130.997 85.386 130.79C85.0527 130.577 84.7927 130.273 84.606 129.88C84.4193 129.487 84.326 129.017 84.326 128.47C84.326 127.923 84.4193 127.457 84.606 127.07C84.7927 126.677 85.0527 126.377 85.386 126.17C85.726 125.957 86.116 125.85 86.556 125.85C86.976 125.85 87.346 125.953 87.666 126.16C87.9927 126.36 88.2093 126.633 88.316 126.98H88.186V123.64H89.436V131H88.206V129.93H88.326C88.2193 130.29 88.0027 130.577 87.676 130.79C87.356 130.997 86.9827 131.1 86.556 131.1ZM86.906 130.14C87.2993 130.14 87.616 130.003 87.856 129.73C88.096 129.45 88.216 129.03 88.216 128.47C88.216 127.91 88.096 127.493 87.856 127.22C87.616 126.947 87.2993 126.81 86.906 126.81C86.5127 126.81 86.1927 126.947 85.946 127.22C85.706 127.493 85.586 127.91 85.586 128.47C85.586 129.03 85.706 129.45 85.946 129.73C86.1927 130.003 86.5127 130.14 86.906 130.14ZM92.5972 131.1C92.1639 131.1 91.7639 131.05 91.3972 130.95C91.0372 130.843 90.7339 130.697 90.4872 130.51L90.8372 129.67C91.0905 129.843 91.3705 129.977 91.6772 130.07C91.9839 130.163 92.2939 130.21 92.6072 130.21C92.9405 130.21 93.1872 130.153 93.3472 130.04C93.5139 129.927 93.5972 129.773 93.5972 129.58C93.5972 129.427 93.5439 129.307 93.4372 129.22C93.3372 129.127 93.1739 129.057 92.9472 129.01L91.9472 128.82C91.5205 128.727 91.1939 128.567 90.9672 128.34C90.7472 128.113 90.6372 127.817 90.6372 127.45C90.6372 127.137 90.7205 126.86 90.8872 126.62C91.0605 126.38 91.3039 126.193 91.6172 126.06C91.9372 125.92 92.3105 125.85 92.7372 125.85C93.1105 125.85 93.4605 125.9 93.7872 126C94.1205 126.1 94.4005 126.25 94.6272 126.45L94.2672 127.26C94.0605 127.093 93.8239 126.963 93.5572 126.87C93.2905 126.777 93.0305 126.73 92.7772 126.73C92.4305 126.73 92.1772 126.793 92.0172 126.92C91.8572 127.04 91.7772 127.197 91.7772 127.39C91.7772 127.537 91.8239 127.66 91.9172 127.76C92.0172 127.853 92.1705 127.923 92.3772 127.97L93.3772 128.16C93.8239 128.247 94.1605 128.4 94.3872 128.62C94.6205 128.833 94.7372 129.127 94.7372 129.5C94.7372 129.833 94.6472 130.12 94.4672 130.36C94.2872 130.6 94.0372 130.783 93.7172 130.91C93.3972 131.037 93.0239 131.1 92.5972 131.1Z" fill="#173C98"/>
<rect x="38" y="152" width="91" height="24" rx="12" fill="#2496FF"/>
<path d="M64 166L66.871 159.655H67.843L70.75 166H69.571L68.797 164.218L69.265 164.533H65.458L65.944 164.218L65.17 166H64ZM67.348 160.897L66.079 163.903L65.845 163.624H68.869L68.68 163.903L67.384 160.897H67.348ZM71.362 167.944V162.589C71.362 162.403 71.356 162.214 71.344 162.022C71.332 161.83 71.314 161.641 71.29 161.455H72.379L72.478 162.409H72.379C72.469 162.091 72.658 161.839 72.946 161.653C73.24 161.461 73.579 161.365 73.963 161.365C74.365 161.365 74.716 161.461 75.016 161.653C75.316 161.839 75.55 162.109 75.718 162.463C75.886 162.811 75.97 163.231 75.97 163.723C75.97 164.215 75.886 164.638 75.718 164.992C75.55 165.346 75.316 165.619 75.016 165.811C74.716 165.997 74.365 166.09 73.963 166.09C73.585 166.09 73.252 165.997 72.964 165.811C72.676 165.625 72.484 165.376 72.388 165.064H72.487V167.944H71.362ZM73.648 165.226C74.008 165.226 74.296 165.103 74.512 164.857C74.728 164.605 74.836 164.227 74.836 163.723C74.836 163.219 74.728 162.844 74.512 162.598C74.296 162.352 74.008 162.229 73.648 162.229C73.294 162.229 73.009 162.352 72.793 162.598C72.577 162.844 72.469 163.219 72.469 163.723C72.469 164.227 72.577 164.605 72.793 164.857C73.009 165.103 73.294 165.226 73.648 165.226ZM76.9431 167.944V162.589C76.9431 162.403 76.9371 162.214 76.9251 162.022C76.9131 161.83 76.8951 161.641 76.8711 161.455H77.9601L78.0591 162.409H77.9601C78.0501 162.091 78.2391 161.839 78.5271 161.653C78.8211 161.461 79.1601 161.365 79.5441 161.365C79.9461 161.365 80.2971 161.461 80.5971 161.653C80.8971 161.839 81.1311 162.109 81.2991 162.463C81.4671 162.811 81.5511 163.231 81.5511 163.723C81.5511 164.215 81.4671 164.638 81.2991 164.992C81.1311 165.346 80.8971 165.619 80.5971 165.811C80.2971 165.997 79.9461 166.09 79.5441 166.09C79.1661 166.09 78.8331 165.997 78.5451 165.811C78.2571 165.625 78.0651 165.376 77.9691 165.064H78.0681V167.944H76.9431ZM79.2291 165.226C79.5891 165.226 79.8771 165.103 80.0931 164.857C80.3091 164.605 80.4171 164.227 80.4171 163.723C80.4171 163.219 80.3091 162.844 80.0931 162.598C79.8771 162.352 79.5891 162.229 79.2291 162.229C78.8751 162.229 78.5901 162.352 78.3741 162.598C78.1581 162.844 78.0501 163.219 78.0501 163.723C78.0501 164.227 78.1581 164.605 78.3741 164.857C78.5901 165.103 78.8751 165.226 79.2291 165.226ZM82.5241 166V159.376H83.6491V166H82.5241ZM84.7808 168.043L84.5198 167.152C84.8018 167.092 85.0388 167.023 85.2308 166.945C85.4228 166.867 85.5818 166.765 85.7078 166.639C85.8338 166.513 85.9388 166.351 86.0228 166.153L86.2478 165.622L86.2208 166.063L84.2408 161.455H85.4378L86.8598 165.001H86.5988L88.0298 161.455H89.1638L87.0938 166.252C86.9558 166.576 86.8058 166.843 86.6438 167.053C86.4818 167.269 86.3078 167.44 86.1218 167.566C85.9358 167.698 85.7318 167.8 85.5098 167.872C85.2878 167.944 85.0448 168.001 84.7808 168.043Z" fill="#FAFCFF"/>
<path d="M95.9386 159.043C95.5002 159.16 95.1554 159.507 95.0426 159.947C95 160.109 95 160.185 95 163.001C95 165.817 95 165.894 95.0426 166.055C95.1554 166.5 95.5023 166.847 95.9471 166.96C96.1089 167.002 96.1855 167.002 99.0012 167.002C101.817 167.002 101.894 167.002 102.055 166.96C102.5 166.845 102.847 166.498 102.96 166.051C103.002 165.889 103.002 165.823 102.998 164.551C102.992 163.235 102.992 163.216 102.947 163.157C102.924 163.125 102.871 163.074 102.83 163.048C102.768 163.005 102.736 162.999 102.619 163.005C102.451 163.014 102.358 163.071 102.298 163.201C102.262 163.282 102.258 163.365 102.258 164.546C102.258 165.966 102.26 165.936 102.098 166.098C101.928 166.268 102.149 166.258 99.0012 166.258C95.8535 166.258 96.0748 166.268 95.9045 166.098C95.7343 165.928 95.7449 166.149 95.7449 163.001C95.7449 159.853 95.7343 160.075 95.9045 159.905C96.0663 159.743 96.0365 159.745 97.4561 159.745C98.6373 159.745 98.7203 159.741 98.8012 159.704C98.931 159.645 98.9885 159.551 98.997 159.383C99.0034 159.266 98.997 159.234 98.9544 159.172C98.9289 159.132 98.8778 159.079 98.8459 159.055C98.7863 159.011 98.7692 159.011 97.4412 159.006C96.1684 159.002 96.0876 159.004 95.9386 159.043Z" fill="#FAFCFF"/>
<path d="M100.644 159.036C100.461 159.126 100.391 159.377 100.5 159.562C100.536 159.626 100.585 159.67 100.646 159.7C100.732 159.741 100.774 159.745 101.225 159.745H101.715L100.189 161.271C98.7182 162.746 98.665 162.803 98.6437 162.899C98.582 163.199 98.8033 163.42 99.1034 163.359C99.1992 163.337 99.2566 163.284 100.732 161.814L102.258 160.288V160.777C102.258 161.228 102.262 161.271 102.302 161.356C102.43 161.62 102.843 161.62 102.968 161.354C103 161.286 103.002 161.175 102.998 160.249L102.992 159.219L102.934 159.145C102.822 158.998 102.845 159 101.721 159C100.834 159 100.706 159.004 100.644 159.036Z" fill="#FAFCFF"/>
</svg>
