<svg width="355" height="266" viewBox="0 0 355 266" fill="none" xmlns="http://www.w3.org/2000/svg">
<path d="M61.9498 244.241C60.3178 244.241 59.0058 243.785 58.0138 242.873C57.0378 241.945 56.5498 240.633 56.5498 238.937H59.6218C59.6378 239.721 59.8218 240.345 60.1738 240.809C60.5258 241.273 61.0938 241.505 61.8778 241.505C62.6138 241.505 63.1498 241.289 63.4858 240.857C63.8218 240.409 63.9898 239.825 63.9898 239.105V227.153H67.0618V239.105C67.0618 240.753 66.5978 242.025 65.6698 242.921C64.7578 243.801 63.5178 244.241 61.9498 244.241ZM75.9712 244.241C74.8192 244.241 73.7792 243.977 72.8512 243.449C71.9392 242.921 71.2112 242.193 70.6672 241.265C70.1392 240.321 69.8752 239.233 69.8752 238.001C69.8752 236.769 70.1472 235.689 70.6912 234.761C71.2352 233.817 71.9632 233.081 72.8752 232.553C73.8032 232.025 74.8432 231.761 75.9952 231.761C77.1312 231.761 78.1552 232.025 79.0672 232.553C79.9952 233.081 80.7232 233.817 81.2512 234.761C81.7952 235.689 82.0672 236.769 82.0672 238.001C82.0672 239.233 81.7952 240.321 81.2512 241.265C80.7232 242.193 79.9952 242.921 79.0672 243.449C78.1392 243.977 77.1072 244.241 75.9712 244.241ZM75.9712 241.577C76.7712 241.577 77.4672 241.281 78.0592 240.689C78.6512 240.081 78.9472 239.185 78.9472 238.001C78.9472 236.817 78.6512 235.929 78.0592 235.337C77.4672 234.729 76.7792 234.425 75.9952 234.425C75.1792 234.425 74.4752 234.729 73.8832 235.337C73.3072 235.929 73.0192 236.817 73.0192 238.001C73.0192 239.185 73.3072 240.081 73.8832 240.689C74.4752 241.281 75.1712 241.577 75.9712 241.577ZM91.8699 244.241C90.9739 244.241 90.1899 244.073 89.5179 243.737C88.8459 243.401 88.3019 242.929 87.8859 242.321L87.5499 243.953H84.8139V226.673H87.8859V233.753C88.2699 233.225 88.7739 232.761 89.3979 232.361C90.0379 231.961 90.8619 231.761 91.8699 231.761C92.9899 231.761 93.9899 232.033 94.8699 232.577C95.7499 233.121 96.4459 233.865 96.9579 234.809C97.4699 235.753 97.7259 236.825 97.7259 238.025C97.7259 239.225 97.4699 240.297 96.9579 241.241C96.4459 242.169 95.7499 242.905 94.8699 243.449C93.9899 243.977 92.9899 244.241 91.8699 244.241ZM91.2219 241.553C92.1979 241.553 93.0059 241.225 93.6459 240.569C94.2859 239.913 94.6059 239.065 94.6059 238.025C94.6059 236.985 94.2859 236.129 93.6459 235.457C93.0059 234.785 92.1979 234.449 91.2219 234.449C90.2299 234.449 89.4139 234.785 88.7739 235.457C88.1499 236.113 87.8379 236.961 87.8379 238.001C87.8379 239.041 88.1499 239.897 88.7739 240.569C89.4139 241.225 90.2299 241.553 91.2219 241.553ZM111.133 243.953L104.989 227.153H108.277L113.029 240.809L117.805 227.153H121.045L114.901 243.953H111.133ZM125.551 244.241C124.527 244.241 123.687 244.081 123.031 243.761C122.375 243.425 121.887 242.985 121.567 242.441C121.247 241.897 121.087 241.297 121.087 240.641C121.087 239.537 121.519 238.641 122.383 237.953C123.247 237.265 124.543 236.921 126.271 236.921H129.295V236.633C129.295 235.817 129.063 235.217 128.599 234.833C128.135 234.449 127.559 234.257 126.871 234.257C126.247 234.257 125.703 234.409 125.239 234.713C124.775 235.001 124.487 235.433 124.375 236.009H121.375C121.455 235.145 121.743 234.393 122.239 233.753C122.751 233.113 123.407 232.625 124.207 232.289C125.007 231.937 125.903 231.761 126.895 231.761C128.591 231.761 129.927 232.185 130.903 233.033C131.879 233.881 132.367 235.081 132.367 236.633V243.953H129.751L129.463 242.033C129.111 242.673 128.615 243.201 127.975 243.617C127.351 244.033 126.543 244.241 125.551 244.241ZM126.247 241.841C127.127 241.841 127.807 241.553 128.287 240.977C128.783 240.401 129.095 239.689 129.223 238.841H126.607C125.791 238.841 125.207 238.993 124.855 239.297C124.503 239.585 124.327 239.945 124.327 240.377C124.327 240.841 124.503 241.201 124.855 241.457C125.207 241.713 125.671 241.841 126.247 241.841ZM141.13 244.241C139.914 244.241 138.842 243.977 137.914 243.449C136.986 242.921 136.25 242.185 135.706 241.241C135.178 240.297 134.914 239.217 134.914 238.001C134.914 236.785 135.178 235.705 135.706 234.761C136.25 233.817 136.986 233.081 137.914 232.553C138.842 232.025 139.914 231.761 141.13 231.761C142.65 231.761 143.93 232.161 144.97 232.961C146.01 233.745 146.674 234.833 146.962 236.225H143.722C143.562 235.649 143.242 235.201 142.762 234.881C142.298 234.545 141.746 234.377 141.106 234.377C140.258 234.377 139.538 234.697 138.946 235.337C138.354 235.977 138.058 236.865 138.058 238.001C138.058 239.137 138.354 240.025 138.946 240.665C139.538 241.305 140.258 241.625 141.106 241.625C141.746 241.625 142.298 241.465 142.762 241.145C143.242 240.825 143.562 240.369 143.722 239.777H146.962C146.674 241.121 146.01 242.201 144.97 243.017C143.93 243.833 142.65 244.241 141.13 244.241ZM153.793 244.241C152.769 244.241 151.929 244.081 151.273 243.761C150.617 243.425 150.129 242.985 149.809 242.441C149.489 241.897 149.329 241.297 149.329 240.641C149.329 239.537 149.761 238.641 150.625 237.953C151.489 237.265 152.785 236.921 154.513 236.921H157.537V236.633C157.537 235.817 157.305 235.217 156.841 234.833C156.377 234.449 155.801 234.257 155.113 234.257C154.489 234.257 153.945 234.409 153.481 234.713C153.017 235.001 152.729 235.433 152.617 236.009H149.617C149.697 235.145 149.985 234.393 150.481 233.753C150.993 233.113 151.649 232.625 152.449 232.289C153.249 231.937 154.145 231.761 155.137 231.761C156.833 231.761 158.169 232.185 159.145 233.033C160.121 233.881 160.609 235.081 160.609 236.633V243.953H157.993L157.705 242.033C157.353 242.673 156.857 243.201 156.217 243.617C155.593 244.033 154.785 244.241 153.793 244.241ZM154.489 241.841C155.369 241.841 156.049 241.553 156.529 240.977C157.025 240.401 157.337 239.689 157.465 238.841H154.849C154.033 238.841 153.449 238.993 153.097 239.297C152.745 239.585 152.569 239.945 152.569 240.377C152.569 240.841 152.745 241.201 153.097 241.457C153.449 241.713 153.913 241.841 154.489 241.841ZM163.54 243.953V232.049H166.252L166.492 234.065C166.86 233.361 167.388 232.801 168.076 232.385C168.78 231.969 169.604 231.761 170.548 231.761C172.02 231.761 173.164 232.225 173.98 233.153C174.796 234.081 175.204 235.441 175.204 237.233V243.953H172.132V237.521C172.132 236.497 171.924 235.713 171.508 235.169C171.092 234.625 170.444 234.353 169.564 234.353C168.7 234.353 167.988 234.657 167.428 235.265C166.884 235.873 166.612 236.721 166.612 237.809V243.953H163.54ZM183.974 244.241C182.758 244.241 181.686 243.977 180.758 243.449C179.83 242.921 179.094 242.185 178.55 241.241C178.022 240.297 177.758 239.217 177.758 238.001C177.758 236.785 178.022 235.705 178.55 234.761C179.094 233.817 179.83 233.081 180.758 232.553C181.686 232.025 182.758 231.761 183.974 231.761C185.494 231.761 186.774 232.161 187.814 232.961C188.854 233.745 189.518 234.833 189.806 236.225H186.566C186.406 235.649 186.086 235.201 185.606 234.881C185.142 234.545 184.59 234.377 183.95 234.377C183.102 234.377 182.382 234.697 181.79 235.337C181.198 235.977 180.902 236.865 180.902 238.001C180.902 239.137 181.198 240.025 181.79 240.665C182.382 241.305 183.102 241.625 183.95 241.625C184.59 241.625 185.142 241.465 185.606 241.145C186.086 240.825 186.406 240.369 186.566 239.777H189.806C189.518 241.121 188.854 242.201 187.814 243.017C186.774 243.833 185.494 244.241 183.974 244.241ZM194.021 249.233L196.781 243.161H196.061L191.429 232.049H194.765L198.101 240.425L201.581 232.049H204.845L197.285 249.233H194.021ZM212.644 243.953V227.153H218.86C220.204 227.153 221.316 227.377 222.196 227.825C223.076 228.273 223.732 228.889 224.164 229.673C224.596 230.457 224.812 231.337 224.812 232.313C224.812 233.241 224.604 234.097 224.188 234.881C223.772 235.649 223.124 236.273 222.244 236.753C221.364 237.217 220.236 237.449 218.86 237.449H215.716V243.953H212.644ZM215.716 234.953H218.668C219.74 234.953 220.508 234.721 220.972 234.257C221.452 233.777 221.692 233.129 221.692 232.313C221.692 231.481 221.452 230.833 220.972 230.369C220.508 229.889 219.74 229.649 218.668 229.649H215.716V234.953ZM232.252 244.241C231.1 244.241 230.06 243.977 229.132 243.449C228.22 242.921 227.492 242.193 226.948 241.265C226.42 240.321 226.156 239.233 226.156 238.001C226.156 236.769 226.428 235.689 226.972 234.761C227.516 233.817 228.244 233.081 229.156 232.553C230.084 232.025 231.124 231.761 232.276 231.761C233.412 231.761 234.436 232.025 235.348 232.553C236.276 233.081 237.004 233.817 237.532 234.761C238.076 235.689 238.348 236.769 238.348 238.001C238.348 239.233 238.076 240.321 237.532 241.265C237.004 242.193 236.276 242.921 235.348 243.449C234.42 243.977 233.388 244.241 232.252 244.241ZM232.252 241.577C233.052 241.577 233.748 241.281 234.34 240.689C234.932 240.081 235.228 239.185 235.228 238.001C235.228 236.817 234.932 235.929 234.34 235.337C233.748 234.729 233.06 234.425 232.276 234.425C231.46 234.425 230.756 234.729 230.164 235.337C229.588 235.929 229.3 236.817 229.3 238.001C229.3 239.185 229.588 240.081 230.164 240.689C230.756 241.281 231.452 241.577 232.252 241.577ZM246.015 244.241C244.959 244.241 244.031 244.073 243.231 243.737C242.431 243.385 241.791 242.905 241.311 242.297C240.831 241.689 240.543 240.985 240.447 240.185H243.543C243.639 240.649 243.895 241.049 244.311 241.385C244.743 241.705 245.295 241.865 245.967 241.865C246.639 241.865 247.127 241.729 247.431 241.457C247.751 241.185 247.911 240.873 247.911 240.521C247.911 240.009 247.687 239.665 247.239 239.489C246.791 239.297 246.167 239.113 245.367 238.937C244.855 238.825 244.335 238.689 243.807 238.529C243.279 238.369 242.791 238.169 242.343 237.929C241.911 237.673 241.559 237.353 241.287 236.969C241.015 236.569 240.879 236.081 240.879 235.505C240.879 234.449 241.295 233.561 242.127 232.841C242.975 232.121 244.159 231.761 245.679 231.761C247.087 231.761 248.207 232.089 249.039 232.745C249.887 233.401 250.391 234.305 250.551 235.457H247.647C247.471 234.577 246.807 234.137 245.655 234.137C245.079 234.137 244.631 234.249 244.311 234.473C244.007 234.697 243.855 234.977 243.855 235.313C243.855 235.665 244.087 235.945 244.551 236.153C245.015 236.361 245.631 236.553 246.399 236.729C247.231 236.921 247.991 237.137 248.679 237.377C249.383 237.601 249.943 237.945 250.359 238.409C250.775 238.857 250.983 239.505 250.983 240.353C250.999 241.089 250.807 241.753 250.407 242.345C250.007 242.937 249.431 243.401 248.679 243.737C247.927 244.073 247.039 244.241 246.015 244.241ZM258.634 243.953C257.386 243.953 256.386 243.649 255.634 243.041C254.882 242.433 254.506 241.353 254.506 239.801V234.617H252.466V232.049H254.506L254.866 228.857H257.578V232.049H260.794V234.617H257.578V239.825C257.578 240.401 257.698 240.801 257.938 241.025C258.194 241.233 258.626 241.337 259.234 241.337H260.722V243.953H258.634ZM268.91 244.241C267.71 244.241 266.646 243.985 265.718 243.473C264.79 242.961 264.062 242.241 263.534 241.313C263.006 240.385 262.742 239.313 262.742 238.097C262.742 236.865 262.998 235.769 263.51 234.809C264.038 233.849 264.758 233.105 265.67 232.577C266.598 232.033 267.686 231.761 268.934 231.761C270.102 231.761 271.134 232.017 272.03 232.529C272.926 233.041 273.622 233.745 274.118 234.641C274.63 235.521 274.886 236.505 274.886 237.593C274.886 237.769 274.878 237.953 274.862 238.145C274.862 238.337 274.854 238.537 274.838 238.745H265.79C265.854 239.673 266.174 240.401 266.75 240.929C267.342 241.457 268.054 241.721 268.886 241.721C269.51 241.721 270.03 241.585 270.446 241.313C270.878 241.025 271.198 240.657 271.406 240.209H274.526C274.302 240.961 273.926 241.649 273.398 242.273C272.886 242.881 272.246 243.361 271.478 243.713C270.726 244.065 269.87 244.241 268.91 244.241ZM268.934 234.257C268.182 234.257 267.518 234.473 266.942 234.905C266.366 235.321 265.998 235.961 265.838 236.825H271.766C271.718 236.041 271.43 235.417 270.902 234.953C270.374 234.489 269.718 234.257 268.934 234.257ZM282.942 244.241C281.822 244.241 280.822 243.969 279.942 243.425C279.062 242.881 278.366 242.137 277.854 241.193C277.342 240.249 277.086 239.177 277.086 237.977C277.086 236.777 277.342 235.713 277.854 234.785C278.366 233.841 279.062 233.105 279.942 232.577C280.822 232.033 281.822 231.761 282.942 231.761C283.838 231.761 284.622 231.929 285.294 232.265C285.966 232.601 286.51 233.073 286.926 233.681V226.673H289.998V243.953H287.262L286.926 242.249C286.542 242.777 286.03 243.241 285.39 243.641C284.766 244.041 283.95 244.241 282.942 244.241ZM283.59 241.553C284.582 241.553 285.39 241.225 286.014 240.569C286.654 239.897 286.974 239.041 286.974 238.001C286.974 236.961 286.654 236.113 286.014 235.457C285.39 234.785 284.582 234.449 283.59 234.449C282.614 234.449 281.806 234.777 281.166 235.433C280.526 236.089 280.206 236.937 280.206 237.977C280.206 239.017 280.526 239.873 281.166 240.545C281.806 241.217 282.614 241.553 283.59 241.553ZM293.774 238.649L293.438 227.153H296.726L296.366 238.649H293.774ZM295.142 244.121C294.566 244.121 294.094 243.945 293.726 243.593C293.374 243.241 293.198 242.817 293.198 242.321C293.198 241.809 293.374 241.377 293.726 241.025C294.094 240.673 294.566 240.497 295.142 240.497C295.686 240.497 296.134 240.673 296.486 241.025C296.854 241.377 297.038 241.809 297.038 242.321C297.038 242.817 296.854 243.241 296.486 243.593C296.134 243.945 295.686 244.121 295.142 244.121Z" fill="#170F49"/>
<rect opacity="0.5" x="83.3789" y="0.101562" width="75.0869" height="69.4332" rx="10" fill="#9E96FF"/>
<rect opacity="0.5" x="249.382" y="44.3809" width="42.7704" height="39.55" rx="10" fill="#9E96FF"/>
<rect opacity="0.5" x="62.9131" y="100.959" width="45.9369" height="42.478" rx="8" fill="#DEDBFF"/>
<rect opacity="0.5" x="229.405" y="144" width="53.309" height="49.2951" rx="8" fill="#DEDBFF"/>
<ellipse cx="184.521" cy="105.681" rx="87.4074" ry="80.826" fill="#4A3AFF"/>
<g filter="url(#filter0_d_179_2049)">
<path d="M151.427 110.052L170.337 127.538L217.611 83.8232" stroke="white" stroke-width="8" stroke-linecap="round" stroke-linejoin="round"/>
</g>
<defs>
<filter id="filter0_d_179_2049" x="117.427" y="53.8232" width="134.185" height="111.715" filterUnits="userSpaceOnUse" color-interpolation-filters="sRGB">
<feFlood flood-opacity="0" result="BackgroundImageFix"/>
<feColorMatrix in="SourceAlpha" type="matrix" values="0 0 0 0 0 0 0 0 0 0 0 0 0 0 0 0 0 0 127 0" result="hardAlpha"/>
<feOffset dy="4"/>
<feGaussianBlur stdDeviation="15"/>
<feColorMatrix type="matrix" values="0 0 0 0 0.290196 0 0 0 0 0.227451 0 0 0 0 1 0 0 0 0.3 0"/>
<feBlend mode="normal" in2="BackgroundImageFix" result="effect1_dropShadow_179_2049"/>
<feBlend mode="normal" in="SourceGraphic" in2="effect1_dropShadow_179_2049" result="shape"/>
</filter>
</defs>
</svg>
