<svg width="10" height="6" viewBox="0 0 10 6" fill="none" xmlns="http://www.w3.org/2000/svg">
<path d="M0.213636 0.581465C0.271205 0.45844 0.637546 0.096395 0.75617 0.04367C0.873051 -0.009055 1.04052 -0.009055 1.1574 0.04367C1.23067 0.075305 1.52025 0.36002 2.94201 1.79063L4.63764 3.49892L6.34375 1.7836C8.23127 -0.11802 8.09869 0.00149 8.33594 0.00149C8.51039 0.0032475 8.58889 0.0489425 8.81742 0.279175C9.05467 0.518195 9.10352 0.604313 9.10352 0.792365C9.10352 0.885513 9.09305 0.93648 9.06165 1.00327C9.0285 1.07357 8.62553 1.48834 6.95606 3.16675C5.25868 4.87328 4.87838 5.24763 4.82081 5.26696C4.70917 5.30563 4.52076 5.29684 4.41958 5.25114C4.34631 5.21775 3.9887 4.86449 2.29655 3.15972C0.0356998 0.881998 0.171769 1.0349 0.171769 0.792365C0.171769 0.699218 0.182236 0.64825 0.213636 0.581465Z" fill="#686C6F"/>
</svg>
