<svg width="15" height="14" viewBox="0 0 15 14" fill="none" xmlns="http://www.w3.org/2000/svg">
<path d="M6.94629 0.0549479C6.69141 0.122118 6.47168 0.221413 6.27832 0.349912C6.11133 0.460888 0.102539 6.43025 0.0410156 6.54414C0.0175781 6.58795 0 6.69308 0 6.77778C0 7.06106 0.178711 7.23921 0.462891 7.23921C0.662109 7.23921 0.732422 7.19832 0.966797 6.96176L1.15723 6.76902L1.17188 9.90556L1.18652 13.0392L1.29492 13.2582C1.43262 13.5357 1.67578 13.7751 1.9541 13.9065L2.15332 14H7.5H12.8467L13.0459 13.9065C13.3242 13.7751 13.5674 13.5357 13.7051 13.2582L13.8135 13.0392L13.8281 9.90556L13.8428 6.76902L14.0332 6.96176C14.2676 7.19832 14.3379 7.23921 14.5371 7.23921C14.8213 7.23921 15 7.06106 15 6.77778C15 6.69308 14.9824 6.58795 14.959 6.54414C14.9355 6.50034 13.541 5.09853 11.8594 3.42804C8.54883 0.1338 8.68066 0.253537 8.18848 0.0929136C7.86328 -0.0122213 7.26855 -0.0326643 6.94629 0.0549479ZM7.99805 1.05958C8.17676 1.14135 8.3291 1.28445 10.541 3.48353L12.8906 5.8228L12.8848 9.30395C12.876 12.7676 12.876 12.7851 12.8145 12.864C12.7822 12.9078 12.7178 12.972 12.6738 13.0041C12.5947 13.0625 12.5537 13.0655 11.2178 13.0742L9.84375 13.083V11.1146C9.84375 9.23094 9.84082 9.13456 9.78516 8.95642C9.64453 8.50083 9.28125 8.1387 8.82129 7.99852C8.65137 7.94595 8.5459 7.94011 7.5 7.94011C6.4541 7.94011 6.34863 7.94595 6.17871 7.99852C5.71875 8.1387 5.35547 8.50083 5.21484 8.95642C5.15918 9.13456 5.15625 9.23094 5.15625 11.1146V13.083L3.78223 13.0742C2.44629 13.0655 2.40527 13.0625 2.32617 13.0041C2.28223 12.972 2.21777 12.9078 2.18555 12.864C2.12402 12.7851 2.12402 12.7676 2.11523 9.30395L2.10938 5.8228L4.41504 3.5215C5.68652 2.25695 6.76758 1.19392 6.82324 1.15887C7.07227 1.00409 7.23633 0.957361 7.5293 0.966123C7.76074 0.974884 7.83984 0.989486 7.99805 1.05958ZM8.60156 8.9389C8.74219 9.01483 8.83887 9.14917 8.87402 9.31271C8.89453 9.412 8.90625 10.0749 8.90625 11.2694V13.0801H7.5H6.09375V11.2606C6.09668 10.2618 6.1084 9.38572 6.12012 9.31563C6.16113 9.11412 6.31055 8.95058 6.50684 8.90385C6.5625 8.88925 7.03418 8.88049 7.55859 8.88341C8.39648 8.88925 8.52246 8.89509 8.60156 8.9389Z" fill="#686C6F"/>
</svg>
